SplineFontDB: 3.0
FontName: Shabnam
FullName: Shabnam
FamilyName: Shabnam
Weight: Regular
Copyright: Copyright (c) 2003 by Bitstream, Inc. All Rights Reserved.\nDejaVu changes are in public domain\nCopyright (c) 2015 by Saber Rastikerdar. All Rights Reserved.\nNon-Arabic(Latin) glyphs and data are imported from Roboto font under the Apache License, Version 2.0.
Version: 2.2.0
ItalicAngle: 0
UnderlinePosition: -500
UnderlineWidth: 100
Ascent: 1638
Descent: 410
InvalidEm: 0
LayerCount: 2
Layer: 0 1 "Back" 1
Layer: 1 1 "Fore" 0
XUID: [1021 502 1027637223 10289273]
UniqueID: 4139606
UseUniqueID: 1
FSType: 0
OS2Version: 1
OS2_WeightWidthSlopeOnly: 0
OS2_UseTypoMetrics: 1
CreationTime: 1431850356
ModificationTime: 1511612016
PfmFamily: 33
TTFWeight: 400
TTFWidth: 5
LineGap: 0
VLineGap: 0
Panose: 2 11 6 3 3 8 4 2 2 4
OS2TypoAscent: 1900
OS2TypoAOffset: 0
OS2TypoDescent: -900
OS2TypoDOffset: 0
OS2TypoLinegap: 0
OS2WinAscent: 1900
OS2WinAOffset: 0
OS2WinDescent: 900
OS2WinDOffset: 0
HheadAscent: 1900
HheadAOffset: 0
HheadDescent: -900
HheadDOffset: 0
OS2SubXSize: 1331
OS2SubYSize: 1433
OS2SubXOff: 0
OS2SubYOff: 286
OS2SupXSize: 1331
OS2SupYSize: 1433
OS2SupXOff: 0
OS2SupYOff: 983
OS2StrikeYSize: 102
OS2StrikeYPos: 530
OS2Vendor: 'PfEd'
OS2CodePages: 00000041.20080000
OS2UnicodeRanges: 80002003.80000000.00000008.00000000
Lookup: 1 9 0 "'fina' Terminal Forms in Arabic lookup 9" { "'fina' Terminal Forms in Arabic lookup 9 subtable"  } ['fina' ('arab' <'KUR ' 'SND ' 'URD ' 'dflt' > ) ]
Lookup: 1 9 0 "'medi' Medial Forms in Arabic lookup 11" { "'medi' Medial Forms in Arabic lookup 11 subtable"  } ['medi' ('arab' <'KUR ' 'SND ' 'URD ' 'dflt' > ) ]
Lookup: 1 9 0 "'init' Initial Forms in Arabic lookup 13" { "'init' Initial Forms in Arabic lookup 13 subtable"  } ['init' ('arab' <'KUR ' 'SND ' 'URD ' 'dflt' > ) ]
Lookup: 4 1 1 "'rlig' Required Ligatures in Arabic lookup 14" { "'rlig' Required Ligatures in Arabic lookup 14 subtable"  } ['rlig' ('arab' <'KUR ' 'dflt' > ) ]

StartChar: exclam
Encoding: 33 33 1
Width: 568
VWidth: 2391
GlyphClass: 2
Flags: W
LayerCount: 2
Fore
SplineSet
150.919921875 132.381835938 m 128,-1,1
 150.919921875 186.381835938 150.919921875 186.381835938 188.919921875 224.381835938 c 128,-1,2
 226.919921875 262.381835938 226.919921875 262.381835938 281.419921875 262.881835938 c 0,3,4
 336.919921875 262.381835938 336.919921875 262.381835938 374.919921875 224.381835938 c 128,-1,5
 412.919921875 186.381835938 412.919921875 186.381835938 412.919921875 132.381835938 c 128,-1,6
 412.919921875 78.3818359375 412.919921875 78.3818359375 374.919921875 40.3818359375 c 128,-1,7
 336.919921875 2.3818359375 336.919921875 2.3818359375 282.419921875 1.8818359375 c 0,8,9
 226.919921875 2.3818359375 226.919921875 2.3818359375 188.919921875 40.3818359375 c 128,-1,0
 150.919921875 78.3818359375 150.919921875 78.3818359375 150.919921875 132.381835938 c 128,-1,1
176.516601562 1365.35449219 m 5,10,-1
 379.28515625 1365.35449219 l 5,11,-1
 357.629882812 442.609375 l 5,12,-1
 199.25390625 442.609375 l 5,13,-1
 176.516601562 1365.35449219 l 5,10,-1
EndSplineSet
EndChar

StartChar: period
Encoding: 46 46 2
Width: 572
VWidth: 2391
GlyphClass: 2
Flags: W
LayerCount: 2
Fore
SplineSet
156.255859375 129.43359375 m 128,-1,1
 156.255859375 183.43359375 156.255859375 183.43359375 194.255859375 221.43359375 c 128,-1,2
 232.255859375 259.43359375 232.255859375 259.43359375 286.755859375 259.93359375 c 0,3,4
 342.255859375 259.43359375 342.255859375 259.43359375 380.255859375 221.43359375 c 128,-1,5
 418.255859375 183.43359375 418.255859375 183.43359375 418.255859375 129.43359375 c 128,-1,6
 418.255859375 75.43359375 418.255859375 75.43359375 380.255859375 37.43359375 c 128,-1,7
 342.255859375 -0.56640625 342.255859375 -0.56640625 287.755859375 -1.06640625 c 0,8,9
 232.255859375 -0.56640625 232.255859375 -0.56640625 194.255859375 37.43359375 c 128,-1,0
 156.255859375 75.43359375 156.255859375 75.43359375 156.255859375 129.43359375 c 128,-1,1
EndSplineSet
EndChar

StartChar: colon
Encoding: 58 58 3
Width: 579
VWidth: 2391
GlyphClass: 2
Flags: W
LayerCount: 2
Fore
SplineSet
158.203125 834.43359375 m 128,-1,1
 158.203125 888.43359375 158.203125 888.43359375 196.203125 926.43359375 c 128,-1,2
 234.203125 964.43359375 234.203125 964.43359375 288.703125 964.93359375 c 0,3,4
 344.203125 964.43359375 344.203125 964.43359375 382.203125 926.43359375 c 128,-1,5
 420.203125 888.43359375 420.203125 888.43359375 420.203125 834.43359375 c 128,-1,6
 420.203125 780.43359375 420.203125 780.43359375 382.203125 742.43359375 c 128,-1,7
 344.203125 704.43359375 344.203125 704.43359375 289.703125 703.93359375 c 0,8,9
 234.203125 704.43359375 234.203125 704.43359375 196.203125 742.43359375 c 128,-1,0
 158.203125 780.43359375 158.203125 780.43359375 158.203125 834.43359375 c 128,-1,1
158.203125 129.43359375 m 128,-1,11
 158.203125 183.43359375 158.203125 183.43359375 196.203125 221.43359375 c 128,-1,12
 234.203125 259.43359375 234.203125 259.43359375 288.703125 259.93359375 c 0,13,14
 344.203125 259.43359375 344.203125 259.43359375 382.203125 221.43359375 c 128,-1,15
 420.203125 183.43359375 420.203125 183.43359375 420.203125 129.43359375 c 128,-1,16
 420.203125 75.43359375 420.203125 75.43359375 382.203125 37.43359375 c 128,-1,17
 344.203125 -0.56640625 344.203125 -0.56640625 289.703125 -1.06640625 c 0,18,19
 234.203125 -0.56640625 234.203125 -0.56640625 196.203125 37.43359375 c 128,-1,10
 158.203125 75.43359375 158.203125 75.43359375 158.203125 129.43359375 c 128,-1,11
EndSplineSet
EndChar

StartChar: afii57388
Encoding: 1548 1548 5
Width: 627
VWidth: 2398
GlyphClass: 2
Flags: W
LayerCount: 2
Fore
SplineSet
322.662109375 -1.06640625 m 4,0,1
 193 -1 193 -1 166.620117188 119.826171875 c 4,2,3
 154 177 154 177 176.984375 276.125976562 c 4,4,5
 218 456 218 456 410.700195312 641.693359375 c 5,6,-1
 475.494140625 594.291992188 l 5,7,8
 314 425 314 425 302.362304688 273.772460938 c 5,9,10
 461 276 461 276 462.09765625 129.543945312 c 4,11,12
 463 -1 463 -1 322.662109375 -1.06640625 c 4,0,1
EndSplineSet
EndChar

StartChar: uni0615
Encoding: 1557 1557 6
Width: 11
VWidth: 2553
GlyphClass: 4
Flags: W
AnchorPoint: "Anchor-10" 648 1490.29 mark 0
AnchorPoint: "Anchor-9" 648 1490.29 mark 0
AnchorPoint: "Anchor-1" 648 2306.6 basemark 0
AnchorPoint: "Anchor-1" 648 1490.29 mark 0
LayerCount: 2
Fore
SplineSet
791 1869.37722657 m 0,0,1
 716.466917586 1875.04050543 716.466917586 1875.04050543 570 1728 c 6,2,-1
 530.350585938 1688.1953125 l 1,3,-1
 653.0234375 1688.1953125 l 2,4,5
 843 1688 843 1688 849 1778 c 0,6,7
 855 1864 855 1864 791 1869.37722657 c 0,0,1
930.134765625 1836.81933594 m 0,8,9
 951.033502215 1612.640625 951.033502215 1612.640625 631.908203125 1612.640625 c 2,10,-1
 347.12109375 1612.640625 l 1,11,-1
 347.12109375 1688.1953125 l 1,12,-1
 448.844726562 1688.1953125 l 1,13,-1
 448.844726562 2189.28320312 l 1,14,-1
 525.655273438 2189.28320312 l 1,15,-1
 526 1784 l 1,16,-1
 560.297851562 1819.453125 l 2,17,18
 690 1954 690 1954 784 1954.69824219 c 0,19,20
 919 1956 919 1956 930.134765625 1836.81933594 c 0,8,9
EndSplineSet
EndChar

StartChar: uni061B
Encoding: 1563 1563 7
Width: 627
VWidth: 2398
GlyphClass: 2
Flags: W
LayerCount: 2
Fore
SplineSet
322.744140625 442.862304688 m 4,0,1
 193.08203125 442.928710938 193.08203125 442.928710938 166.702148438 563.754882812 c 4,2,3
 154.08203125 620.928710938 154.08203125 620.928710938 177.06640625 720.0546875 c 4,4,5
 218.08203125 899.928710938 218.08203125 899.928710938 410.782226562 1085.62207031 c 5,6,-1
 475.576171875 1038.22070312 l 5,7,8
 314.08203125 868.928710938 314.08203125 868.928710938 302.444335938 717.701171875 c 5,9,10
 461.08203125 719.928710938 461.08203125 719.928710938 462.1796875 573.47265625 c 4,11,12
 463.08203125 442.928710938 463.08203125 442.928710938 322.744140625 442.862304688 c 4,0,1
184.907226562 129.43359375 m 128,-1,14
 184.907226562 183.43359375 184.907226562 183.43359375 222.907226562 221.43359375 c 128,-1,15
 260.907226562 259.43359375 260.907226562 259.43359375 315.407226562 259.93359375 c 0,16,17
 370.907226562 259.43359375 370.907226562 259.43359375 408.907226562 221.43359375 c 128,-1,18
 446.907226562 183.43359375 446.907226562 183.43359375 446.907226562 129.43359375 c 128,-1,19
 446.907226562 75.43359375 446.907226562 75.43359375 408.907226562 37.43359375 c 128,-1,20
 370.907226562 -0.56640625 370.907226562 -0.56640625 316.407226562 -1.06640625 c 0,21,22
 260.907226562 -0.56640625 260.907226562 -0.56640625 222.907226562 37.43359375 c 128,-1,13
 184.907226562 75.43359375 184.907226562 75.43359375 184.907226562 129.43359375 c 128,-1,14
EndSplineSet
EndChar

StartChar: uni061F
Encoding: 1567 1567 8
Width: 1041
VWidth: 2398
GlyphClass: 2
Flags: W
LayerCount: 2
Fore
SplineSet
445.284179688 129.43359375 m 128,-1,1
 445.284179688 183.43359375 445.284179688 183.43359375 483.284179688 221.43359375 c 128,-1,2
 521.284179688 259.43359375 521.284179688 259.43359375 575.784179688 259.93359375 c 0,3,4
 631.284179688 259.43359375 631.284179688 259.43359375 669.284179688 221.43359375 c 128,-1,5
 707.284179688 183.43359375 707.284179688 183.43359375 707.284179688 129.43359375 c 128,-1,6
 707.284179688 75.43359375 707.284179688 75.43359375 669.284179688 37.43359375 c 128,-1,7
 631.284179688 -0.56640625 631.284179688 -0.56640625 576.784179688 -1.06640625 c 0,8,9
 521.284179688 -0.56640625 521.284179688 -0.56640625 483.284179688 37.43359375 c 128,-1,0
 445.284179688 75.43359375 445.284179688 75.43359375 445.284179688 129.43359375 c 128,-1,1
478.524414062 431.693359375 m 1,10,11
 477 567 477 567 342 650 c 0,12,13
 110 793 110 793 114 1010 c 0,14,15
 117 1179 117 1179 239.84765625 1286.24511719 c 0,16,17
 347 1380 347 1380 519 1380.4453125 c 0,18,19
 818 1381 818 1381 923 1083.94335938 c 1,20,-1
 782 1016 l 1,21,22
 691 1188 691 1188 524 1186.69824219 c 4,23,24
 387 1186 387 1186 333 1092 c 0,25,26
 306 1045 306 1045 309 992 c 0,27,28
 317 866 317 866 438 786 c 0,29,30
 673 630 673 630 679.544921875 431.693359375 c 1,31,-1
 478.524414062 431.693359375 l 1,10,11
EndSplineSet
EndChar

StartChar: uni0621
Encoding: 1569 1569 9
Width: 807
VWidth: 2553
GlyphClass: 2
Flags: W
AnchorPoint: "Anchor-7" 470.143 -66.166 basechar 0
AnchorPoint: "Anchor-10" 322.188 1091.55 basechar 0
LayerCount: 2
Fore
SplineSet
444.823242188 670.458007812 m 0,0,1
 355 670 355 670 301 620 c 4,2,3
 257 578 257 578 257.30078125 506 c 0,4,5
 257 373 257 373 425.74609375 330.51171875 c 0,6,7
 459 322 459 322 497.721679688 322.09765625 c 0,8,9
 572 322 572 322 668.30078125 372.385742188 c 1,10,-1
 715.30078125 214 l 1,11,-1
 167 4 l 1,12,-1
 105.973632812 147.525390625 l 1,13,-1
 319.138671875 222.68359375 l 1,14,15
 91 282 91 282 91.69921875 515.701171875 c 0,16,17
 92 690 92 690 231.30078125 776 c 0,18,19
 316 829 316 829 436.303710938 829.607421875 c 0,20,21
 526 830 526 830 597.30078125 795.682617188 c 1,22,-1
 597.30078125 644 l 1,23,24
 522 670 522 670 444.823242188 670.458007812 c 0,0,1
EndSplineSet
EndChar

StartChar: uni0627
Encoding: 1575 1575 15
Width: 481
VWidth: 2553
GlyphClass: 2
Flags: W
AnchorPoint: "Anchor-10" 239.338 1495.41 basechar 0
AnchorPoint: "Anchor-7" 243.805 -254.859 basechar 0
LayerCount: 2
Fore
SplineSet
162.299804688 1367.72753906 m 1,0,-1
 332.393554688 1367.72753906 l 1,1,-1
 332.393554688 0.6943359375 l 1,2,-1
 162.299804688 0.6943359375 l 1,3,-1
 162.299804688 1367.72753906 l 1,0,-1
EndSplineSet
Substitution2: "'fina' Terminal Forms in Arabic lookup 9 subtable" uniFE8E
EndChar

StartChar: uni062D
Encoding: 1581 1581 21
Width: 1319
VWidth: 2553
GlyphClass: 2
Flags: W
AnchorPoint: "Anchor-7" 471.334 -833.653 basechar 0
AnchorPoint: "Anchor-10" 552.649 1171.29 basechar 0
LayerCount: 2
Fore
SplineSet
1078 305.45703125 m 1,0,1
 277 185 277 185 275.6875 -177.775390625 c 0,2,3
 273.997506424 -515.49830822 273.997506424 -515.49830822 804.475585938 -515.172851562 c 2,4,-1
 1218.33007812 -514.918945312 l 1,5,-1
 1218.33007812 -695.474609375 l 1,6,-1
 792.448242188 -694.58203125 l 2,7,8
 402 -694 402 -694 241.0546875 -539.833984375 c 0,9,10
 97 -401 97 -401 100.109375 -183.653320312 c 0,11,12
 106 344 106 344 977.4375 454.530273438 c 1,13,14
 976.994427792 475.260712174 976.994427792 475.260712174 942.010742188 491.46875 c 2,15,-1
 724.010742188 592.46875 l 2,16,17
 641 631 641 631 568.987304688 631.418945312 c 0,18,19
 490.523246148 630.997438894 490.523246148 630.997438894 429.010742188 584.46875 c 2,20,-1
 273.010742188 466.46875 l 1,21,-1
 155.3828125 598.612304688 l 1,22,-1
 301.010742188 713.46875 l 2,23,24
 432 817 432 817 560.834960938 817.236328125 c 0,25,26
 652.1858964 816.999518099 652.1858964 816.999518099 761.010742188 765.46875 c 2,27,-1
 1082.01074219 613.46875 l 2,28,29
 1215 550 1215 550 1215.26367188 466.450195312 c 0,30,-1
 1215.18945312 324.193359375 l 1,31,32
 1136 317 1136 317 1078 305.45703125 c 1,0,1
EndSplineSet
Substitution2: "'fina' Terminal Forms in Arabic lookup 9 subtable" uniFEA2
Substitution2: "'medi' Medial Forms in Arabic lookup 11 subtable" uniFEA4
Substitution2: "'init' Initial Forms in Arabic lookup 13 subtable" uniFEA3
EndChar

StartChar: uni062F
Encoding: 1583 1583 23
Width: 1011
VWidth: 2553
GlyphClass: 2
Flags: W
AnchorPoint: "Anchor-10" 403.659 1300.16 basechar 0
AnchorPoint: "Anchor-7" 428.382 -242.53 basechar 0
LayerCount: 2
Fore
SplineSet
467.978515625 0 m 2,0,-1
 101.899414062 0 l 1,1,-1
 101.899414062 184 l 1,2,-1
 468.911132812 184 l 2,3,4
 736 184 736 184 729.723632812 309 c 0,5,6
 726.01171875 380.764648438 726.01171875 380.764648438 628 494 c 2,7,-1
 353.180664062 811.50390625 l 1,8,-1
 476.696289062 949.658203125 l 1,9,-1
 777 600 l 2,10,11
 911 444 911 444 910.288085938 297 c 0,12,13
 909 0 909 0 467.978515625 0 c 2,0,-1
EndSplineSet
Substitution2: "'fina' Terminal Forms in Arabic lookup 9 subtable" uniFEAA
EndChar

StartChar: uni0631
Encoding: 1585 1585 25
Width: 749
VWidth: 2553
GlyphClass: 2
Flags: W
AnchorPoint: "Anchor-7" 297.433 -667.366 basechar 0
AnchorPoint: "Anchor-10" 450.527 955.269 basechar 0
LayerCount: 2
Fore
SplineSet
124.200195312 -270.440429688 m 6,0,1
 480.382272175 -270.685363973 480.382272175 -270.685363973 480.3828125 42.53125 c 6,2,-1
 480.383789062 608.626953125 l 1,3,-1
 662.180664062 609.684570312 l 1,4,-1
 662.180664062 45.0263671875 l 6,5,6
 661.999853877 -448.398765516 661.999853877 -448.398765516 126.435546875 -451.412109375 c 6,7,-1
 21.94921875 -452 l 5,8,-1
 21.9521484375 -270.370117188 l 5,9,-1
 124.200195312 -270.440429688 l 6,0,1
EndSplineSet
PairPos2: "'kern' Horizontal Kerning lookup 15-1" uniFEFB dx=-100 dy=0 dh=-100 dv=0 dx=0 dy=0 dh=0 dv=0
PairPos2: "'kern' Horizontal Kerning lookup 15-1" uniFEDF dx=-100 dy=0 dh=-100 dv=0 dx=0 dy=0 dh=0 dv=0
PairPos2: "'kern' Horizontal Kerning lookup 15-1" uni062F dx=-100 dy=0 dh=-100 dv=0 dx=0 dy=0 dh=0 dv=0
PairPos2: "'kern' Horizontal Kerning lookup 15-2" uniFB90 dx=-142 dy=0 dh=-142 dv=0 dx=0 dy=0 dh=0 dv=0
PairPos2: "'kern' Horizontal Kerning lookup 15-2" uniFB8E dx=-142 dy=0 dh=-142 dv=0 dx=0 dy=0 dh=0 dv=0
PairPos2: "'kern' Horizontal Kerning lookup 15-2" uni06A9 dx=-142 dy=0 dh=-142 dv=0 dx=0 dy=0 dh=0 dv=0
PairPos2: "'kern' Horizontal Kerning lookup 15-2" uniFEEB dx=-100 dy=0 dh=-100 dv=0 dx=0 dy=0 dh=0 dv=0
PairPos2: "'kern' Horizontal Kerning lookup 15-2" uni0647 dx=-100 dy=0 dh=-100 dv=0 dx=0 dy=0 dh=0 dv=0
PairPos2: "'kern' Horizontal Kerning lookup 15-2" uniFEE7 dx=-100 dy=0 dh=-100 dv=0 dx=0 dy=0 dh=0 dv=0
PairPos2: "'kern' Horizontal Kerning lookup 15-2" uniFEE3 dx=-100 dy=0 dh=-100 dv=0 dx=0 dy=0 dh=0 dv=0
PairPos2: "'kern' Horizontal Kerning lookup 15-2" uni0645 dx=-100 dy=0 dh=-100 dv=0 dx=0 dy=0 dh=0 dv=0
PairPos2: "'kern' Horizontal Kerning lookup 15-2" uniFEDB dx=-100 dy=0 dh=-100 dv=0 dx=0 dy=0 dh=0 dv=0
PairPos2: "'kern' Horizontal Kerning lookup 15-2" uni0643 dx=-100 dy=0 dh=-100 dv=0 dx=0 dy=0 dh=0 dv=0
PairPos2: "'kern' Horizontal Kerning lookup 15-2" uniFED7 dx=-100 dy=0 dh=-100 dv=0 dx=0 dy=0 dh=0 dv=0
PairPos2: "'kern' Horizontal Kerning lookup 15-2" uniFED3 dx=-100 dy=0 dh=-100 dv=0 dx=0 dy=0 dh=0 dv=0
PairPos2: "'kern' Horizontal Kerning lookup 15-2" uni0641 dx=-100 dy=0 dh=-100 dv=0 dx=0 dy=0 dh=0 dv=0
PairPos2: "'kern' Horizontal Kerning lookup 15-2" uniFECF dx=-100 dy=0 dh=-100 dv=0 dx=0 dy=0 dh=0 dv=0
PairPos2: "'kern' Horizontal Kerning lookup 15-2" uniFECB dx=-100 dy=0 dh=-100 dv=0 dx=0 dy=0 dh=0 dv=0
PairPos2: "'kern' Horizontal Kerning lookup 15-2" uniFEC7 dx=-100 dy=0 dh=-100 dv=0 dx=0 dy=0 dh=0 dv=0
PairPos2: "'kern' Horizontal Kerning lookup 15-2" uni0638 dx=-100 dy=0 dh=-100 dv=0 dx=0 dy=0 dh=0 dv=0
PairPos2: "'kern' Horizontal Kerning lookup 15-2" uniFEC3 dx=-100 dy=0 dh=-100 dv=0 dx=0 dy=0 dh=0 dv=0
PairPos2: "'kern' Horizontal Kerning lookup 15-2" uni0637 dx=-100 dy=0 dh=-100 dv=0 dx=0 dy=0 dh=0 dv=0
PairPos2: "'kern' Horizontal Kerning lookup 15-2" uniFEBF dx=-100 dy=0 dh=-100 dv=0 dx=0 dy=0 dh=0 dv=0
PairPos2: "'kern' Horizontal Kerning lookup 15-2" uni0636 dx=-100 dy=0 dh=-100 dv=0 dx=0 dy=0 dh=0 dv=0
PairPos2: "'kern' Horizontal Kerning lookup 15-2" uniFEBB dx=-100 dy=0 dh=-100 dv=0 dx=0 dy=0 dh=0 dv=0
PairPos2: "'kern' Horizontal Kerning lookup 15-2" uni0635 dx=-100 dy=0 dh=-100 dv=0 dx=0 dy=0 dh=0 dv=0
PairPos2: "'kern' Horizontal Kerning lookup 15-2" uniFEB7 dx=-100 dy=0 dh=-100 dv=0 dx=0 dy=0 dh=0 dv=0
PairPos2: "'kern' Horizontal Kerning lookup 15-2" uni0634 dx=-100 dy=0 dh=-100 dv=0 dx=0 dy=0 dh=0 dv=0
PairPos2: "'kern' Horizontal Kerning lookup 15-2" uniFEB3 dx=-100 dy=0 dh=-100 dv=0 dx=0 dy=0 dh=0 dv=0
PairPos2: "'kern' Horizontal Kerning lookup 15-2" uni0633 dx=-100 dy=0 dh=-100 dv=0 dx=0 dy=0 dh=0 dv=0
PairPos2: "'kern' Horizontal Kerning lookup 15-2" uniFEA7 dx=-100 dy=0 dh=-100 dv=0 dx=0 dy=0 dh=0 dv=0
PairPos2: "'kern' Horizontal Kerning lookup 15-2" uniFEA3 dx=-100 dy=0 dh=-100 dv=0 dx=0 dy=0 dh=0 dv=0
PairPos2: "'kern' Horizontal Kerning lookup 15-2" uniFE9F dx=-100 dy=0 dh=-100 dv=0 dx=0 dy=0 dh=0 dv=0
PairPos2: "'kern' Horizontal Kerning lookup 15-2" uniFE9B dx=-100 dy=0 dh=-100 dv=0 dx=0 dy=0 dh=0 dv=0
PairPos2: "'kern' Horizontal Kerning lookup 15-2" uni062B dx=-100 dy=0 dh=-100 dv=0 dx=0 dy=0 dh=0 dv=0
PairPos2: "'kern' Horizontal Kerning lookup 15-2" uniFE97 dx=-100 dy=0 dh=-100 dv=0 dx=0 dy=0 dh=0 dv=0
PairPos2: "'kern' Horizontal Kerning lookup 15-2" uni062A dx=-100 dy=0 dh=-100 dv=0 dx=0 dy=0 dh=0 dv=0
PairPos2: "'kern' Horizontal Kerning lookup 15-2" uni0629 dx=-100 dy=0 dh=-100 dv=0 dx=0 dy=0 dh=0 dv=0
PairPos2: "'kern' Horizontal Kerning lookup 15-2" uniFE91 dx=-47 dy=0 dh=-47 dv=0 dx=0 dy=0 dh=0 dv=0
PairPos2: "'kern' Horizontal Kerning lookup 15-2" uni0628 dx=-100 dy=0 dh=-100 dv=0 dx=0 dy=0 dh=0 dv=0
PairPos2: "'kern' Horizontal Kerning lookup 15-2" uni0627 dx=-100 dy=0 dh=-100 dv=0 dx=0 dy=0 dh=0 dv=0
PairPos2: "'kern' Horizontal Kerning lookup 15-2" uni0622 dx=-100 dy=0 dh=-100 dv=0 dx=0 dy=0 dh=0 dv=0
PairPos2: "'kern' Horizontal Kerning lookup 15-2" uni0621 dx=-100 dy=0 dh=-100 dv=0 dx=0 dy=0 dh=0 dv=0
PairPos2: "'kern' Horizontal Kerning lookup 15-2" uniFB94 dx=-142 dy=0 dh=-142 dv=0 dx=0 dy=0 dh=0 dv=0
PairPos2: "'kern' Horizontal Kerning lookup 15-2" uniFB92 dx=-142 dy=0 dh=-142 dv=0 dx=0 dy=0 dh=0 dv=0
PairPos2: "'kern' Horizontal Kerning lookup 15-2" afii57509 dx=-142 dy=0 dh=-142 dv=0 dx=0 dy=0 dh=0 dv=0
PairPos2: "'kern' Horizontal Kerning lookup 15-2" uniFB7C dx=-100 dy=0 dh=-100 dv=0 dx=0 dy=0 dh=0 dv=0
PairPos2: "'kern' Horizontal Kerning lookup 15-2" afii57506 dx=-100 dy=0 dh=-100 dv=0 dx=0 dy=0 dh=0 dv=0
PairPos2: "'kern' Horizontal Kerning lookup 15-2" afii57440 dx=-94 dy=0 dh=-94 dv=0 dx=0 dy=0 dh=0 dv=0
Substitution2: "'fina' Terminal Forms in Arabic lookup 9 subtable" uniFEAE
EndChar

StartChar: uni0633
Encoding: 1587 1587 27
Width: 2484
VWidth: 2553
GlyphClass: 2
Flags: W
AnchorPoint: "Anchor-7" 691 -665.5 basechar 0
AnchorPoint: "Anchor-10" 1778.4 1065.57 basechar 0
LayerCount: 2
Fore
SplineSet
1533.36230469 -1.06640625 m 0,0,1
 1388 -0 1388 -0 1329.57128906 82.068359375 c 1,2,-1
 1329.57128906 53.86328125 l 2,3,4
 1329.99994942 -450.940429688 1329.99994942 -450.940429688 748.819335938 -450.940429688 c 2,5,-1
 694.1015625 -450.940429688 l 2,6,7
 101.316934928 -450.999968167 101.316934928 -450.999968167 101.12109375 103.276367188 c 2,8,-1
 101 446 l 1,9,-1
 281.877929688 446.033203125 l 1,10,-1
 281.877929688 104.44921875 l 2,11,12
 281.999881257 -265.639648438 281.999881257 -265.639648438 696.272460938 -265.639648438 c 2,13,-1
 747.385742188 -265.639648438 l 2,14,15
 1162.34551577 -266.000300296 1162.34551577 -266.000300296 1162.16210938 48.5576171875 c 2,16,-1
 1161.81445312 644.818359375 l 1,17,-1
 1342.26757812 644.911132812 l 1,18,-1
 1342.26757812 399.294921875 l 2,19,20
 1342 184 1342 184 1532.98144531 182.93359375 c 4,21,22
 1696.05602074 181.999679174 1696.05602074 181.999679174 1696.61328125 383.674804688 c 2,23,-1
 1697.33984375 646.62109375 l 1,24,-1
 1884.45703125 646.62109375 l 1,25,-1
 1885.80957031 385.619140625 l 2,26,27
 1887 184 1887 184 2055.45898438 182.93359375 c 0,28,29
 2204.94824219 182.000323127 2204.94824219 182.000323127 2204.94824219 371.92578125 c 2,30,-1
 2204.94824219 689.295898438 l 1,31,-1
 2383.70605469 689.295898438 l 1,32,-1
 2383.70605469 363.962890625 l 2,33,34
 2384 -1 2384 -1 2056.42285156 -1.06640625 c 0,35,36
 1855 -1 1855 -1 1798.88964844 149.110351562 c 1,37,38
 1749 -3 1749 -3 1533.36230469 -1.06640625 c 0,0,1
EndSplineSet
Substitution2: "'fina' Terminal Forms in Arabic lookup 9 subtable" uniFEB2
Substitution2: "'medi' Medial Forms in Arabic lookup 11 subtable" uniFEB4
Substitution2: "'init' Initial Forms in Arabic lookup 13 subtable" uniFEB3
EndChar

StartChar: uni0635
Encoding: 1589 1589 29
Width: 2515
VWidth: 2553
GlyphClass: 2
Flags: W
AnchorPoint: "Anchor-10" 2006.4 1269.57 basechar 0
AnchorPoint: "Anchor-7" 691 -665.5 basechar 0
LayerCount: 2
Fore
SplineSet
1342.26757812 419.294921875 m 2,0,1
 1342.26757812 235.928710938 1342.26757812 235.928710938 1438 211 c 1,2,3
 1669 779 1669 779 2017.5 779 c 0,4,5
 2224 779 2224 779 2331 636.907226562 c 0,6,7
 2414 528 2414 528 2414.5625 359.46875 c 0,8,9
 2416 191 2416 191 2280 86.873046875 c 0,10,11
 2166 0 2166 0 1961.26464844 0 c 2,12,-1
 1621.32421875 0 l 2,13,14
 1385 0 1385 0 1329.57128906 82.068359375 c 1,15,-1
 1329.57128906 53.86328125 l 2,16,17
 1329.57128906 -451 1329.57128906 -451 748.819335938 -450.940429688 c 2,18,-1
 694.1015625 -450.940429688 l 2,19,20
 101 -450.940429688 101 -450.940429688 101.12109375 103.276367188 c 2,21,-1
 101 446 l 1,22,-1
 281.877929688 446.033203125 l 1,23,-1
 281.877929688 104.44921875 l 2,24,25
 281.877929688 -266 281.877929688 -266 696.272460938 -265.639648438 c 2,26,-1
 747.385742188 -265.639648438 l 2,27,28
 1162 -265.639648438 1162 -265.639648438 1162.16210938 48.5576171875 c 2,29,-1
 1161.81445312 644.818359375 l 1,30,-1
 1342.26757812 644.911132812 l 1,31,-1
 1342.26757812 419.294921875 l 2,0,1
2224.57617188 423.748046875 m 0,32,33
 2185 592 2185 592 2007.12109375 592.013671875 c 0,34,35
 1807 592 1807 592 1623.00390625 184.52734375 c 5,36,-1
 1981.26074219 184.52734375 l 6,37,38
 2128.34196167 185.007647841 2128.34196167 185.007647841 2187 237 c 0,39,40
 2231 276 2231 276 2231 349 c 0,41,42
 2231 394 2231 394 2224.57617188 423.748046875 c 0,32,33
EndSplineSet
Substitution2: "'fina' Terminal Forms in Arabic lookup 9 subtable" uniFEBA
Substitution2: "'medi' Medial Forms in Arabic lookup 11 subtable" uniFEBC
Substitution2: "'init' Initial Forms in Arabic lookup 13 subtable" uniFEBB
EndChar

StartChar: uni0637
Encoding: 1591 1591 31
Width: 1339
VWidth: 2553
GlyphClass: 2
Flags: W
AnchorPoint: "Anchor-7" 579.72 -236 basechar 0
AnchorPoint: "Anchor-10" 441.723 1526.59 basechar 0
LayerCount: 2
Fore
SplineSet
784.940429688 0 m 2,0,-1
 101.770507812 0 l 1,1,-1
 101.770507812 184.200195312 l 1,2,-1
 253 184 l 1,3,4
 266 223 266 223 360.905273438 402.119140625 c 1,5,-1
 360.905273438 1368.64355469 l 1,6,-1
 531 1368.64355469 l 1,7,-1
 531 632.859375 l 1,8,9
 679 779 679 779 842.17578125 779 c 0,10,11
 1046 779 1046 779 1154.67578125 636.907226562 c 0,12,13
 1237 530 1237 530 1238.23828125 359.46875 c 0,14,15
 1240 191 1240 191 1103.67578125 86.873046875 c 0,16,17
 990 0 990 0 784.940429688 0 c 2,0,-1
830.796875 592.013671875 m 0,18,19
 630 592 630 592 446.6796875 184.52734375 c 5,20,-1
 804.936523438 184.52734375 l 6,21,22
 951 185 951 185 1010.67578125 237 c 0,23,24
 1055 276 1055 276 1054.67578125 349 c 0,25,26
 1055 394 1055 394 1048.25195312 423.748046875 c 0,27,28
 1009 592 1009 592 830.796875 592.013671875 c 0,18,19
EndSplineSet
Substitution2: "'fina' Terminal Forms in Arabic lookup 9 subtable" uniFEC2
Substitution2: "'medi' Medial Forms in Arabic lookup 11 subtable" uniFEC4
Substitution2: "'init' Initial Forms in Arabic lookup 13 subtable" uniFEC3
EndChar

StartChar: uni0639
Encoding: 1593 1593 33
Width: 1249
VWidth: 2553
GlyphClass: 2
Flags: W
AnchorPoint: "Anchor-7" 471.334 -833.653 basechar 0
AnchorPoint: "Anchor-10" 711.349 1353.99 basechar 0
LayerCount: 2
Fore
SplineSet
100.109375 -175.653320312 m 24,0,1
 105 159 105 159 497.36328125 315.701171875 c 1,2,3
 356 439 356 439 356.03125 604.908203125 c 0,4,5
 357 768 357 768 475.625 889.32421875 c 0,6,7
 586 1002 586 1002 762.985351562 1001.86621094 c 0,8,9
 950 1002 950 1002 1071.67871094 850.701171875 c 1,10,-1
 997.360351562 714.595703125 l 1,11,12
 896 814 896 814 767.297851562 813.451171875 c 0,13,14
 648 813 648 813 582.974609375 726.137695312 c 0,15,16
 544 674 544 674 543.263671875 605.73046875 c 0,17,18
 543 503 543 503 647.491210938 415.842773438 c 0,19,20
 687 383 687 383 751.159179688 390.096679688 c 0,21,22
 964 413 964 413 1110.67871094 421.092773438 c 1,23,-1
 1110.67871094 236.701171875 l 1,24,25
 279 233 279 233 275.6875 -177.775390625 c 0,26,27
 274.002172538 -515.564559444 274.002172538 -515.564559444 804.475585938 -515.172851562 c 2,28,-1
 1148.33007812 -514.918945312 l 1,29,-1
 1148.33007812 -695.474609375 l 1,30,-1
 792.448242188 -694.58203125 l 2,31,32
 402 -694 402 -694 241.0546875 -539.833984375 c 0,33,34
 97 -401 97 -401 100.109375 -175.653320312 c 24,0,1
EndSplineSet
Substitution2: "'fina' Terminal Forms in Arabic lookup 9 subtable" uniFECA
Substitution2: "'medi' Medial Forms in Arabic lookup 11 subtable" uniFECC
Substitution2: "'init' Initial Forms in Arabic lookup 13 subtable" uniFECB
EndChar

StartChar: afii57440
Encoding: 1600 1600 35
Width: 250
VWidth: 2553
GlyphClass: 2
Flags: W
AnchorPoint: "Anchor-10" 125.758 1503.26 basechar 0
AnchorPoint: "Anchor-7" 129.758 -170.351 basechar 0
LayerCount: 2
Fore
SplineSet
254.9765625 184 m 6,0,1
 279.9765625 184 279.9765625 184 279.9765625 99 c 2,2,-1
 279.9765625 88 l 2,3,4
 280 0 280 0 254.9765625 0 c 2,5,-1
 -5.0234375 0 l 2,6,7
 -80.0234375 0 -80.0234375 0 -80.0234375 88 c 2,8,-1
 -80.0234375 99 l 2,9,10
 -80 184 -80 184 -5.0234375 184 c 6,11,-1
 254.9765625 184 l 6,0,1
EndSplineSet
EndChar

StartChar: uni0643
Encoding: 1603 1603 38
Width: 1889
VWidth: 2553
GlyphClass: 2
Flags: W
AnchorPoint: "Anchor-7" 849.692 -230.794 basechar 0
AnchorPoint: "Anchor-10" 927.382 1479.15 basechar 0
LayerCount: 2
Fore
SplineSet
703.514648438 743.643554688 m 2,0,1
 768.202148438 735.491210938 768.202148438 735.491210938 832.82421875 735.491210938 c 128,-1,2
 897.4453125 735.491210938 897.4453125 735.491210938 953.028320312 757.094726562 c 0,3,4
 1037.05957031 789.754882812 1037.05957031 789.754882812 1037.05957031 841.939453125 c 128,-1,5
 1037.05957031 894.123046875 1037.05957031 894.123046875 946.17578125 908.501953125 c 128,-1,6
 855.29296875 922.880859375 855.29296875 922.880859375 819.223632812 970.057617188 c 0,7,8
 764.521484375 1041.6015625 764.521484375 1041.6015625 788.9921875 1118.515625 c 0,9,10
 836.159179688 1266.76855469 836.159179688 1266.76855469 1100.4453125 1286.41015625 c 2,11,-1
 1129.71484375 1288.58496094 l 1,12,-1
 1129.71484375 1188.15820312 l 1,13,-1
 1104.67480469 1186.12109375 l 2,14,15
 888.592773438 1168.54476636 888.592773438 1168.54476636 888.592773438 1073.37695312 c 0,16,17
 888.592773438 1024.77539062 888.592773438 1024.77539062 942.532226562 1007.42089844 c 0,18,19
 970.375 998.463867188 970.375 998.463867188 1021.78027344 990.90234375 c 128,-1,20
 1073.18457031 983.341796875 1073.18457031 983.341796875 1106.89746094 950.685546875 c 128,-1,21
 1140.609375 918.029296875 1140.609375 918.029296875 1140.609375 860.932617188 c 128,-1,22
 1140.609375 803.8359375 1140.609375 803.8359375 1117.30957031 766.818359375 c 0,23,24
 1004.61328125 587.772460938 1004.61328125 587.772460938 695.8984375 636.025390625 c 2,25,-1
 672.857421875 639.627929688 l 1,26,-1
 672.857421875 747.506835938 l 1,27,-1
 703.514648438 743.643554688 l 2,0,1
537.549804688 184 m 2,28,29
 1351.84667969 184 l 2,30,31
 1577 184 1577 184 1577.41601562 450.396484375 c 2,32,-1
 1577.41601562 1367.18847656 l 1,33,-1
 1748.17382812 1367.18847656 l 1,34,-1
 1748.17382812 447.391601562 l 2,35,36
 1748.17382813 -0.000275425824611 1748.17382813 -0.000275425824611 1346.62988281 0 c 2,37,-1
 534.767578125 0 l 2,38,39
 100 0 100 0 100.227539062 443.977539062 c 2,40,-1
 100.2265625 656.66015625 l 1,41,-1
 278.984375 656.66015625 l 1,42,-1
 278.984375 444.541015625 l 2,43,44
 278.984375 184 278.984375 184 537.549804688 184 c 2,28,29
EndSplineSet
Substitution2: "'fina' Terminal Forms in Arabic lookup 9 subtable" uniFEDA
Substitution2: "'medi' Medial Forms in Arabic lookup 11 subtable" uniFEDC
Substitution2: "'init' Initial Forms in Arabic lookup 13 subtable" uniFEDB
EndChar

StartChar: uni0644
Encoding: 1604 1604 39
Width: 1397
VWidth: 2553
GlyphClass: 2
Flags: W
AnchorPoint: "Anchor-10" 604.754 1191.62 basechar 0
AnchorPoint: "Anchor-7" 691 -665.5 basechar 0
LayerCount: 2
Fore
SplineSet
279.877929688 104.44921875 m 2,0,1
 279.877929688 -261.513784828 279.877929688 -261.513784828 674.356445312 -261.528320312 c 2,2,-1
 727.362304688 -261.530273438 l 2,3,4
 1087.36202175 -262.00047283 1087.36202175 -262.00047283 1087.36523438 88.416015625 c 2,5,-1
 1087.37695312 1366.63671875 l 1,6,-1
 1256.29882812 1366.63671875 l 1,7,-1
 1255.25488281 83.9853515625 l 2,8,9
 1255.00008157 -446.830078125 1255.00008157 -446.830078125 720.430664062 -446.830078125 c 2,10,-1
 674.186523438 -446.830078125 l 2,11,12
 101.315521595 -446.999906463 101.315521595 -446.999906463 101.12109375 103.276367188 c 2,13,-1
 101 446 l 1,14,-1
 279.877929688 446.033203125 l 1,15,-1
 279.877929688 104.44921875 l 2,0,1
EndSplineSet
Substitution2: "'fina' Terminal Forms in Arabic lookup 9 subtable" uniFEDE
Substitution2: "'medi' Medial Forms in Arabic lookup 11 subtable" uniFEE0
Substitution2: "'init' Initial Forms in Arabic lookup 13 subtable" uniFEDF
EndChar

StartChar: uni0645
Encoding: 1605 1605 40
Width: 1310
VWidth: 2553
GlyphClass: 2
Flags: W
AnchorPoint: "Anchor-10" 675.565 1150.03 basechar 0
AnchorPoint: "Anchor-7" 722.389 -323.648 basechar 0
LayerCount: 2
Fore
SplineSet
842.837890625 569.490234375 m 2,0,1
 685.830078125 569.490234375 l 1,2,3
 685.830078125 370.116210938 l 2,4,5
 686 143 686 143 868.740234375 142.890625 c 0,6,7
 1033.09082031 143 1033.09082031 143 1033.08984375 370 c 2,8,9
 1033.08984375 411.822265625 l 2,10,11
 1033 569 1033 569 842.837890625 569.490234375 c 2,0,1
858.190429688 744.5390625 m 2,12,13
 1209.76953125 744.556640625 1209.76953125 744.556640625 1209.76953125 413 c 2,14,15
 1209.76953125 369.005859375 l 2,16,17
 1210 -21 1210 -21 868.740234375 -20.4755859375 c 0,18,19
 508.888671875 -20 508.888671875 -20 508.889648438 368.30859375 c 2,20,-1
 508.889648438 553.943359375 l 1,21,22
 275.010742188 531.000976562 275.010742188 531.000976562 275.010742188 161.032226562 c 2,23,-1
 275.010742188 -496.416992188 l 1,24,-1
 100.94921875 -496.416992188 l 1,25,-1
 100.94921875 153.58984375 l 1,26,-1
 100.954101562 159.58984375 l 0,27,28
 100.000976562 744.500976562 100.000976562 744.500976562 583.255859375 744.525390625 c 2,29,-1
 858.190429688 744.5390625 l 2,12,13
EndSplineSet
Substitution2: "'init' Initial Forms in Arabic lookup 13 subtable" uniFEE3
Substitution2: "'medi' Medial Forms in Arabic lookup 11 subtable" uniFEE4
Substitution2: "'fina' Terminal Forms in Arabic lookup 9 subtable" uniFEE2
EndChar

StartChar: uni0647
Encoding: 1607 1607 42
Width: 924
VWidth: 2330
GlyphClass: 2
Flags: W
AnchorPoint: "Anchor-10" 421.833 1141.93 basechar 0
AnchorPoint: "Anchor-7" 439.418 -196.202 basechar 0
LayerCount: 2
Fore
SplineSet
457.696289062 624.520507812 m 1,0,1
 272 468 272 468 271.731445312 341.337890625 c 0,2,3
 272 181 272 181 471.715820312 180.935546875 c 0,4,5
 657 181 657 181 657.15625 344.548828125 c 0,6,7
 657 464 657 464 457.696289062 624.520507812 c 1,0,1
100.951171875 324.149414062 m 0,8,9
 101 528 101 528 338.166015625 743.556640625 c 1,10,-1
 299.388671875 779.409179688 l 1,11,-1
 405.168945312 902.5390625 l 1,12,13
 830 599 830 599 829.499023438 339.068359375 c 4,14,15
 829 -0 829 -0 470.139648438 0.9775390625 c 0,16,17
 101 2 101 2 100.951171875 324.149414062 c 0,8,9
EndSplineSet
Substitution2: "'fina' Terminal Forms in Arabic lookup 9 subtable" uniFEEA
Substitution2: "'medi' Medial Forms in Arabic lookup 11 subtable" uniFEEC
Substitution2: "'init' Initial Forms in Arabic lookup 13 subtable" uniFEEB
EndChar

StartChar: uni0648
Encoding: 1608 1608 43
Width: 877
VWidth: 2553
GlyphClass: 2
Flags: W
AnchorPoint: "Anchor-10" 438.019 1061.88 basechar 0
AnchorPoint: "Anchor-7" 367.433 -667.366 basechar 0
LayerCount: 2
Fore
SplineSet
784.66015625 0 m 2,0,1
 784.660353525 -450.67142069 784.660353525 -450.67142069 244.75390625 -450.412109375 c 2,2,-1
 139.0234375 -450.361328125 l 1,3,-1
 138.920898438 -267.1953125 l 1,4,-1
 238.883789062 -267.265625 l 2,5,6
 610.90516931 -267.999812853 610.90516931 -267.999812853 610.900390625 -20.1533203125 c 2,7,-1
 610.9 0.1064453125 l 1,8,-1
 421.0390625 0.1064453125 l 2,9,10
 100 0 100 0 101.076171875 363.728515625 c 0,11,12
 103 728 103 728 449.5703125 728.58984375 c 0,13,14
 784.65983714 728.999584077 784.65983714 728.999584077 784.66 356.95 c 2,15,-1
 784.66015625 0 l 2,0,1
445.612304688 553.374023438 m 0,16,17
 272 553 272 553 271.859375 365.225585938 c 0,18,19
 272 185.053710938 272 185.053710938 420 185 c 2,20,-1
 611.709960938 184.930664062 l 1,21,-1
 611.258789062 351 l 2,22,23
 611 554 611 554 445.612304688 553.374023438 c 0,16,17
EndSplineSet
Substitution2: "'fina' Terminal Forms in Arabic lookup 9 subtable" uniFEEE
EndChar

StartChar: uni0649
Encoding: 1609 1609 44
Width: 1446
VWidth: 2553
GlyphClass: 2
Flags: W
AnchorPoint: "Anchor-7" 641 -665.5 basechar 0
AnchorPoint: "Anchor-10" 604 1221.43 basechar 0
LayerCount: 2
Fore
SplineSet
1120.77441406 233.370117188 m 6,0,1
 1345.12792969 233.370117188 1345.12792969 233.370117188 1345.12792969 11.36328125 c 6,2,-1
 1345.12792969 -17.9775390625 l 6,3,4
 1344.99991681 -449.280273438 1344.99991681 -449.280273438 735.421875 -449.280273438 c 6,5,-1
 690.94140625 -449.280273438 l 6,6,7
 100.627206787 -448.999822891 100.627206787 -448.999822891 100.267578125 106.033203125 c 6,8,-1
 100 519 l 5,9,-1
 279.022460938 519 l 5,10,-1
 279.022460938 107.206054688 l 6,11,12
 279.000001182 -263.98046875 279.000001182 -263.98046875 693.11328125 -263.98046875 c 6,13,-1
 744.020507812 -263.98046875 l 6,14,15
 1168.71875 -263.999987074 1168.71875 -263.999987074 1168.71875 -35.583984375 c 6,16,-1
 1168.71875 -23.8486328125 l 6,17,18
 1168.99907199 54.7398326036 1168.99907199 54.7398326036 1090.29003906 54.740234375 c 6,19,-1
 898.9765625 54.7412109375 l 6,20,21
 725.765625 55.0003506468 725.765625 55.0003506468 725.765625 221.583007812 c 6,22,-1
 725.765625 287.377929688 l 6,23,24
 725.999845894 759.689241505 725.999845894 759.689241505 1148.53320312 759.901367188 c 6,25,-1
 1345 760 l 5,26,-1
 1345.89160156 570.604492188 l 5,27,-1
 1107.28222656 570.604492188 l 6,28,29
 909.929634952 571.000141067 909.929634952 571.000141067 904.522460938 294.002929688 c 6,30,-1
 903.338867188 233.370117188 l 5,31,-1
 1120.77441406 233.370117188 l 6,0,1
EndSplineSet
Substitution2: "'fina' Terminal Forms in Arabic lookup 9 subtable" uniFEF0
Substitution2: "'medi' Medial Forms in Arabic lookup 11 subtable" uniFBE9
Substitution2: "'init' Initial Forms in Arabic lookup 13 subtable" uniFBE8
EndChar

StartChar: uni064B
Encoding: 1611 1611 46
Width: 0
VWidth: 2186
GlyphClass: 4
Flags: W
AnchorPoint: "Anchor-10" 544.872 1090.61 mark 0
AnchorPoint: "Anchor-9" 544.872 1090.61 mark 0
AnchorPoint: "Anchor-1" 544.872 1518.61 basemark 0
AnchorPoint: "Anchor-1" 544.872 1090.61 mark 0
LayerCount: 2
Fore
SplineSet
335.400390625 1051.80664062 m 5,0,-1
 335.400390625 1153.46289062 l 5,1,-1
 730.599609375 1315.06347656 l 5,2,-1
 730.599609375 1213.40722656 l 5,3,-1
 335.400390625 1051.80664062 l 5,0,-1
335.400390625 1259.00683594 m 5,4,-1
 335.400390625 1360.66308594 l 5,5,-1
 730.599609375 1522.26367188 l 5,6,-1
 730.599609375 1420.60742188 l 5,7,-1
 335.400390625 1259.00683594 l 5,4,-1
EndSplineSet
EndChar

StartChar: uni064C
Encoding: 1612 1612 47
Width: 0
VWidth: 2186
GlyphClass: 4
Flags: W
AnchorPoint: "Anchor-10" 552.791 1211.53 mark 0
AnchorPoint: "Anchor-9" 552.791 1211.53 mark 0
AnchorPoint: "Anchor-1" 546.391 1735.93 basemark 0
AnchorPoint: "Anchor-1" 552.791 1211.53 mark 0
LayerCount: 2
Fore
SplineSet
563.057617188 1326.15722656 m 0,0,1
 595.995117188 1358.20507812 595.995117188 1358.20507812 614.7578125 1395.73339844 c 2,2,-1
 620.7734375 1407.76464844 l 1,3,-1
 607.612304688 1410.55664062 l 2,4,5
 580.928710938 1416.21289062 580.928710938 1416.21289062 562.5078125 1426.62890625 c 0,6,7
 475.470703125 1472.56542969 475.470703125 1472.56542969 475.470703125 1546.75683594 c 0,8,9
 475.470703125 1616.04492188 475.470703125 1616.04492188 530.374023438 1657.42089844 c 0,10,11
 551.5703125 1673.31738281 551.5703125 1673.31738281 602.03125 1673.31738281 c 0,12,13
 660.2890625 1673.31738281 660.2890625 1673.31738281 691.47265625 1642.90917969 c 0,14,15
 735.438476562 1599.74902344 735.438476562 1599.74902344 735.438476562 1536.48535156 c 0,16,17
 735.438476562 1504.70117188 735.438476562 1504.70117188 725.650390625 1473.70117188 c 2,18,-1
 721.603515625 1460.89257812 l 1,19,-1
 735.022460938 1460.18945312 l 2,20,21
 751.080078125 1459.34082031 751.080078125 1459.34082031 763.526367188 1459.31738281 c 0,22,23
 774.24609375 1458.74121094 774.24609375 1458.74121094 785.942382812 1458.54101562 c 1,24,-1
 785.942382812 1385.1328125 l 1,25,26
 754.267578125 1385.33300781 754.267578125 1385.33300781 739.986328125 1386.76464844 c 2,27,-1
 687.8984375 1391.7734375 l 1,28,-1
 684.911132812 1384.7734375 l 2,29,30
 663.403320312 1334.30859375 663.403320312 1334.30859375 600.578125 1268.97265625 c 1,31,32
 530.916015625 1198.49316406 530.916015625 1198.49316406 454.798828125 1198.49316406 c 0,33,34
 347.681640625 1198.38085938 347.681640625 1198.38085938 319.045898438 1323.49316406 c 0,35,36
 307.463867188 1370.50878906 307.463867188 1370.50878906 306.876953125 1441.34082031 c 1,37,-1
 363.12109375 1441.34082031 l 1,38,39
 363.697265625 1376.05859375 363.697265625 1376.05859375 374.327148438 1342.05273438 c 4,40,41
 396.482421875 1271.18066406 396.482421875 1271.18066406 454.798828125 1271.85253906 c 0,42,43
 506.942382812 1271.85253906 506.942382812 1271.85253906 563.057617188 1326.15722656 c 0,0,1
644.715820312 1473.29296875 m 1,44,-1
 653.53515625 1493.86914062 l 2,45,46
 662.079101562 1513.8046875 662.079101562 1513.8046875 662.079101562 1536.48535156 c 0,47,48
 662.079101562 1570.50097656 662.079101562 1570.50097656 643.73828125 1585.59667969 c 0,49,50
 626.305664062 1599.95703125 626.305664062 1599.95703125 605.456054688 1599.95703125 c 0,51,52
 582.711914062 1599.95703125 582.711914062 1599.95703125 569.982421875 1590.08496094 c 0,53,54
 550.54296875 1575.453125 550.54296875 1575.453125 550.54296875 1546.75683594 c 0,55,56
 550.54296875 1508.04492188 550.54296875 1508.04492188 595.600585938 1490.02050781 c 0,57,58
 613.124023438 1483.01269531 613.124023438 1483.01269531 635.780273438 1476.04492188 c 2,59,-1
 644.715820312 1473.29296875 l 1,44,-1
EndSplineSet
EndChar

StartChar: uni064D
Encoding: 1613 1613 48
Width: 0
VWidth: 2186
GlyphClass: 4
Flags: W
AnchorPoint: "Anchor-7" 533.072 19.8066 mark 0
AnchorPoint: "Anchor-6" 533.072 19.8066 mark 0
AnchorPoint: "Anchor-0" 545.872 -392.193 basemark 0
AnchorPoint: "Anchor-0" 533.072 19.8066 mark 0
LayerCount: 2
Fore
SplineSet
340.400390625 -438.193359375 m 5,0,-1
 340.400390625 -336.537109375 l 5,1,-1
 735.599609375 -174.936523438 l 5,2,-1
 735.599609375 -276.592773438 l 5,3,-1
 340.400390625 -438.193359375 l 5,0,-1
340.400390625 -230.993164062 m 5,4,-1
 340.400390625 -129.336914062 l 5,5,-1
 735.599609375 32.263671875 l 5,6,-1
 735.599609375 -69.392578125 l 5,7,-1
 340.400390625 -230.993164062 l 5,4,-1
EndSplineSet
EndChar

StartChar: uni064E
Encoding: 1614 1614 49
Width: 0
VWidth: 2186
GlyphClass: 4
Flags: W
AnchorPoint: "Anchor-10" 515.072 1306.71 mark 0
AnchorPoint: "Anchor-9" 515.072 1306.71 mark 0
AnchorPoint: "Anchor-1" 515.072 1563.51 basemark 0
AnchorPoint: "Anchor-1" 515.072 1306.71 mark 0
LayerCount: 2
Fore
SplineSet
306.400390625 1283.90722656 m 1,0,-1
 306.400390625 1385.56347656 l 1,1,-1
 701.599609375 1547.16308594 l 5,2,-1
 701.599609375 1445.50683594 l 5,3,-1
 306.400390625 1283.90722656 l 1,0,-1
EndSplineSet
EndChar

StartChar: uni064F
Encoding: 1615 1615 50
Width: 0
VWidth: 2186
GlyphClass: 4
Flags: W
AnchorPoint: "Anchor-10" 535.04 1254.31 mark 0
AnchorPoint: "Anchor-9" 535.04 1254.31 mark 0
AnchorPoint: "Anchor-1" 547.84 1749.91 basemark 0
AnchorPoint: "Anchor-1" 535.04 1254.31 mark 0
LayerCount: 2
Fore
SplineSet
563.754882812 1440.70898438 m 4,0,1
 476.767578125 1477.90917969 476.767578125 1477.90917969 476.919921875 1560.73339844 c 0,2,3
 476.919921875 1630.02148438 476.919921875 1630.02148438 531.823242188 1671.39746094 c 0,4,5
 553.01953125 1687.29296875 553.01953125 1687.29296875 603.48046875 1687.29296875 c 0,6,7
 661.737304688 1687.29296875 661.737304688 1687.29296875 692.921875 1656.88476562 c 0,8,9
 736.887695312 1613.72460938 736.887695312 1613.72460938 736.887695312 1550.4609375 c 0,10,11
 736.887695312 1524.65332031 736.887695312 1524.65332031 725.374023438 1487.63671875 c 2,12,-1
 721.424804688 1474.94921875 l 1,13,-1
 734.693359375 1474.16503906 l 2,14,15
 749.416015625 1473.30078125 749.416015625 1473.30078125 764.975585938 1472.86914062 c 0,16,17
 775.3515625 1472.58105469 775.3515625 1472.58105469 787.391601562 1472.4765625 c 1,18,-1
 787.391601562 1399.1328125 l 1,19,20
 763.19140625 1399.38867188 763.19140625 1399.38867188 741.131835938 1400.76464844 c 0,21,22
 715.6484375 1402.46875 715.6484375 1402.46875 691.900390625 1405.01269531 c 2,23,-1
 685.817382812 1405.66113281 l 1,24,-1
 682.291992188 1400.66113281 l 2,25,26
 646.727539062 1350.20507812 646.727539062 1350.20507812 589.471679688 1315.35742188 c 0,27,28
 428.203125 1216.18945312 428.203125 1216.18945312 308.288085938 1211.796875 c 1,29,-1
 308.288085938 1285.1171875 l 1,30,31
 436.504882812 1288.82910156 436.504882812 1288.82910156 553.392578125 1380.48535156 c 0,32,33
 573.681640625 1396.36523438 573.681640625 1396.36523438 590.475585938 1414.03710938 c 2,34,-1
 603.137695312 1427.37304688 l 1,35,36
 586.23046875 1431.12597656 586.23046875 1431.12597656 563.754882812 1440.70898438 c 4,0,1
646.165039062 1487.26855469 m 1,37,-1
 654.984375 1507.84472656 l 2,38,39
 663.528320312 1527.78125 663.528320312 1527.78125 663.528320312 1550.4609375 c 0,40,41
 663.528320312 1584.4765625 663.528320312 1584.4765625 645.1875 1599.57324219 c 0,42,43
 627.754882812 1613.93261719 627.754882812 1613.93261719 606.904296875 1613.93261719 c 0,44,45
 584.161132812 1613.93261719 584.161132812 1613.93261719 571.431640625 1604.06054688 c 0,46,47
 551.9921875 1589.42871094 551.9921875 1589.42871094 551.9921875 1560.73339844 c 0,48,49
 551.9921875 1522.02148438 551.9921875 1522.02148438 597.049804688 1503.99707031 c 0,50,51
 614.573242188 1496.98925781 614.573242188 1496.98925781 637.229492188 1490.02148438 c 2,52,-1
 646.165039062 1487.26855469 l 1,37,-1
EndSplineSet
EndChar

StartChar: uni0650
Encoding: 1616 1616 51
Width: 0
VWidth: 2186
GlyphClass: 4
Flags: W
AnchorPoint: "Anchor-7" 517.472 -45.6934 mark 0
AnchorPoint: "Anchor-6" 517.472 -45.6934 mark 0
AnchorPoint: "Anchor-0" 555.072 -284.893 basemark 0
AnchorPoint: "Anchor-0" 517.472 -45.6934 mark 0
LayerCount: 2
Fore
SplineSet
350.400390625 -310.092773438 m 1,0,-1
 350.400390625 -208.436523438 l 1,1,-1
 745.599609375 -46.8369140625 l 1,2,-1
 745.599609375 -148.493164062 l 1,3,-1
 350.400390625 -310.092773438 l 1,0,-1
EndSplineSet
EndChar

StartChar: uni0651
Encoding: 1617 1617 52
Width: 0
VWidth: 2186
GlyphClass: 4
Flags: W
AnchorPoint: "Anchor-10" 548.269 1355.65 mark 0
AnchorPoint: "Anchor-9" 548.269 1355.65 mark 0
AnchorPoint: "Anchor-1" 538.668 1757.25 basemark 0
AnchorPoint: "Anchor-1" 548.269 1355.65 mark 0
LayerCount: 2
Fore
SplineSet
437.03515625 1333.9609375 m 0,0,1
 301.217773438 1333.63964844 301.217773438 1333.63964844 300.396484375 1487.28417969 c 6,2,-1
 299.752929688 1607.69726562 l 5,3,-1
 370.541992188 1607.69726562 l 5,4,-1
 371.708007812 1486.40039062 l 6,5,6
 372.357421875 1421.60742188 372.357421875 1421.60742188 437.091796875 1420.92089844 c 4,7,8
 509.741210938 1420.85253906 509.741210938 1420.85253906 511.009765625 1517.33300781 c 6,9,-1
 512.768554688 1651.11328125 l 5,10,-1
 582.78515625 1651.11328125 l 5,11,-1
 584.66796875 1524.55078125 l 6,12,13
 585.919921875 1460.05273438 585.919921875 1460.05273438 662.672851562 1460.12109375 c 4,14,15
 722.827148438 1460.05371094 722.827148438 1460.05371094 724.028320312 1557.74609375 c 6,16,-1
 725.662109375 1690.52832031 l 5,17,-1
 800.211914062 1690.52832031 l 5,18,-1
 798.540039062 1559.09765625 l 6,19,20
 796.348632812 1375.24511719 796.348632812 1375.24511719 663.6015625 1375.35546875 c 4,21,22
 588.079101562 1375.25488281 588.079101562 1375.25488281 555.716796875 1420.96191406 c 5,23,24
 534.0234375 1334.4375 534.0234375 1334.4375 437.03515625 1333.9609375 c 0,0,1
EndSplineSet
EndChar

StartChar: uni0652
Encoding: 1618 1618 53
Width: 0
VWidth: 2186
GlyphClass: 4
Flags: W
AnchorPoint: "Anchor-10" 566.159 1179.48 mark 0
AnchorPoint: "Anchor-9" 566.159 1179.48 mark 0
AnchorPoint: "Anchor-1" 554.959 1638.28 basemark 0
AnchorPoint: "Anchor-1" 566.159 1179.48 mark 0
LayerCount: 2
Fore
SplineSet
663.276367188 1384.35546875 m 4,0,1
 663.276367188 1424.6953125 663.276367188 1424.6953125 635.090820312 1452.87890625 c 132,-1,2
 606.91015625 1481.0625 606.91015625 1481.0625 565.948242188 1481.0625 c 4,3,4
 559.963867188 1481.0625 559.963867188 1481.0625 554.28515625 1480.49609375 c 132,-1,5
 548.606445312 1479.9296875 548.606445312 1479.9296875 543.224609375 1478.79589844 c 132,-1,6
 537.842773438 1477.66113281 537.842773438 1477.66113281 532.750976562 1475.95703125 c 132,-1,7
 527.659179688 1474.25195312 527.659179688 1474.25195312 522.854492188 1471.98046875 c 132,-1,8
 518.05078125 1469.70898438 518.05078125 1469.70898438 513.520507812 1466.86132812 c 132,-1,9
 508.990234375 1464.01367188 508.990234375 1464.01367188 504.737304688 1460.60058594 c 132,-1,10
 500.485351562 1457.18652344 500.485351562 1457.18652344 496.491210938 1453.19335938 c 4,11,12
 482.500976562 1439.20117188 482.500976562 1439.20117188 475.561523438 1422.07910156 c 132,-1,13
 468.62109375 1404.95605469 468.62109375 1404.95605469 468.62109375 1384.35546875 c 4,14,15
 468.62109375 1342.77148438 468.62109375 1342.77148438 496.491210938 1314.90039062 c 132,-1,16
 524.364257812 1287.02929688 524.364257812 1287.02929688 565.948242188 1287.02929688 c 4,17,18
 586.54296875 1287.02929688 586.54296875 1287.02929688 603.7421875 1294.046875 c 132,-1,19
 620.942382812 1301.0625 620.942382812 1301.0625 635.090820312 1315.21484375 c 132,-1,20
 649.244140625 1329.36621094 649.244140625 1329.36621094 656.260742188 1346.56542969 c 132,-1,21
 663.276367188 1363.76464844 663.276367188 1363.76464844 663.276367188 1384.35546875 c 4,0,1
744.818359375 1384.45996094 m 4,22,23
 744.818359375 1309.48730469 744.818359375 1309.48730469 693.0078125 1257.34472656 c 4,24,25
 667.168945312 1231.34472656 667.168945312 1231.34472656 635.392578125 1218.28125 c 132,-1,26
 603.615234375 1205.21972656 603.615234375 1205.21972656 566.2421875 1205.21972656 c 4,27,28
 556.903320312 1205.21972656 556.903320312 1205.21972656 547.905273438 1206.03613281 c 132,-1,29
 538.909179688 1206.85449219 538.909179688 1206.85449219 530.265625 1208.48632812 c 132,-1,30
 521.623046875 1210.11914062 521.623046875 1210.11914062 513.329101562 1212.56835938 c 132,-1,31
 505.03515625 1215.01660156 505.03515625 1215.01660156 497.103515625 1218.27734375 c 132,-1,32
 489.170898438 1221.53710938 489.170898438 1221.53710938 481.596679688 1225.61132812 c 132,-1,33
 474.0234375 1229.68652344 474.0234375 1229.68652344 466.819335938 1234.56933594 c 132,-1,34
 459.615234375 1239.453125 459.615234375 1239.453125 452.77734375 1245.1484375 c 132,-1,35
 445.938476562 1250.84472656 445.938476562 1250.84472656 439.478515625 1257.34472656 c 4,36,37
 413.6328125 1283.35546875 413.6328125 1283.35546875 400.650390625 1315.21777344 c 132,-1,38
 387.666992188 1347.07910156 387.666992188 1347.07910156 387.666992188 1384.45996094 c 4,39,40
 387.666992188 1396.91015625 387.666992188 1396.91015625 389.110351562 1408.75195312 c 132,-1,41
 390.5546875 1420.59375 390.5546875 1420.59375 393.436523438 1431.8046875 c 132,-1,42
 396.318359375 1443.01367188 396.318359375 1443.01367188 400.642578125 1453.59765625 c 132,-1,43
 404.965820312 1464.18066406 404.965820312 1464.18066406 410.719726562 1474.11328125 c 132,-1,44
 416.47265625 1484.04492188 416.47265625 1484.04492188 423.6640625 1493.33203125 c 132,-1,45
 430.85546875 1502.6171875 430.85546875 1502.6171875 439.469726562 1511.23339844 c 4,46,47
 491.270507812 1563.03613281 491.270507812 1563.03613281 566.2421875 1563.03613281 c 132,-1,48
 641.21484375 1563.03613281 641.21484375 1563.03613281 693.016601562 1511.23339844 c 4,49,50
 718.856445312 1485.38671875 718.856445312 1485.38671875 731.837890625 1453.61035156 c 132,-1,51
 744.818359375 1421.83203125 744.818359375 1421.83203125 744.818359375 1384.45996094 c 4,22,23
EndSplineSet
EndChar

StartChar: uni0653
Encoding: 1619 1619 54
Width: 11
VWidth: 2553
GlyphClass: 4
Flags: W
AnchorPoint: "Anchor-10" 397.919 1467.33 mark 0
AnchorPoint: "Anchor-9" 397.919 1467.33 mark 0
AnchorPoint: "Anchor-1" 392.604 1773.32 basemark 0
AnchorPoint: "Anchor-1" 397.919 1467.33 mark 0
LayerCount: 2
Fore
SplineSet
318.89453125 1698.04980469 m 2,0,-1
 642.453125 1698.04980469 l 1,1,-1
 643.666015625 1540.84960938 l 1,2,-1
 328.983398438 1540.84960938 l 2,3,4
 257.590612358 1540.99876607 257.590612358 1540.99876607 207.026367188 1475.10449219 c 2,5,-1
 190.930664062 1454.12890625 l 1,6,-1
 90.8515625 1559.21777344 l 5,7,-1
 100.006835938 1573.16210938 l 6,8,9
 182 1698 182 1698 318.89453125 1698.04980469 c 2,0,-1
EndSplineSet
EndChar

StartChar: uni0657
Encoding: 1623 1623 57
Width: 11
VWidth: 2553
GlyphClass: 4
Flags: W
AnchorPoint: "Anchor-10" 648 1577.87 mark 0
AnchorPoint: "Anchor-9" 648 1577.87 mark 0
AnchorPoint: "Anchor-1" 648 2230.92 basemark 0
AnchorPoint: "Anchor-1" 648 1577.87 mark 0
LayerCount: 2
Fore
SplineSet
375.146484375 1979.15039062 m 1,0,-1
 490.033203125 1971.13183594 l 1,1,2
 537.745117188 2038.81054688 537.745117188 2038.81054688 603.489257812 2078.82519531 c 0,3,4
 783.21484375 2189.34082031 783.21484375 2189.34082031 920.853515625 2198.73730469 c 1,5,-1
 920.853515625 2129.40039062 l 1,6,7
 770.400390625 2121.10839844 770.400390625 2121.10839844 636.360351562 2016.00390625 c 0,8,9
 612.069335938 1996.98925781 612.069335938 1996.98925781 591.93359375 1975.80273438 c 2,10,-1
 566.963867188 1949.515625 l 1,11,-1
 602.356445312 1941.64257812 l 2,12,13
 608.723632812 1940.22949219 608.723632812 1940.22949219 641.551757812 1923.14160156 c 128,-1,14
 674.379882812 1906.05371094 674.379882812 1906.05371094 698.654296875 1872.73925781 c 128,-1,15
 722.9296875 1839.42480469 722.9296875 1839.42480469 722.9296875 1799.32324219 c 128,-1,16
 722.9296875 1759.22167969 722.9296875 1759.22167969 711.494140625 1736.16503906 c 0,17,18
 672.563476562 1657.66992188 672.563476562 1657.66992188 577.603515625 1657.66992188 c 0,19,20
 482.642578125 1657.66992188 482.642578125 1657.66992188 446.654296875 1744.78320312 c 0,21,22
 434.422851562 1774.39160156 434.422851562 1774.39160156 434.422851562 1806.69433594 c 128,-1,23
 434.422851562 1838.99804688 434.422851562 1838.99804688 447.5625 1881.22851562 c 2,24,-1
 455.349609375 1906.25683594 l 1,25,-1
 429.173828125 1907.80273438 l 2,26,27
 404.779296875 1909.23730469 404.779296875 1909.23730469 375.146484375 1909.70800781 c 1,28,-1
 375.146484375 1979.15039062 l 1,0,-1
527.903320312 1894.26757812 m 1,29,-1
 514.608398438 1863.25195312 l 2,30,31
 503.908203125 1838.29882812 503.908203125 1838.29882812 503.908203125 1802.21191406 c 128,-1,32
 503.908203125 1766.125 503.908203125 1766.125 527.564453125 1746.63964844 c 128,-1,33
 551.220703125 1727.15429688 551.220703125 1727.15429688 578.67578125 1727.15429688 c 0,34,35
 636.00390625 1728.80078125 636.00390625 1728.80078125 648.572265625 1775.10058594 c 0,36,37
 651.435546875 1785.64550781 651.435546875 1785.64550781 651.435546875 1794.97167969 c 0,38,39
 651.435546875 1856.27539062 651.435546875 1856.27539062 545.530273438 1888.83984375 c 2,40,-1
 527.903320312 1894.26757812 l 1,29,-1
EndSplineSet
EndChar

StartChar: uni065A
Encoding: 1626 1626 58
Width: 1295
VWidth: 2553
GlyphClass: 4
Flags: W
AnchorPoint: "Anchor-10" 648 1490.29 mark 0
AnchorPoint: "Anchor-9" 648 1490.29 mark 0
AnchorPoint: "Anchor-1" 645.488 2055.43 basemark 0
AnchorPoint: "Anchor-1" 648 1490.29 mark 0
LayerCount: 2
Fore
SplineSet
569.607421875 1593.80273438 m 1,0,-1
 355.39453125 1951.92480469 l 1,1,-1
 471.013671875 1951.92480469 l 1,2,-1
 648 1686.44140625 l 1,3,-1
 824.983398438 1951.92480469 l 1,4,-1
 940.604492188 1951.92480469 l 1,5,-1
 726.388671875 1593.80273438 l 1,6,-1
 569.607421875 1593.80273438 l 1,0,-1
EndSplineSet
EndChar

StartChar: afii57392
Encoding: 1632 1632 59
Width: 1036
VWidth: 2553
GlyphClass: 2
Flags: W
LayerCount: 2
Fore
SplineSet
228.26953125 502.380859375 m 4,0,1
 230.58984375 623.020507812 230.58984375 623.020507812 314.109375 706.541015625 c 132,-1,2
 397.629882812 790.060546875 397.629882812 790.060546875 518.26953125 791.220703125 c 4,3,4
 638.91015625 790.060546875 638.91015625 790.060546875 722.4296875 706.541015625 c 132,-1,5
 805.950195312 623.020507812 805.950195312 623.020507812 807.109375 502.380859375 c 4,6,7
 805.950195312 381.741210938 805.950195312 381.741210938 722.4296875 298.220703125 c 132,-1,8
 638.91015625 214.701171875 638.91015625 214.701171875 518.26953125 213.541015625 c 4,9,10
 397.629882812 214.701171875 397.629882812 214.701171875 314.109375 298.220703125 c 132,-1,11
 230.58984375 381.741210938 230.58984375 381.741210938 228.26953125 502.380859375 c 4,0,1
393.271484375 502.319335938 m 4,12,13
 394 450 394 450 430.271484375 414.319335938 c 4,14,15
 466 378 466 378 518.271484375 377.819335938 c 4,16,17
 570 378 570 378 606.271484375 414.319335938 c 4,18,19
 643 451 643 451 642.771484375 502.319335938 c 4,20,21
 642 554 642 554 606.271484375 590.319335938 c 4,22,23
 569 627 569 627 518.271484375 626.819335938 c 4,24,25
 466 626 466 626 430.271484375 590.319335938 c 4,26,27
 392 552 392 552 393.271484375 502.319335938 c 4,12,13
EndSplineSet
EndChar

StartChar: afii57393
Encoding: 1633 1633 60
Width: 732
VWidth: 2553
GlyphClass: 2
Flags: W
LayerCount: 2
Fore
SplineSet
459.849609375 3.9091796875 m 5,0,-1
 284.870117188 3.9091796875 l 5,1,2
 284.870117188 312 l 6,3,4
 285 872 285 872 163 1279 c 5,5,-1
 329 1331 l 5,6,7
 460 892 460 892 459.849609375 311 c 6,8,9
 459.849609375 3.9091796875 l 5,0,-1
EndSplineSet
EndChar

StartChar: afii57394
Encoding: 1634 1634 61
Width: 1148
VWidth: 2553
GlyphClass: 2
Flags: W
LayerCount: 2
Fore
SplineSet
458.8515625 311.921875 m 6,0,-1
 458.864257812 3.9091796875 l 5,1,-1
 284.094726562 3.9091796875 l 5,2,-1
 284.076171875 311.891601562 l 6,3,4
 284 871 284 871 163.909179688 1279.46484375 c 5,5,-1
 331 1331 l 5,6,7
 375.04296875 1135.35644531 l 6,8,9
 425 912 425 912 645.235351562 910.3828125 c 4,10,11
 836 909 836 909 843.625 1130.23925781 c 4,12,13
 847 1224 847 1224 844.225585938 1341.6875 c 5,14,-1
 1007.57324219 1341.6875 l 5,15,16
 1012 1095 1012 1095 996.909179688 1009.46484375 c 4,17,18
 946 728 946 728 646.358398438 727.407226562 c 4,19,20
 526 727 526 727 440 783 c 5,21,22
 459 658 459 658 458.8515625 311.921875 c 6,0,-1
EndSplineSet
EndChar

StartChar: afii57395
Encoding: 1635 1635 62
Width: 1425
VWidth: 2553
GlyphClass: 2
Flags: W
LayerCount: 2
Fore
SplineSet
375.04296875 1135.35644531 m 6,0,1
 425.55078125 910.994140625 425.55078125 910.994140625 578.471679688 913.147460938 c 4,2,3
 696.114257812 915.001953125 696.114257812 915.001953125 696.405273438 1094.42871094 c 6,4,-1
 696.805664062 1341 l 5,5,-1
 864.08203125 1341 l 5,6,-1
 863.4140625 1084.46484375 l 6,7,8
 863 913 863 913 1007.73925781 913.254882812 c 4,9,10
 1123.859375 913 1123.859375 913 1123.40429688 1078.765625 c 6,11,-1
 1122.68554688 1340.45996094 l 5,12,-1
 1294.08007812 1340.45996094 l 5,13,-1
 1295.0078125 1155.07226562 l 6,14,15
 1297 737 1297 737 1014.7265625 736.75 c 4,16,17
 851 737 851 737 788.731445312 857.973632812 c 5,18,19
 726 743 726 743 607.7734375 739.915039062 c 4,20,21
 503 737 503 737 440.331054688 792.1953125 c 5,22,23
 458.8359375 685.940429688 458.8359375 685.940429688 458.8515625 311.921875 c 6,24,-1
 458.864257812 3.9091796875 l 5,25,-1
 284.094726562 3.9091796875 l 5,26,-1
 284.076171875 311.891601562 l 6,27,28
 284 871 284 871 163.909179688 1279.46484375 c 5,29,-1
 331 1331 l 5,30,-1
 375.04296875 1135.35644531 l 6,0,1
EndSplineSet
EndChar

StartChar: afii57396
Encoding: 1636 1636 63
Width: 1026
VWidth: 2553
GlyphClass: 2
Flags: W
LayerCount: 2
Fore
SplineSet
160.43359375 325 m 0,0,1
 162 542 162 542 493.611328125 699 c 1,2,3
 200 846 200 846 199.670898438 1027 c 0,4,5
 200 1307.16992188 200 1307.16992188 624 1308.72753906 c 2,6,-1
 763.29296875 1309.23925781 l 1,7,-1
 764.83984375 1130.83105469 l 1,8,-1
 627 1130.13574219 l 2,9,10
 408 1129 408 1129 408 1021 c 0,11,12
 408 919 408 919 763 785 c 1,13,-1
 753 617 l 1,14,15
 366 490 366 490 367.209960938 333 c 0,16,17
 367.999023438 184.147460938 367.999023438 184.147460938 640 184.150390625 c 2,18,-1
 878.109375 184.153320312 l 1,19,-1
 877.447265625 5.1474609375 l 1,20,-1
 640 5.150390625 l 2,21,22
 159 5 159 5 160.43359375 325 c 0,0,1
EndSplineSet
EndChar

StartChar: afii57397
Encoding: 1637 1637 64
Width: 1212
VWidth: 2553
GlyphClass: 2
Flags: W
LayerCount: 2
Fore
SplineSet
594.77734375 983.793945312 m 1,0,1
 291 682 291 682 290.793945312 441.524414062 c 0,2,3
 291 188 291 188 618.932617188 188.440429688 c 24,4,5
 915 189 915 189 915.169921875 431.700195312 c 0,6,7
 915 698 915 698 594.77734375 983.793945312 c 1,0,1
385.1953125 1128.59375 m 1,8,-1
 494.268554688 1289.17285156 l 1,9,10
 1091 906 1091 906 1091.62890625 450.08984375 c 0,11,12
 1092 213 1092 213 959 100 c 0,13,14
 840 -2 840 -2 622.114257812 -1.3291015625 c 0,15,16
 437 -1 437 -1 305 68 c 0,17,18
 120 165 120 165 120.440429688 441.107421875 c 0,19,20
 120 755 120 755 443.510742188 1087.30761719 c 5,21,-1
 385.1953125 1128.59375 l 1,8,-1
EndSplineSet
EndChar

StartChar: afii57398
Encoding: 1638 1638 65
Width: 1286
VWidth: 2553
GlyphClass: 2
Flags: W
LayerCount: 2
Fore
SplineSet
111.526367188 1330.12207031 m 1,0,1
 693 1330.68652344 l 2,2,3
 1016 1331 1016 1331 1016 981 c 2,4,-1
 1016 3.9091796875 l 1,5,-1
 843.5703125 3.9091796875 l 1,6,-1
 843.571289062 977 l 2,7,8
 844.000976562 1132.41992188 844.000976562 1132.41992188 689 1132.41992188 c 2,9,-1
 111.526367188 1132.41992188 l 1,10,-1
 111.526367188 1330.12207031 l 1,0,1
EndSplineSet
EndChar

StartChar: afii57399
Encoding: 1639 1639 66
Width: 1261
VWidth: 2553
GlyphClass: 2
Flags: W
LayerCount: 2
Fore
SplineSet
629.96484375 405 m 1,0,1
 732 832 732 832 968.96484375 1340 c 1,2,-1
 1140.23144531 1275.83984375 l 1,3,4
 820 671 820 671 704.961914062 3.9091796875 c 1,5,-1
 556.002929688 3.9091796875 l 1,6,7
 441 671 441 671 120.733398438 1275.83984375 c 1,8,-1
 292 1340 l 1,9,10
 529 832 529 832 629.96484375 405 c 1,0,1
EndSplineSet
EndChar

StartChar: afii57400
Encoding: 1640 1640 67
Width: 1261
VWidth: 2553
GlyphClass: 2
Flags: W
LayerCount: 2
Fore
SplineSet
631 938.909179688 m 1,0,1
 528.96484375 511.909179688 528.96484375 511.909179688 292 3.9091796875 c 1,2,-1
 120.733398438 68.0693359375 l 1,3,4
 440.96484375 672.909179688 440.96484375 672.909179688 556.002929688 1340 c 1,5,-1
 704.961914062 1340 l 1,6,7
 819.96484375 672.909179688 819.96484375 672.909179688 1140.23144531 68.0693359375 c 1,8,-1
 968.96484375 3.9091796875 l 1,9,10
 731.96484375 511.909179688 731.96484375 511.909179688 631 938.909179688 c 1,0,1
EndSplineSet
EndChar

StartChar: afii57401
Encoding: 1641 1641 68
Width: 1207
VWidth: 2553
GlyphClass: 2
Flags: W
LayerCount: 2
Fore
SplineSet
511.439453125 584.34375 m 0,0,1
 319 585 319 585 225.174804688 694.642578125 c 0,2,3
 140 795 140 795 140.05859375 939.556640625 c 0,4,5
 140 1112 140 1112 232.036132812 1212.18066406 c 0,6,7
 348 1339 348 1339 545 1339 c 0,8,9
 867 1339 867 1339 898.966796875 977.190429688 c 0,10,11
 922 715 922 715 936.25390625 3.9091796875 c 1,12,-1
 765.4296875 3.9091796875 l 1,13,-1
 750.4296875 645.017578125 l 1,14,15
 649 584 649 584 511.439453125 584.34375 c 0,0,1
524 755.966796875 m 0,16,17
 664 756 664 756 738.049804688 836.3828125 c 1,18,19
 738 916 738 916 723.129882812 1017.28808594 c 0,20,21
 700 1164 700 1164 544.451171875 1163.76757812 c 0,22,23
 410 1164 410 1164 349.197265625 1076.29296875 c 0,24,25
 309 1019 309 1019 309.166992188 941.240234375 c 0,26,27
 310 756 310 756 524 755.966796875 c 0,16,17
EndSplineSet
EndChar

StartChar: afii57381
Encoding: 1642 1642 69
Width: 1291
VWidth: 2553
GlyphClass: 2
Flags: W
LayerCount: 2
Fore
SplineSet
795.73828125 178.34765625 m 0,0,1
 795.331054688 240.686523438 795.331054688 240.686523438 841.432617188 285.006835938 c 0,2,3
 887.331054688 329.686523438 887.331054688 329.686523438 950.860351562 329.545898438 c 0,4,5
 1014.33105469 329.686523438 1014.33105469 329.686523438 1060.28808594 285.006835938 c 0,6,7
 1106.33105469 240.686523438 1106.33105469 240.686523438 1105.98339844 178.34765625 c 0,8,9
 1106.33105469 116.686523438 1106.33105469 116.686523438 1060.28808594 71.6884765625 c 128,-1,10
 1014.33105469 26.6865234375 1014.33105469 26.6865234375 950.860351562 27.1494140625 c 0,11,12
 887.331054688 26.6865234375 887.331054688 26.6865234375 841.432617188 71.6884765625 c 0,13,14
 795.331054688 116.686523438 795.331054688 116.686523438 795.73828125 178.34765625 c 0,0,1
185.407226562 1204.66113281 m 4,15,16
 185 1267 185 1267 231.1015625 1311.3203125 c 4,17,18
 277 1356 277 1356 340.529296875 1355.859375 c 4,19,20
 404 1356 404 1356 449.95703125 1311.3203125 c 4,21,22
 496 1267 496 1267 495.65234375 1204.66113281 c 4,23,24
 496 1143 496 1143 449.95703125 1098.00195312 c 132,-1,25
 404 1053 404 1053 340.529296875 1053.46289062 c 4,26,27
 277 1053 277 1053 231.1015625 1098.00195312 c 4,28,29
 185 1143 185 1143 185.407226562 1204.66113281 c 4,15,16
890.688476562 1360.36816406 m 1,30,-1
 1046 1282 l 1,31,-1
 357.364257812 8.9091796875 l 1,32,-1
 204 90 l 1,33,-1
 890.688476562 1360.36816406 l 1,30,-1
EndSplineSet
EndChar

StartChar: uni066B
Encoding: 1643 1643 70
Width: 667
VWidth: 2553
GlyphClass: 2
Flags: W
LayerCount: 2
Fore
SplineSet
55 -211 m 1,0,-1
 454.059570312 575.4765625 l 5,1,-1
 577 517 l 1,2,3
 181.846679688 -271.249023438 l 1,4,-1
 55 -211 l 1,0,-1
EndSplineSet
EndChar

StartChar: uni066C
Encoding: 1644 1644 71
Width: 592
VWidth: 2304
GlyphClass: 2
Flags: W
LayerCount: 2
Fore
SplineSet
299 262 m 0,0,1
 431 259 431 259 441.162109375 146.842773438 c 0,2,3
 450 48 450 48 420 -53 c 0,4,5
 364 -243 364 -243 170 -331 c 1,6,-1
 120 -285 l 1,7,8
 310 -179 310 -179 328.817382812 -0.3359375 c 1,9,10
 298 -1 298 -1 287.9140625 -0.0322265625 c 0,11,12
 153 7 153 7 155.07421875 124 c 4,13,14
 157 265 157 265 299 262 c 0,0,1
EndSplineSet
EndChar

StartChar: afii63167
Encoding: 1645 1645 72
Width: 1411
VWidth: 2553
GlyphClass: 2
Flags: W
LayerCount: 2
Fore
SplineSet
192.791992188 910.817382812 m 1,0,-1
 583.680664062 910.817382812 l 1,1,-1
 705.771484375 1282.53027344 l 1,2,-1
 827.856445312 910.817382812 l 1,3,-1
 1218.74707031 910.817382812 l 1,4,-1
 902.943359375 679.956054688 l 1,5,-1
 1023.75 308.823242188 l 1,6,-1
 705.771484375 538.59765625 l 1,7,-1
 387.788085938 308.823242188 l 1,8,-1
 508.595703125 679.956054688 l 1,9,-1
 192.791992188 910.817382812 l 1,0,-1
EndSplineSet
EndChar

StartChar: uni066E
Encoding: 1646 1646 73
Width: 1901
VWidth: 2553
GlyphClass: 2
Flags: W
AnchorPoint: "Anchor-10" 879.751 1229.53 basechar 0
AnchorPoint: "Anchor-7" 879.751 -214.707 basechar 0
LayerCount: 2
Fore
SplineSet
536.549804688 185.200195312 m 6,0,-1
 1373.10742188 184 l 6,1,2
 1620.68261719 184 1620.68261719 184 1620.68261719 445.366210938 c 6,3,-1
 1620.68261719 653.75 l 5,4,-1
 1799.44042969 653.75 l 5,5,-1
 1799.44042969 447.842773438 l 6,6,7
 1799.00004939 0.0502198626879 1799.00004939 0.0502198626879 1366.4609375 0 c 6,8,-1
 533.767578125 -0.0966796875 l 6,9,10
 100.229577647 -5.11683127797e-05 100.229577647 -5.11683127797e-05 100.227539062 443.977539062 c 6,11,-1
 100.2265625 656.66015625 l 5,12,-1
 278.984375 656.66015625 l 5,13,-1
 278.984375 444.541015625 l 6,14,15
 279 186 279 186 536.549804688 185.200195312 c 6,0,-1
EndSplineSet
Substitution2: "'init' Initial Forms in Arabic lookup 13 subtable" uni066E.init
Substitution2: "'medi' Medial Forms in Arabic lookup 11 subtable" uni066E.medi
Substitution2: "'fina' Terminal Forms in Arabic lookup 9 subtable" uni066E.fina
EndChar

StartChar: uni066F
Encoding: 1647 1647 74
Width: 1434
VWidth: 2553
GlyphClass: 2
Flags: W
AnchorPoint: "Anchor-10" 353.676 1161.52 basechar 0
AnchorPoint: "Anchor-7" 425.271 -713.467 basechar 0
LayerCount: 2
Fore
SplineSet
1333.15039062 -64.462890625 m 2,0,1
 1334.2314589 -452 1334.2314589 -452 749.385742188 -452 c 2,2,-1
 691.184570312 -452 l 2,3,4
 101.317884273 -452 101.317884273 -452 101.12109375 103.918945312 c 2,5,-1
 101 446 l 1,6,-1
 279.877929688 446.674804688 l 1,7,-1
 279.877929688 105.092773438 l 2,8,9
 280.000055904 -267.170406346 280.000055904 -267.170406346 693.356445312 -262.711914062 c 2,10,-1
 747.770507812 -262.125 l 2,11,12
 1160 -258 1160 -258 1158.20996094 -61.064453125 c 1,13,-1
 1158.20996094 2.98046875 l 1,14,-1
 967.346679688 2.98046875 l 2,15,16
 646 3 646 3 647.383789062 366.602539062 c 0,17,18
 649 731 649 731 995.877929688 731.463867188 c 0,19,20
 1330.92858884 731.999885755 1330.92858884 731.999885755 1331.96679688 359.827148438 c 2,21,-1
 1333.15039062 -64.462890625 l 2,0,1
991.919921875 556.248046875 m 0,22,23
 818 556 818 556 818.166992188 368.099609375 c 0,24,25
 817.999934026 184.927662029 817.999934026 184.927662029 966.307617188 184.874023438 c 6,26,-1
 1158.01757812 184.8046875 l 5,27,-1
 1157.56640625 353.874023438 l 2,28,29
 1157 557 1157 557 991.919921875 556.248046875 c 0,22,23
EndSplineSet
Substitution2: "'init' Initial Forms in Arabic lookup 13 subtable" uni066F.init
Substitution2: "'medi' Medial Forms in Arabic lookup 11 subtable" uni066F.medi
Substitution2: "'fina' Terminal Forms in Arabic lookup 9 subtable" uni066F.fina
EndChar

StartChar: uni0670
Encoding: 1648 1648 75
Width: 11
VWidth: 2553
GlyphClass: 4
Flags: W
AnchorPoint: "Anchor-10" 648 1490.29 mark 0
AnchorPoint: "Anchor-9" 648 1490.29 mark 0
AnchorPoint: "Anchor-1" 648 2086.6 basemark 0
AnchorPoint: "Anchor-1" 648 1490.29 mark 0
LayerCount: 2
Fore
SplineSet
604.571289062 1557.38378906 m 1,0,-1
 604.571289062 2019.51757812 l 5,1,-1
 691.427734375 2019.51757812 l 5,2,-1
 691.427734375 1557.38378906 l 1,3,-1
 604.571289062 1557.38378906 l 1,0,-1
EndSplineSet
EndChar

StartChar: uni0674
Encoding: 1652 1652 76
Width: 759
VWidth: 2553
GlyphClass: 2
Flags: W
LayerCount: 2
Fore
SplineSet
161.505859375 1776.52950978 m 1,0,-1
 270.56497862 1801.69567833 l 1,1,2
 194 1849 194 1849 194.018554688 1949.76855469 c 0,3,4
 194 2070 194 2070 294.772460938 2127.04492188 c 0,5,6
 348 2157 348 2157 417 2157.36618146 c 0,7,8
 497 2157 497 2157 559.309570312 2118.38476562 c 1,9,-1
 559.309570312 2003.42871094 l 1,10,11
 511 2031 511 2031 441.8203125 2030.87792969 c 4,12,13
 326 2030 326 2030 325.44140625 1944.07421875 c 4,14,15
 325 1872 325 1872 413.85546875 1845.35449219 c 1,16,17
 585.682617188 1873.77048489 l 1,18,-1
 585.682617188 1752.89747923 l 1,19,-1
 161.505859375 1657.66927849 l 1,20,-1
 161.505859375 1776.52950978 l 1,0,-1
EndSplineSet
EndChar

StartChar: uni06A1
Encoding: 1697 1697 80
Width: 1897
VWidth: 2553
GlyphClass: 2
Flags: W
AnchorPoint: "Anchor-10" 504.245 1207.49 basechar 0
AnchorPoint: "Anchor-7" 521.19 -185.02 basechar 0
LayerCount: 2
Fore
SplineSet
1453.33691406 1004.38964844 m 0,0,1
 1791.3858416 1003.99955476 1791.3858416 1003.99955476 1791.86328125 695.657226562 c 2,2,-1
 1792.39257812 353.82421875 l 6,3,4
 1792.99988533 0.0667937137334 1792.99988533 0.0667937137334 1278.48925781 0 c 2,5,-1
 533.767578125 -0.0966796875 l 2,6,7
 100.229577647 -5.11683127797e-05 100.229577647 -5.11683127797e-05 100.227539062 443.977539062 c 2,8,-1
 100.2265625 656.66015625 l 1,9,-1
 278.984375 656.66015625 l 1,10,-1
 278.984375 444.541015625 l 2,11,12
 279.00002304 185.618763899 279.00002304 185.618763899 536.549804688 185.200195312 c 2,13,-1
 1275.04296875 184 l 2,14,15
 1601.82898419 183.000523053 1601.82898419 183.000523053 1608.82714844 328.044921875 c 2,16,-1
 1609.92871094 350.875976562 l 1,17,18
 1539 346 1539 346 1469 346.33984375 c 0,19,20
 1251 347 1251 347 1175.85546875 429.404296875 c 0,21,22
 1111 501 1111 501 1110.96191406 658.303710938 c 0,23,24
 1111 1004 1111 1004 1453.33691406 1004.38964844 c 0,0,1
1464 523 m 0,25,26
 1555 523 1555 523 1620.17675781 531.609375 c 1,27,-1
 1620 678.5 l 2,28,29
 1620 829 1620 829 1454.96289062 829.401367188 c 0,30,31
 1280 829 1280 829 1279.83300781 668.990234375 c 0,32,33
 1280 523 1280 523 1464 523 c 0,25,26
EndSplineSet
Substitution2: "'init' Initial Forms in Arabic lookup 13 subtable" uni06A1.init
Substitution2: "'medi' Medial Forms in Arabic lookup 11 subtable" uni06A1.medi
Substitution2: "'fina' Terminal Forms in Arabic lookup 9 subtable" uni06A1.fina
EndChar

StartChar: uni06A9
Encoding: 1705 1705 81
Width: 1855
VWidth: 2553
GlyphClass: 2
Flags: W
AnchorPoint: "Anchor-10" 599.382 1355.15 basechar 0
AnchorPoint: "Anchor-7" 849.692 -230.794 basechar 0
LayerCount: 2
Fore
SplineSet
536.549804688 185.200195312 m 6,0,1
 1260.2421875 184.096679688 l 6,2,3
 1508 184 1508 184 1508.03222656 315.865234375 c 4,4,5
 1508 370.790039062 1508 370.790039062 1396.97070312 497.4140625 c 6,6,-1
 1076.32421875 863.096679688 l 6,7,8
 1028 918 1028 918 1028.94628906 1000.5078125 c 4,9,10
 1029.99609375 1121.5078125 1029.99609375 1121.5078125 1146.59960938 1159.90332031 c 6,11,-1
 1773.82421875 1366.43554688 l 5,12,-1
 1773.82421875 1182.04296875 l 5,13,-1
 1204.53613281 996.079101562 l 5,14,-1
 1524.28710938 632.5703125 l 6,15,16
 1677 459 1677 459 1678.66308594 320.096679688 c 4,17,18
 1681.99902344 0.056640625 1681.99902344 0.056640625 1258.75097656 0 c 6,19,-1
 533.767578125 -0.0966796875 l 6,20,21
 100.229492188 -0 100.229492188 -0 100.227539062 443.977539062 c 6,22,-1
 100.2265625 656.66015625 l 5,23,-1
 278.984375 656.66015625 l 5,24,-1
 278.984375 444.541015625 l 6,25,26
 279 186 279 186 536.549804688 185.200195312 c 6,0,1
EndSplineSet
Substitution2: "'init' Initial Forms in Arabic lookup 13 subtable" uniFB90
Substitution2: "'medi' Medial Forms in Arabic lookup 11 subtable" uniFB91
Substitution2: "'fina' Terminal Forms in Arabic lookup 9 subtable" uniFB8F
EndChar

StartChar: afii57514
Encoding: 1722 1722 83
Width: 1442
VWidth: 2553
GlyphClass: 2
Flags: W
AnchorPoint: "Anchor-10" 597.158 925.159 basechar 0
AnchorPoint: "Anchor-7" 701.132 -706.307 basechar 0
LayerCount: 2
Fore
SplineSet
1329.57128906 53.86328125 m 2,0,1
 1318.7265625 -451 1318.7265625 -451 748.819335938 -450.940429688 c 2,2,-1
 694.1015625 -450.940429688 l 2,3,4
 101.317382812 -450.940429688 101.317382812 -450.940429688 101.12109375 103.276367188 c 2,5,-1
 101 446 l 1,6,-1
 281.877929688 446.033203125 l 1,7,-1
 281.877929688 104.44921875 l 2,8,9
 282 -265.639648438 282 -265.639648438 696.272460938 -265.639648438 c 2,10,-1
 747.385742188 -265.639648438 l 2,11,12
 1162.34570312 -266 1162.34570312 -266 1162.16210938 48.5576171875 c 2,13,-1
 1161.81445312 644.818359375 l 1,14,-1
 1342.26757812 644.911132812 l 1,15,-1
 1329.57128906 53.86328125 l 2,0,1
EndSplineSet
Substitution2: "'init' Initial Forms in Arabic lookup 13 subtable" uni06BA.init
Substitution2: "'medi' Medial Forms in Arabic lookup 11 subtable" uni06BA.medi
Substitution2: "'fina' Terminal Forms in Arabic lookup 9 subtable" uniFB9F
EndChar

StartChar: uni06F4
Encoding: 1780 1780 90
Width: 1146
VWidth: 2553
GlyphClass: 2
Flags: W
LayerCount: 2
Fore
SplineSet
434 768 m 5,0,1
 458.83984375 599.08984375 458.83984375 599.08984375 458.8515625 311.921875 c 6,2,-1
 458.864257812 3.9091796875 l 5,3,-1
 284.094726562 3.9091796875 l 5,4,-1
 284.076171875 311.891601562 l 6,5,6
 284 869 284 869 163.909179688 1279.46484375 c 5,7,-1
 331 1331 l 5,8,9
 380 1101 380 1101 399 937 c 21,10,11
 434 1341 434 1341 769 1341 c 4,12,13
 867 1341 867 1341 964.85546875 1299.70703125 c 5,14,15
 964.85546875 1145.29589844 l 5,16,17
 871 1176 871 1176 804.009765625 1175.4921875 c 4,18,19
 677 1174 677 1174 609.79296875 1105.39746094 c 4,20,21
 537 1032 537 1032 537 918 c 4,22,23
 537 821 537 821 776.732421875 821.7265625 c 4,24,25
 873 822 873 822 1013.36523438 851.034179688 c 5,26,-1
 1015.85546875 684.295898438 l 5,27,28
 897 651 897 651 775 650.282226562 c 4,29,30
 554 650 554 650 434 768 c 5,0,1
EndSplineSet
EndChar

StartChar: uni06F5
Encoding: 1781 1781 91
Width: 1278
VWidth: 2553
GlyphClass: 2
Flags: W
LayerCount: 2
Fore
SplineSet
427.6796875 187.653320312 m 0,0,1
 550 187 550 187 571.43359375 418.513671875 c 1,2,-1
 704.314453125 418.513671875 l 1,3,4
 714 186 714 186 865.109375 183.567382812 c 0,5,6
 993 181 993 181 992.333984375 346.813476562 c 0,7,8
 992 420 992 420 965.516601562 496.103515625 c 0,9,10
 885 722 885 722 639.676757812 999.478515625 c 1,11,12
 388 712 388 712 313.034179688 490.849609375 c 0,13,14
 283 402 283 402 284.311523438 344.94140625 c 0,15,16
 288 188 288 188 427.6796875 187.653320312 c 0,0,1
403.313476562 -0.4072265625 m 0,17,18
 120 -0 120 -0 120.068359375 318.868164062 c 0,19,20
 120 657 120 657 521.501953125 1122.52148438 c 1,21,22
 496 1150 496 1150 470.76953125 1176.52148438 c 1,23,-1
 592.76953125 1317.52148438 l 1,24,25
 617 1287 617 1287 685.522460938 1213.90722656 c 0,26,27
 1157 704 1157 704 1157.93261719 345.603515625 c 0,28,29
 1159 0 1159 0 877.362304688 0.021484375 c 0,30,31
 693.779725523 -2.58093369894e-05 693.779725523 -2.58093369894e-05 637.713867188 155.643554688 c 2,32,-1
 632.650390625 169.700195312 l 1,33,-1
 627.579101562 155.646484375 l 2,34,35
 571 0 571 0 403.313476562 -0.4072265625 c 0,17,18
EndSplineSet
EndChar

StartChar: uni06F6
Encoding: 1782 1782 92
Width: 1030
VWidth: 2553
GlyphClass: 2
Flags: W
LayerCount: 2
Fore
SplineSet
305.875 971.692382812 m 0,0,1
 307 809 307 809 500.893554688 781.696289062 c 0,2,3
 590 769 590 769 649.990234375 811.506835938 c 0,4,5
 730 868 730 868 810 924.716796875 c 1,6,-1
 900 766.716796875 l 1,7,8
 671 636 671 636 368 0 c 1,9,-1
 210 75 l 5,10,11
 301 288 301 288 519 622.716796875 c 5,12,13
 133 649 133 649 132.846679688 966.373046875 c 0,14,15
 133 1125 133 1125 231 1232.71679688 c 0,16,17
 331 1343 331 1343 506 1350 c 0,18,19
 629 1355 629 1355 716.52734375 1301.29003906 c 1,20,-1
 715.52734375 1136.71679688 l 1,21,22
 632 1180 632 1180 540 1180.30664062 c 0,23,24
 474 1181 474 1181 426 1159 c 0,25,26
 305 1104 305 1104 305.875 971.692382812 c 0,0,1
EndSplineSet
EndChar

StartChar: uniFB8F
Encoding: 64399 64399 107
Width: 2022
VWidth: 2553
GlyphClass: 2
Flags: W
AnchorPoint: "Anchor-7" 849.692 -230.794 basechar 0
AnchorPoint: "Anchor-10" 599.382 1355.15 basechar 0
LayerCount: 2
Fore
SplineSet
1259.10449219 0.3837890625 m 2,0,-1
 533.767578125 -0.0966796875 l 2,1,2
 100.229577647 -5.11683127797e-05 100.229577647 -5.11683127797e-05 100.227539062 443.977539062 c 2,3,-1
 100.2265625 656.66015625 l 1,4,-1
 278.984375 656.66015625 l 1,5,-1
 278.984375 444.541015625 l 2,6,7
 278.999972641 184.456208717 278.999972641 184.456208717 536.549804688 184.200195312 c 2,8,-1
 1260.59570312 183.48046875 l 2,9,10
 1507 183 1507 183 1508.38574219 316.249023438 c 0,11,12
 1509.00492681 370.431123393 1509.00492681 370.431123393 1397.32421875 497.797851562 c 2,13,-1
 1076.67773438 863.48046875 l 2,14,15
 1029 918 1029 918 1029.29980469 1000.89160156 c 0,16,17
 1031.00149668 1122.10661134 1031.00149668 1122.10661134 1146.953125 1160.28710938 c 2,18,-1
 1774.17773438 1366.81933594 l 1,19,-1
 1774.17773438 1182.42675781 l 1,20,-1
 1204.88964844 996.462890625 l 1,21,-1
 1778.09082031 344.111328125 l 2,22,23
 1916.83010347 186.193382219 1916.83010347 186.193382219 2004.23046875 184.48046875 c 2,24,-1
 2028.74609375 184 l 2,25,26
 2053.74609375 184 2053.74609375 184 2053.74609375 99 c 2,27,-1
 2053.74609375 88 l 2,28,29
 2054 0 2054 0 2028.74609375 0 c 2,30,-1
 2014.12792969 0 l 2,31,32
 1810 0 1810 0 1662.18164062 202.48046875 c 1,33,34
 1595 1 1595 1 1259.10449219 0.3837890625 c 2,0,-1
EndSplineSet
EndChar

StartChar: uniFB9F
Encoding: 64415 64415 115
Width: 1590
VWidth: 2553
GlyphClass: 2
Flags: W
AnchorPoint: "Anchor-7" 691 -665.5 basechar 0
AnchorPoint: "Anchor-10" 644.402 807.573 basechar 0
LayerCount: 2
Fore
SplineSet
1594.9765625 0 m 2,0,-1
 1557.31738281 0 l 2,1,2
 1391 0 1391 0 1329.57128906 82.068359375 c 5,3,-1
 1329.57128906 53.86328125 l 6,4,5
 1330 -450.940429688 1330 -450.940429688 748.819335938 -450.940429688 c 6,6,-1
 694.1015625 -450.940429688 l 6,7,8
 101.317382812 -451 101.317382812 -451 101.12109375 103.276367188 c 6,9,-1
 101 446 l 5,10,-1
 281.877929688 446.033203125 l 5,11,-1
 281.877929688 104.44921875 l 6,12,13
 282 -265.639648438 282 -265.639648438 696.272460938 -265.639648438 c 6,14,-1
 747.385742188 -265.639648438 l 6,15,16
 1162.34570312 -266 1162.34570312 -266 1162.16210938 48.5576171875 c 6,17,-1
 1161.81445312 644.818359375 l 1,18,-1
 1342.26757812 644.911132812 l 1,19,-1
 1342.26757812 419.294921875 l 6,20,21
 1342 184 1342 184 1566.40722656 184 c 2,22,-1
 1594.9765625 184 l 2,23,24
 1619.9765625 184 1619.9765625 184 1619.9765625 99 c 2,25,-1
 1619.9765625 88 l 2,26,27
 1620 0 1620 0 1594.9765625 0 c 2,0,-1
EndSplineSet
EndChar

StartChar: uniFBE8
Encoding: 64488 64488 118
Width: 687
VWidth: 2553
GlyphClass: 2
Flags: W
AnchorPoint: "Anchor-10" 379.938 1220.35 basechar 0
AnchorPoint: "Anchor-7" 417.497 -142.32 basechar 0
LayerCount: 2
Fore
SplineSet
-5.0234375 0 m 2,0,1
 -80.0234375 0.0218717969611 -80.0234375 0.0218717969611 -80.0234375 88 c 2,2,-1
 -80.0234375 99 l 2,3,4
 -80.0000224091 183.918729795 -80.0000224091 183.918729795 -5.0234375 184 c 2,5,-1
 207.59765625 184.23046875 l 2,6,7
 407.56640625 184.000498646 407.56640625 184.000498646 407.56640625 404.623046875 c 2,8,-1
 407.56640625 690.689453125 l 5,9,-1
 586.322265625 690.689453125 l 1,10,-1
 586.322265625 410.48828125 l 2,11,12
 585.999864687 -0.172356555529 585.999864687 -0.172356555529 222.688476562 -0.06640625 c 2,13,-1
 -5.0234375 0 l 2,0,1
EndSplineSet
EndChar

StartChar: uniFBE9
Encoding: 64489 64489 119
Width: 847
VWidth: 2553
GlyphClass: 2
Flags: W
AnchorPoint: "Anchor-10" 379.939 1126.45 basechar 0
AnchorPoint: "Anchor-7" 358.812 -147.016 basechar 0
LayerCount: 2
Fore
SplineSet
852.2265625 0 m 6,0,-1
 831.33203125 0 l 6,1,2
 619 0 619 0 522.498046875 149.439453125 c 5,3,4
 408 0 408 0 166.1484375 0 c 6,5,-1
 -5.0234375 0 l 6,6,7
 -80.0234375 0 -80.0234375 0 -80.0234375 88 c 6,8,-1
 -80.0234375 99 l 6,9,10
 -80 184 -80 184 -5.0234375 184 c 6,11,-1
 171.162109375 184 l 6,12,13
 422.671875 184 422.671875 184 422.671875 397.358398438 c 6,14,-1
 422.671875 647.372070312 l 5,15,-1
 607.15625 647.372070312 l 5,16,-1
 607.15625 397.380859375 l 6,17,18
 607 184 607 184 830.405273438 184 c 6,19,-1
 852.2265625 184 l 6,20,21
 877.2265625 184 877.2265625 184 877.2265625 99 c 6,22,-1
 877.2265625 88 l 6,23,24
 877 0 877 0 852.2265625 0 c 6,0,-1
EndSplineSet
EndChar

StartChar: uniFE73
Encoding: 65139 65139 127
Width: 683
VWidth: 2553
GlyphClass: 2
Flags: W
AnchorPoint: "Anchor-10" 252.404 1490.29 basechar 0
AnchorPoint: "Anchor-7" 252.404 -142.32 basechar 0
LayerCount: 2
Fore
SplineSet
342.298828125 400.2109375 m 2,0,1
 342.298828125 320.515620792 342.298828125 320.515620792 408.206542969 254.607908052 c 128,-1,2
 474.114257812 188.700195312 474.114257812 188.700195312 609.067382812 188.700195312 c 2,3,-1
 677.61328125 188.700195312 l 1,4,-1
 677.61328125 8.9091796875 l 1,5,-1
 539.997070312 8.9091796875 l 2,6,7
 372.288085938 8.9091796875 372.288085938 8.9091796875 267.398925781 113.798339844 c 128,-1,8
 162.509765625 218.6875 162.509765625 218.6875 162.509765625 385.141601562 c 2,9,-1
 162.509765625 413.498046875 l 1,10,-1
 342.298828125 413.498046875 l 1,11,-1
 342.298828125 400.2109375 l 2,0,1
EndSplineSet
EndChar

StartChar: uniFE8E
Encoding: 65166 65166 153
Width: 551
VWidth: 2553
GlyphClass: 2
Flags: W
AnchorPoint: "Anchor-10" 250.923 1543.04 basechar 0
AnchorPoint: "Anchor-7" 277.009 -244.554 basechar 0
LayerCount: 2
Fore
SplineSet
556.901367188 0 m 2,0,-1
 531.231445312 0 l 2,1,2
 162.69140625 0 162.69140625 0 162.69140625 417.251953125 c 2,3,-1
 162.69140625 1367.18847656 l 1,4,-1
 336 1367.18847656 l 1,5,-1
 336 426.139648438 l 2,6,7
 336 184 336 184 534.014648438 184 c 2,8,-1
 556.901367188 184 l 2,9,10
 581.901367188 184 581.901367188 184 581.901367188 99 c 2,11,-1
 581.901367188 88 l 2,12,13
 582 0 582 0 556.901367188 0 c 2,0,-1
EndSplineSet
EndChar

StartChar: uniFEA2
Encoding: 65186 65186 173
Width: 1359
VWidth: 2553
GlyphClass: 2
Flags: W
AnchorPoint: "Anchor-7" 471.334 -833.653 basechar 0
AnchorPoint: "Anchor-10" 631.761 1275.94 basechar 0
LayerCount: 2
Fore
SplineSet
275.6875 -177.775390625 m 0,0,1
 273.997506424 -515.49830822 273.997506424 -515.49830822 804.475585938 -515.172851562 c 2,2,-1
 1218.33007812 -514.918945312 l 1,3,-1
 1218.33007812 -695.474609375 l 1,4,-1
 792.448242188 -694.58203125 l 2,5,6
 402 -694 402 -694 241.0546875 -539.833984375 c 0,7,8
 97 -401 97 -401 100.109375 -183.653320312 c 0,9,10
 106 345 106 345 977.4375 454.530273438 c 1,11,12
 976.994427792 475.260712174 976.994427792 475.260712174 942.010742188 491.46875 c 2,13,-1
 724.010742188 592.46875 l 2,14,15
 641 631 641 631 568.987304688 631.418945312 c 0,16,17
 490.523246148 630.997438894 490.523246148 630.997438894 429.010742188 584.46875 c 2,18,-1
 273.010742188 466.46875 l 1,19,-1
 155.3828125 598.612304688 l 1,20,-1
 301.010742188 713.46875 l 2,21,22
 432 817 432 817 560.834960938 817.236328125 c 0,23,24
 652.1858964 816.999518099 652.1858964 816.999518099 761.010742188 765.46875 c 2,25,-1
 1082.01074219 613.46875 l 2,26,27
 1215 550 1215 550 1215.26367188 466.450195312 c 0,28,-1
 1215.18945312 324.193359375 l 1,29,30
 1136 317 1136 317 1078 305.45703125 c 1,31,32
 1079 184 1079 184 1313.16308594 184 c 2,33,-1
 1363.9765625 184 l 2,34,35
 1388.9765625 184 1388.9765625 184 1388.9765625 99 c 2,36,-1
 1388.9765625 88 l 2,37,38
 1389 0 1389 0 1363.9765625 0 c 2,39,-1
 1311.75683594 0 l 2,40,41
 958 0 958 0 924 265 c 1,42,43
 277 165 277 165 275.6875 -177.775390625 c 0,0,1
EndSplineSet
EndChar

StartChar: uniFEA3
Encoding: 65187 65187 174
Width: 1256
VWidth: 2553
GlyphClass: 2
Flags: W
AnchorPoint: "Anchor-10" 470.912 1239.39 basechar 0
AnchorPoint: "Anchor-7" 425.185 -249.728 basechar 0
LayerCount: 2
Fore
SplineSet
-5.0234375 0 m 2,0,1
 -80.0234375 0 -80.0234375 0 -80.0234375 88 c 2,2,-1
 -80.0234375 99 l 2,3,4
 -80 184 -80 184 -5.0234375 184 c 2,5,-1
 300 184 l 2,6,7
 503.139534884 184 503.139534884 184 685 276 c 2,8,-1
 855 362 l 2,9,10
 961 416 961 416 963 421 c 5,11,-1
 884 463 l 6,12,-1
 663 578 l 6,13,14
 582 620 582 620 511.473632812 619.946289062 c 4,15,16
 434.101601793 619.999929561 434.101601793 619.999929561 368 570 c 6,17,-1
 212 452 l 5,18,-1
 94.3720703125 584.143554688 l 5,19,-1
 240 698 l 6,20,21
 376 804 376 804 501.534179688 804.17578125 c 4,22,23
 608.776373442 804.000365785 608.776373442 804.000365785 704 754 c 6,24,-1
 1003 597 l 6,25,26
 1164 512 1164 512 1164.16015625 418.9375 c 4,27,28
 1163.99925061 311.499625304 1163.99925061 311.499625304 939 199 c 2,29,-1
 775 117 l 2,30,31
 541 0 541 0 302 0 c 2,32,-1
 -5.0234375 0 l 2,0,1
EndSplineSet
EndChar

StartChar: uniFEA4
Encoding: 65188 65188 175
Width: 1299
VWidth: 2553
GlyphClass: 2
Flags: W
AnchorPoint: "Anchor-7" 425.185 -249.728 basechar 0
AnchorPoint: "Anchor-10" 470.912 1239.39 basechar 0
LayerCount: 2
Fore
SplineSet
1164.16015625 418.9375 m 0,0,1
 1163 336 1163 336 1032 251.372070312 c 1,2,3
 1098 184 1098 184 1213.06835938 184 c 2,4,-1
 1303.9765625 184 l 2,5,6
 1328.9765625 184 1328.9765625 184 1328.9765625 99 c 2,7,-1
 1328.9765625 88 l 2,8,9
 1329 0 1329 0 1303.9765625 0 c 2,10,-1
 1216.07324219 0 l 2,11,12
 1001 0 1001 0 897 178 c 1,13,-1
 775 117 l 2,14,15
 541 0 541 0 302 0 c 2,16,-1
 -5.0234375 0 l 2,17,18
 -80.0234375 0 -80.0234375 0 -80.0234375 88 c 2,19,-1
 -80.0234375 99 l 2,20,21
 -80 184 -80 184 -5.0234375 184 c 6,22,-1
 300 184 l 6,23,24
 503.139534884 184 503.139534884 184 685 276 c 2,25,-1
 855 362 l 2,26,27
 959 415 959 415 963 421 c 1,28,-1
 884 463 l 2,29,-1
 663 578 l 2,30,31
 582 620 582 620 511.473632812 619.946289062 c 0,32,33
 434.101601793 619.999929561 434.101601793 619.999929561 368 570 c 2,34,-1
 212 452 l 1,35,-1
 94.3720703125 584.143554688 l 1,36,-1
 240 698 l 2,37,38
 376 804 376 804 501.534179688 804.17578125 c 0,39,40
 608.776373442 804.000365785 608.776373442 804.000365785 704 754 c 2,41,-1
 1003 597 l 2,42,43
 1165 512 1165 512 1164.16015625 418.9375 c 0,0,1
EndSplineSet
EndChar

StartChar: uniFEAA
Encoding: 65194 65194 181
Width: 1204
VWidth: 2553
GlyphClass: 2
Flags: W
AnchorPoint: "Anchor-7" 428.382 -242.53 basechar 0
AnchorPoint: "Anchor-10" 403.659 1300.16 basechar 0
LayerCount: 2
Fore
SplineSet
1208.9765625 0 m 2,0,-1
 1193.35644531 0 l 2,1,2
 1006 0 1006 0 869 172 c 1,3,4
 804 0 804 0 482.64453125 0 c 2,5,-1
 101.899414062 0 l 1,6,-1
 101.899414062 184 l 1,7,-1
 469.596679688 184 l 2,8,9
 731 184 731 184 726.510742188 307 c 0,10,11
 724.01171875 378.662109375 724.01171875 378.662109375 624.106445312 494.20703125 c 2,12,-1
 349.762695312 811.498046875 l 1,13,-1
 475.588867188 949.270507812 l 1,14,-1
 1013 302 l 2,15,16
 1111 184 1111 184 1200.41015625 184 c 6,17,-1
 1208.9765625 184 l 6,18,19
 1233.9765625 184 1233.9765625 184 1233.9765625 99 c 2,20,-1
 1233.9765625 88 l 2,21,22
 1234 0 1234 0 1208.9765625 0 c 2,0,-1
EndSplineSet
EndChar

StartChar: uniFEAE
Encoding: 65198 65198 185
Width: 883
VWidth: 2553
GlyphClass: 2
Flags: W
AnchorPoint: "Anchor-10" 450.527 955.269 basechar 0
AnchorPoint: "Anchor-7" 297.433 -667.366 basechar 0
LayerCount: 2
Fore
SplineSet
888.022460938 0 m 2,0,-1
 871.923828125 0 l 2,1,2
 707 0 707 0 664.3828125 78.0068359375 c 1,3,-1
 664.383789062 -17.318359375 l 2,4,5
 664.000280487 -452.681587835 664.000280487 -452.681587835 125.353515625 -452.412109375 c 2,6,-1
 21.8974609375 -452.360351562 l 1,7,-1
 21.900390625 -269.196289062 l 1,8,-1
 120.57421875 -269.265625 l 2,9,10
 481.584960938 -269.999156689 481.584960938 -269.999156689 481.584960938 -18.5009765625 c 2,11,-1
 481.584960938 608.626953125 l 1,12,-1
 663.209960938 609.6796875 l 1,13,-1
 663.209960938 385.16015625 l 2,14,15
 663 184 663 184 871.923828125 184 c 2,16,-1
 888.022460938 184 l 2,17,18
 913.022460938 184 913.022460938 184 913.022460938 99 c 2,19,-1
 913.022460938 88 l 2,20,21
 913 0 913 0 888.022460938 0 c 2,0,-1
EndSplineSet
PairPos2: "'kern' Horizontal Kerning lookup 15-1" uniFEFB dx=-100 dy=0 dh=-100 dv=0 dx=0 dy=0 dh=0 dv=0
PairPos2: "'kern' Horizontal Kerning lookup 15-1" uniFEDF dx=-100 dy=0 dh=-100 dv=0 dx=0 dy=0 dh=0 dv=0
PairPos2: "'kern' Horizontal Kerning lookup 15-1" uni062F dx=-100 dy=0 dh=-100 dv=0 dx=0 dy=0 dh=0 dv=0
PairPos2: "'kern' Horizontal Kerning lookup 15-2" uniFB90 dx=-142 dy=0 dh=-142 dv=0 dx=0 dy=0 dh=0 dv=0
PairPos2: "'kern' Horizontal Kerning lookup 15-2" uniFB8E dx=-142 dy=0 dh=-142 dv=0 dx=0 dy=0 dh=0 dv=0
PairPos2: "'kern' Horizontal Kerning lookup 15-2" uni06A9 dx=-142 dy=0 dh=-142 dv=0 dx=0 dy=0 dh=0 dv=0
PairPos2: "'kern' Horizontal Kerning lookup 15-2" uniFEEB dx=-100 dy=0 dh=-100 dv=0 dx=0 dy=0 dh=0 dv=0
PairPos2: "'kern' Horizontal Kerning lookup 15-2" uni0647 dx=-100 dy=0 dh=-100 dv=0 dx=0 dy=0 dh=0 dv=0
PairPos2: "'kern' Horizontal Kerning lookup 15-2" uniFEE7 dx=-100 dy=0 dh=-100 dv=0 dx=0 dy=0 dh=0 dv=0
PairPos2: "'kern' Horizontal Kerning lookup 15-2" uniFEE3 dx=-100 dy=0 dh=-100 dv=0 dx=0 dy=0 dh=0 dv=0
PairPos2: "'kern' Horizontal Kerning lookup 15-2" uni0645 dx=-100 dy=0 dh=-100 dv=0 dx=0 dy=0 dh=0 dv=0
PairPos2: "'kern' Horizontal Kerning lookup 15-2" uniFEDB dx=-142 dy=0 dh=-142 dv=0 dx=0 dy=0 dh=0 dv=0
PairPos2: "'kern' Horizontal Kerning lookup 15-2" uni0643 dx=-100 dy=0 dh=-100 dv=0 dx=0 dy=0 dh=0 dv=0
PairPos2: "'kern' Horizontal Kerning lookup 15-2" uniFED7 dx=-100 dy=0 dh=-100 dv=0 dx=0 dy=0 dh=0 dv=0
PairPos2: "'kern' Horizontal Kerning lookup 15-2" uniFED3 dx=-100 dy=0 dh=-100 dv=0 dx=0 dy=0 dh=0 dv=0
PairPos2: "'kern' Horizontal Kerning lookup 15-2" uni0641 dx=-100 dy=0 dh=-100 dv=0 dx=0 dy=0 dh=0 dv=0
PairPos2: "'kern' Horizontal Kerning lookup 15-2" uniFECF dx=-100 dy=0 dh=-100 dv=0 dx=0 dy=0 dh=0 dv=0
PairPos2: "'kern' Horizontal Kerning lookup 15-2" uniFECB dx=-100 dy=0 dh=-100 dv=0 dx=0 dy=0 dh=0 dv=0
PairPos2: "'kern' Horizontal Kerning lookup 15-2" uniFEC7 dx=-100 dy=0 dh=-100 dv=0 dx=0 dy=0 dh=0 dv=0
PairPos2: "'kern' Horizontal Kerning lookup 15-2" uni0638 dx=-100 dy=0 dh=-100 dv=0 dx=0 dy=0 dh=0 dv=0
PairPos2: "'kern' Horizontal Kerning lookup 15-2" uniFEC3 dx=-100 dy=0 dh=-100 dv=0 dx=0 dy=0 dh=0 dv=0
PairPos2: "'kern' Horizontal Kerning lookup 15-2" uni0637 dx=-100 dy=0 dh=-100 dv=0 dx=0 dy=0 dh=0 dv=0
PairPos2: "'kern' Horizontal Kerning lookup 15-2" uniFEBF dx=-100 dy=0 dh=-100 dv=0 dx=0 dy=0 dh=0 dv=0
PairPos2: "'kern' Horizontal Kerning lookup 15-2" uni0636 dx=-100 dy=0 dh=-100 dv=0 dx=0 dy=0 dh=0 dv=0
PairPos2: "'kern' Horizontal Kerning lookup 15-2" uniFEBB dx=-100 dy=0 dh=-100 dv=0 dx=0 dy=0 dh=0 dv=0
PairPos2: "'kern' Horizontal Kerning lookup 15-2" uni0635 dx=-100 dy=0 dh=-100 dv=0 dx=0 dy=0 dh=0 dv=0
PairPos2: "'kern' Horizontal Kerning lookup 15-2" uniFEB7 dx=-100 dy=0 dh=-100 dv=0 dx=0 dy=0 dh=0 dv=0
PairPos2: "'kern' Horizontal Kerning lookup 15-2" uni0634 dx=-100 dy=0 dh=-100 dv=0 dx=0 dy=0 dh=0 dv=0
PairPos2: "'kern' Horizontal Kerning lookup 15-2" uniFEB3 dx=-100 dy=0 dh=-100 dv=0 dx=0 dy=0 dh=0 dv=0
PairPos2: "'kern' Horizontal Kerning lookup 15-2" uni0633 dx=-100 dy=0 dh=-100 dv=0 dx=0 dy=0 dh=0 dv=0
PairPos2: "'kern' Horizontal Kerning lookup 15-2" uniFEA7 dx=-100 dy=0 dh=-100 dv=0 dx=0 dy=0 dh=0 dv=0
PairPos2: "'kern' Horizontal Kerning lookup 15-2" uniFEA3 dx=-100 dy=0 dh=-100 dv=0 dx=0 dy=0 dh=0 dv=0
PairPos2: "'kern' Horizontal Kerning lookup 15-2" uniFE9F dx=-100 dy=0 dh=-100 dv=0 dx=0 dy=0 dh=0 dv=0
PairPos2: "'kern' Horizontal Kerning lookup 15-2" uniFE9B dx=-100 dy=0 dh=-100 dv=0 dx=0 dy=0 dh=0 dv=0
PairPos2: "'kern' Horizontal Kerning lookup 15-2" uni062B dx=-100 dy=0 dh=-100 dv=0 dx=0 dy=0 dh=0 dv=0
PairPos2: "'kern' Horizontal Kerning lookup 15-2" uniFE97 dx=-100 dy=0 dh=-100 dv=0 dx=0 dy=0 dh=0 dv=0
PairPos2: "'kern' Horizontal Kerning lookup 15-2" uni062A dx=-100 dy=0 dh=-100 dv=0 dx=0 dy=0 dh=0 dv=0
PairPos2: "'kern' Horizontal Kerning lookup 15-2" uni0629 dx=-100 dy=0 dh=-100 dv=0 dx=0 dy=0 dh=0 dv=0
PairPos2: "'kern' Horizontal Kerning lookup 15-2" uniFE91 dx=-47 dy=0 dh=-47 dv=0 dx=0 dy=0 dh=0 dv=0
PairPos2: "'kern' Horizontal Kerning lookup 15-2" uni0628 dx=-100 dy=0 dh=-100 dv=0 dx=0 dy=0 dh=0 dv=0
PairPos2: "'kern' Horizontal Kerning lookup 15-2" uni0627 dx=-100 dy=0 dh=-100 dv=0 dx=0 dy=0 dh=0 dv=0
PairPos2: "'kern' Horizontal Kerning lookup 15-2" uni0622 dx=-100 dy=0 dh=-100 dv=0 dx=0 dy=0 dh=0 dv=0
PairPos2: "'kern' Horizontal Kerning lookup 15-2" uni0621 dx=-100 dy=0 dh=-100 dv=0 dx=0 dy=0 dh=0 dv=0
PairPos2: "'kern' Horizontal Kerning lookup 15-2" uniFB94 dx=-142 dy=0 dh=-142 dv=0 dx=0 dy=0 dh=0 dv=0
PairPos2: "'kern' Horizontal Kerning lookup 15-2" uniFB92 dx=-142 dy=0 dh=-142 dv=0 dx=0 dy=0 dh=0 dv=0
PairPos2: "'kern' Horizontal Kerning lookup 15-2" afii57509 dx=-142 dy=0 dh=-142 dv=0 dx=0 dy=0 dh=0 dv=0
PairPos2: "'kern' Horizontal Kerning lookup 15-2" uniFB7C dx=-100 dy=0 dh=-100 dv=0 dx=0 dy=0 dh=0 dv=0
PairPos2: "'kern' Horizontal Kerning lookup 15-2" afii57506 dx=-100 dy=0 dh=-100 dv=0 dx=0 dy=0 dh=0 dv=0
PairPos2: "'kern' Horizontal Kerning lookup 15-2" afii57440 dx=-100 dy=0 dh=-100 dv=0 dx=0 dy=0 dh=0 dv=0
EndChar

StartChar: uniFEB2
Encoding: 65202 65202 189
Width: 2632
VWidth: 2553
GlyphClass: 2
Flags: W
AnchorPoint: "Anchor-10" 1778.4 1065.57 basechar 0
AnchorPoint: "Anchor-7" 691 -665.5 basechar 0
LayerCount: 2
Fore
SplineSet
1885.80957031 385.619140625 m 2,0,1
 1886.85437668 184.000932336 1886.85437668 184.000932336 2048.37792969 182.966796875 c 0,2,3
 2206.87286984 182.000774855 2206.87286984 182.000774855 2206.66210938 384.674804688 c 2,4,-1
 2206.38867188 647.62109375 l 1,5,-1
 2391.50585938 647.62109375 l 1,6,-1
 2392.53027344 387.479492188 l 2,7,8
 2393.0001533 183.93359375 2393.0001533 183.93359375 2609.88574219 183.93359375 c 6,9,-1
 2637.31738281 183.93359375 l 6,10,11
 2662.31738281 184.000853888 2662.31738281 184.000853888 2662.31738281 98.93359375 c 6,12,-1
 2662.31738281 87.93359375 l 6,13,14
 2661.99976032 -0.06640625 2661.99976032 -0.06640625 2637.31738281 -0.06640625 c 6,15,-1
 2617.31347656 -0.06640625 l 6,16,17
 2405 -0 2405 -0 2307.93847656 147.110351562 c 1,18,19
 2263 -1 2263 -1 2056.42285156 -1.06640625 c 0,20,21
 1854 -1 1854 -1 1798.88964844 149.110351562 c 1,22,23
 1749 -3 1749 -3 1533.36230469 -1.06640625 c 0,24,25
 1388 0 1388 0 1329.57128906 82.068359375 c 1,26,-1
 1329.57128906 53.86328125 l 2,27,28
 1329.99994942 -450.940429688 1329.99994942 -450.940429688 748.819335938 -450.940429688 c 2,29,-1
 694.1015625 -450.940429688 l 2,30,31
 101.316934928 -450.999968167 101.316934928 -450.999968167 101.12109375 103.276367188 c 2,32,-1
 101 446 l 1,33,-1
 281.877929688 446.033203125 l 1,34,-1
 281.877929688 104.44921875 l 2,35,36
 281.999881257 -265.639648438 281.999881257 -265.639648438 696.272460938 -265.639648438 c 2,37,-1
 747.385742188 -265.639648438 l 2,38,39
 1162.34551577 -266.000300296 1162.34551577 -266.000300296 1162.16210938 48.5576171875 c 2,40,-1
 1161.81445312 644.818359375 l 1,41,-1
 1342.26757812 644.911132812 l 1,42,-1
 1342.26757812 399.294921875 l 2,43,44
 1342 184 1342 184 1533.98144531 182.93359375 c 0,45,46
 1696.05602073 181.999677194 1696.05602073 181.999677194 1696.61328125 383.674804688 c 2,47,-1
 1697.33984375 646.62109375 l 1,48,-1
 1884.45703125 646.62109375 l 1,49,-1
 1885.80957031 385.619140625 l 2,0,1
EndSplineSet
EndChar

StartChar: uniFEB3
Encoding: 65203 65203 190
Width: 1613
VWidth: 2553
GlyphClass: 2
Flags: W
AnchorPoint: "Anchor-10" 774.679 1113.53 basechar 0
AnchorPoint: "Anchor-7" 904.307 -327.179 basechar 0
LayerCount: 2
Fore
SplineSet
1014.34570312 386.685546875 m 2,0,1
 1015.39087022 184.997727434 1015.39087022 184.997727434 1186.99511719 184 c 0,2,3
 1333.484375 182.996682474 1333.484375 182.996682474 1333.484375 372.9921875 c 2,4,-1
 1333.484375 690.362304688 l 5,5,-1
 1512.2421875 690.362304688 l 1,6,-1
 1512.2421875 365.029296875 l 2,7,8
 1512 0 1512 0 1194.95898438 0 c 0,9,10
 984 0 984 0 927.42578125 148.176757812 c 1,11,12
 880 0 880 0 651.8984375 0 c 0,13,14
 444 0 444 0 386.506835938 148.888671875 c 1,15,16
 317 0 317 0 58.82421875 0 c 2,17,-1
 -5.0234375 0 l 2,18,19
 -80.0234375 0 -80.0234375 0 -80.0234375 88 c 2,20,-1
 -80.0234375 99 l 2,21,22
 -80 184 -80 184 -5.0234375 184 c 2,23,-1
 59.7529296875 184 l 2,24,25
 285.492265457 184 285.492265457 184 285.87890625 385.979492188 c 2,26,-1
 286.379882812 647.6875 l 1,27,-1
 474.487304688 647.6875 l 1,28,-1
 475.108398438 384.181640625 l 2,29,30
 476 185 476 185 652.517578125 184 c 0,31,32
 824.591977483 183.002365589 824.591977483 183.002365589 825.149414062 384.741210938 c 2,33,-1
 825.875976562 647.6875 l 1,34,-1
 1012.99316406 647.6875 l 1,35,-1
 1014.34570312 386.685546875 l 2,0,1
EndSplineSet
EndChar

StartChar: uniFEB4
Encoding: 65204 65204 191
Width: 1761
VWidth: 2548
GlyphClass: 2
Flags: W
AnchorPoint: "Anchor-10" 850.65 1107.67 basechar 0
LayerCount: 2
Fore
SplineSet
1522.01757812 387.545898438 m 2,0,1
 1522.81912343 184 1522.81912343 184 1739.37304688 184 c 6,2,-1
 1766.8046875 184 l 6,3,4
 1791.8046875 184 1791.8046875 184 1791.8046875 99 c 6,5,-1
 1791.8046875 88 l 6,6,7
 1792 0 1792 0 1766.8046875 0 c 6,8,-1
 1746.80078125 0 l 6,9,10
 1534 0 1534 0 1437.42578125 147.176757812 c 1,11,12
 1393 0 1393 0 1178.8984375 0 c 0,13,14
 984 0 984 0 926.506835938 149.888671875 c 1,15,16
 868 0 868 0 651.8984375 0 c 0,17,18
 444 0 444 0 386.506835938 149.888671875 c 1,19,20
 317 0 317 0 58.82421875 0 c 2,21,-1
 -5.0234375 0 l 2,22,23
 -80.0234375 0 -80.0234375 0 -80.0234375 88 c 2,24,-1
 -80.0234375 99 l 2,25,26
 -80 184 -80 184 -5.0234375 184 c 2,27,-1
 59.7529296875 184 l 2,28,29
 285.492265457 184 285.492265457 184 285.87890625 385.979492188 c 2,30,-1
 286.379882812 647.6875 l 1,31,-1
 474.487304688 647.6875 l 1,32,-1
 475.108398438 384.181640625 l 2,33,34
 476 185 476 185 652.517578125 184 c 0,35,36
 825.490345758 182.997157126 825.490345758 182.997157126 825.87890625 385.979492188 c 2,37,-1
 826.379882812 647.6875 l 1,38,-1
 1014.48730469 647.6875 l 1,39,-1
 1015.10839844 384.181640625 l 2,40,41
 1016 185 1016 185 1179.51757812 184 c 0,42,43
 1336.35920687 182.997704491 1336.35920687 182.997704491 1336.14941406 384.741210938 c 2,44,-1
 1335.87597656 647.6875 l 1,45,-1
 1520.99316406 647.6875 l 1,46,-1
 1522.01757812 387.545898438 l 2,0,1
EndSplineSet
EndChar

StartChar: uniFEBA
Encoding: 65210 65210 197
Width: 2602
VWidth: 2553
GlyphClass: 2
Flags: W
AnchorPoint: "Anchor-7" 691 -665.5 basechar 0
AnchorPoint: "Anchor-10" 2006.4 1269.57 basechar 0
LayerCount: 2
Fore
SplineSet
2224.75097656 423.748046875 m 0,0,1
 2185 592 2185 592 2007.29589844 592.013671875 c 0,2,3
 1808 592 1808 592 1623.17871094 184.52734375 c 1,4,-1
 1981.43554688 184.52734375 l 2,5,6
 2128.75131938 185.008995491 2128.75131938 185.008995491 2187.17480469 237 c 0,7,8
 2231 276 2231 276 2231.17480469 349 c 0,9,10
 2231 394 2231 394 2224.75097656 423.748046875 c 0,0,1
1616 0 m 2,11,12
 1382 0 1382 0 1329.57128906 82.068359375 c 1,13,-1
 1329.57128906 53.86328125 l 2,14,15
 1329.57128906 -450.999956058 1329.57128906 -450.999956058 748.819335938 -450.940429688 c 2,16,-1
 694.1015625 -450.940429688 l 2,17,18
 101.000013014 -450.940429688 101.000013014 -450.940429688 101.12109375 103.276367188 c 2,19,-1
 101 446 l 1,20,-1
 281.877929688 446.033203125 l 1,21,-1
 281.877929688 104.44921875 l 2,22,23
 281.877929688 -266.000106182 281.877929688 -266.000106182 696.272460938 -265.639648438 c 2,24,-1
 747.385742188 -265.639648438 l 2,25,26
 1162.00018571 -265.639648438 1162.00018571 -265.639648438 1162.16210938 48.5576171875 c 2,27,-1
 1161.81445312 644.818359375 l 1,28,-1
 1342.26757812 644.911132812 l 1,29,-1
 1342.26757812 419.294921875 l 2,30,31
 1342.26757812 234.933227054 1342.26757812 234.933227054 1438.17480469 211 c 5,32,33
 1669 779 1669 779 2017.67480469 779 c 0,34,35
 2225 779 2225 779 2331.17480469 636.907226562 c 0,36,37
 2413 527 2413 527 2414.73730469 359.46875 c 0,38,39
 2415 312 2415 312 2406.41113281 270 c 1,40,41
 2488 184 2488 184 2586.29296875 184 c 2,42,-1
 2609.15136719 184 l 2,43,44
 2634 184 2634 184 2634.15136719 99 c 2,45,-1
 2634.15136719 88 l 2,46,47
 2634.15136719 0 2634.15136719 0 2609.15136719 0 c 2,48,-1
 2580.16699219 0 l 2,49,50
 2428 0 2428 0 2319.61816406 112 c 1,51,52
 2203 0 2203 0 1961.43945312 0 c 2,53,-1
 1616 0 l 2,11,12
EndSplineSet
EndChar

StartChar: uniFEBB
Encoding: 65211 65211 198
Width: 1645
VWidth: 2553
GlyphClass: 2
Flags: W
AnchorPoint: "Anchor-10" 1002.11 1268.04 basechar 0
AnchorPoint: "Anchor-7" 654.109 -248.146 basechar 0
LayerCount: 2
Fore
SplineSet
1410 86.8729374002 m 0,0,1
 1296 0 1296 0 1091.26464844 0 c 2,2,-1
 751.32421875 0 l 2,3,4
 455 0 455 0 369.004882812 145.799804688 c 1,5,6
 279 0 279 0 58.154296875 0 c 2,7,-1
 -5.0234375 0 l 2,8,9
 -80.0234375 0 -80.0234375 0 -80.0234375 88 c 2,10,-1
 -80.0234375 99 l 2,11,12
 -80 184 -80 184 -5.0234375 184 c 2,13,-1
 51.2724609375 184 l 2,14,15
 267.774414062 184.018586774 267.774414062 184.018586774 267.774414062 397.534179688 c 2,16,-1
 267.774414062 647.1796875 l 1,17,-1
 444.749023438 647.1796875 l 1,18,-1
 445.829101562 393.998046875 l 2,19,20
 447 211 447 211 568 211 c 1,21,22
 799 779 799 779 1147.5 779 c 0,23,24
 1354 779 1354 779 1461 636.907226562 c 0,25,26
 1544 528 1544 528 1544.5625 359.46875 c 0,27,28
 1546 191 1546 191 1410 86.8729374002 c 0,0,1
1354.57617188 423.748046875 m 0,29,30
 1315 592 1315 592 1137.12109375 592.013671875 c 0,31,32
 937 592 937 592 753.00390625 183.52734375 c 5,33,-1
 1111.26074219 183.52734375 l 6,34,35
 1257 184 1257 184 1317 237 c 0,36,37
 1361 276 1361 276 1361 349 c 0,38,39
 1361 394 1361 394 1354.57617188 423.748046875 c 0,29,30
EndSplineSet
EndChar

StartChar: uniFEBC
Encoding: 65212 65212 199
Width: 1734
VWidth: 2553
GlyphClass: 2
Flags: W
AnchorPoint: "Anchor-7" 654.109 -248.146 basechar 0
AnchorPoint: "Anchor-10" 1002.11 1268.04 basechar 0
LayerCount: 2
Fore
SplineSet
1738.9765625 0 m 2,0,-1
 1709.9921875 0 l 2,1,2
 1558 0 1558 0 1449.44335938 112 c 1,3,4
 1333 0 1333 0 1091.26464844 0 c 2,5,-1
 751.32421875 0 l 2,6,7
 455 0 455 0 369.004882812 145.799804688 c 1,8,9
 278.731944683 -0.434225474326 278.731944683 -0.434225474326 58.154296875 -0.0966796875 c 2,10,-1
 -5.0234375 0 l 2,11,12
 -80.0234375 0 -80.0234375 0 -80.0234375 88 c 2,13,-1
 -80.0234375 99 l 2,14,15
 -80 184 -80 184 -5.0234375 184 c 2,16,-1
 51.2724609375 184 l 2,17,18
 267.774414062 184.018586774 267.774414062 184.018586774 267.774414062 397.534179688 c 2,19,-1
 267.774414062 647.1796875 l 1,20,-1
 444.749023438 647.1796875 l 1,21,-1
 445.829101562 393.998046875 l 2,22,23
 447 211 447 211 568 211 c 1,24,25
 799 779 799 779 1147.5 779 c 0,26,27
 1355 779 1355 779 1461 636.907226562 c 0,28,29
 1543 527 1543 527 1544.5625 359.46875 c 0,30,31
 1545 312 1545 312 1536.23632812 270 c 1,32,33
 1618 184 1618 184 1716.11816406 184 c 2,34,-1
 1738.9765625 184 l 2,35,36
 1763.9765625 184 1763.9765625 184 1763.9765625 99 c 2,37,-1
 1763.9765625 88 l 2,38,39
 1764 0 1764 0 1738.9765625 0 c 2,0,-1
1354.57617188 423.748046875 m 0,40,41
 1315 592 1315 592 1137.12109375 592.013671875 c 0,42,43
 937 592 937 592 753.00390625 183.52734375 c 1,44,-1
 1111.26074219 183.52734375 l 2,45,46
 1257 184 1257 184 1317 237 c 0,47,48
 1361 276 1361 276 1361 349 c 0,49,50
 1361 394 1361 394 1354.57617188 423.748046875 c 0,40,41
EndSplineSet
EndChar

StartChar: uniFEC2
Encoding: 65218 65218 205
Width: 1427
VWidth: 2553
GlyphClass: 2
Flags: W
AnchorPoint: "Anchor-10" 438.72 1526.47 basechar 0
AnchorPoint: "Anchor-7" 579.72 -236 basechar 0
LayerCount: 2
Fore
SplineSet
785.264648438 0 m 2,0,-1
 101.770507812 -0.0048828125 l 1,1,-1
 101.770507812 184.200195312 l 5,2,-1
 253 184 l 5,3,4
 266 223 266 223 360.905273438 402.119140625 c 1,5,-1
 360.905273438 1368.64355469 l 1,6,-1
 531 1368.64355469 l 1,7,-1
 531 632.859375 l 1,8,9
 679 779 679 779 841.5 779 c 0,10,11
 1049 779 1049 779 1155 636.907226562 c 0,12,13
 1237 527 1237 527 1238.5625 359.46875 c 0,14,15
 1239 312 1239 312 1230.23632812 270 c 1,16,17
 1312 184 1312 184 1410.11816406 184 c 2,18,-1
 1432.9765625 184 l 2,19,20
 1457.9765625 184 1457.9765625 184 1457.9765625 99 c 2,21,-1
 1457.9765625 88 l 2,22,23
 1458 0 1458 0 1432.9765625 0 c 2,24,-1
 1403.9921875 0 l 2,25,26
 1252 0 1252 0 1143.44335938 112 c 1,27,28
 1027 0 1027 0 785.264648438 0 c 2,0,-1
831.12109375 592.013671875 m 0,29,30
 630 592 630 592 446.6796875 184.52734375 c 1,31,-1
 805.260742188 184.52734375 l 2,32,33
 952 185 952 185 1011 237 c 0,34,35
 1055 276 1055 276 1055 349 c 0,36,37
 1055 394 1055 394 1048.57617188 423.748046875 c 0,38,39
 1009 592 1009 592 831.12109375 592.013671875 c 0,29,30
EndSplineSet
EndChar

StartChar: uniFEC3
Encoding: 65219 65219 206
Width: 1166
VWidth: 2553
GlyphClass: 2
Flags: W
AnchorPoint: "Anchor-10" 268.72 1526.47 basechar 0
AnchorPoint: "Anchor-7" 409.72 -236 basechar 0
LayerCount: 2
Fore
SplineSet
612.724609375 0 m 2,0,-1
 -5.0234375 0 l 2,1,2
 -80.0234375 0 -80.0234375 0 -80.0234375 88 c 2,3,-1
 -80.0234375 99 l 2,4,5
 -80 184 -80 184 -5.0234375 184 c 2,6,-1
 80.7841796875 184 l 1,7,8
 91 214 91 214 188.689453125 399.119140625 c 1,9,-1
 188.689453125 1365.64355469 l 1,10,-1
 358.784179688 1365.64355469 l 1,11,-1
 358.784179688 629.859375 l 1,12,13
 507 776 507 776 669.959960938 776 c 0,14,15
 874 776 874 776 982.459960938 633.907226562 c 0,16,17
 1065 527 1065 527 1066.02246094 356.46875 c 0,18,19
 1068 189 1068 189 931.459960938 85.873046875 c 0,20,21
 818 0 818 0 612.724609375 0 c 2,0,-1
658.581054688 589.013671875 m 0,22,23
 458 589 458 589 274.463867188 184.52734375 c 5,24,-1
 632.720703125 184.52734375 l 6,25,26
 781 185 781 185 838.459960938 234 c 0,27,28
 882 272 882 272 882.459960938 346 c 0,29,30
 883 391 883 391 876.036132812 420.748046875 c 0,31,32
 837 589 837 589 658.581054688 589.013671875 c 0,22,23
EndSplineSet
EndChar

StartChar: uniFEC4
Encoding: 65220 65220 207
Width: 1254
VWidth: 2553
GlyphClass: 2
Flags: W
AnchorPoint: "Anchor-10" 268.72 1526.47 basechar 0
AnchorPoint: "Anchor-7" 409.72 -236 basechar 0
LayerCount: 2
Fore
SplineSet
613.048828125 0 m 1,0,-1
 -5.0234375 0 l 2,1,2
 -80.0234375 0 -80.0234375 0 -80.0234375 88 c 2,3,-1
 -80.0234375 99 l 2,4,5
 -80.0000482332 183.825074201 -80.0000482332 183.825074201 -5.0234375 184 c 2,6,-1
 80.7841796875 184.200195312 l 1,7,8
 91 214 91 214 188.689453125 399.319335938 c 1,9,-1
 188.689453125 1365.84375 l 1,10,-1
 358.784179688 1365.84375 l 1,11,-1
 358.784179688 630.059570312 l 1,12,13
 507 776 507 776 669.284179688 776.200195312 c 0,14,15
 877 776 877 776 982.784179688 634.107421875 c 0,16,17
 1065 524 1065 524 1066.34667969 356.668945312 c 0,18,19
 1067 309 1067 309 1058.02050781 267.200195312 c 1,20,21
 1136.80996049 184.200195312 1136.80996049 184.200195312 1237.90234375 184.200195312 c 2,22,-1
 1260.76074219 184.200195312 l 2,23,24
 1285.76074219 184.001897769 1285.76074219 184.001897769 1285.76074219 96.2001953125 c 2,25,-1
 1285.76074219 85.2001953125 l 2,26,27
 1285.99945694 -2.7998046875 1285.99945694 -2.7998046875 1260.76074219 -2.7998046875 c 2,28,-1
 1231.77636719 -2.7998046875 l 2,29,30
 1080 -3 1080 -3 971.227539062 109.200195312 c 1,31,32
 855 -1 855 -1 613.048828125 0 c 1,0,-1
658.905273438 589.213867188 m 0,33,34
 458 589 458 589 274.463867188 184.727539062 c 1,35,-1
 633.044921875 184.727539062 l 2,36,37
 782 185 782 185 838.784179688 234.200195312 c 0,38,39
 883 273 883 273 882.784179688 346.200195312 c 0,40,41
 883 391 883 391 876.360351562 420.948242188 c 0,42,43
 837 589 837 589 658.905273438 589.213867188 c 0,33,34
EndSplineSet
EndChar

StartChar: uniFECA
Encoding: 65226 65226 213
Width: 1237
VWidth: 2553
GlyphClass: 2
Flags: W
AnchorPoint: "Anchor-7" 310.84 -842 basechar 0
AnchorPoint: "Anchor-10" 678.282 1144.27 basechar 0
LayerCount: 2
Fore
SplineSet
100.109375 -183.653320312 m 0,0,1
 105 139 105 139 495 273 c 1,2,3
 253 447 253 447 255.474609375 573.07421875 c 0,4,5
 258 693 258 693 393.491210938 757.916992188 c 0,6,7
 482 800 482 800 675.141601562 800.323242188 c 0,8,9
 934 800 934 800 1028.20410156 713.126953125 c 0,10,11
 1104 644 1104 644 1104.40527344 571 c 0,12,13
 1105 387 1105 387 813 244 c 1,14,15
 908 184 908 184 1149.4453125 184 c 6,16,-1
 1241.9765625 184 l 6,17,18
 1266.9765625 184 1266.9765625 184 1266.9765625 99 c 2,19,-1
 1266.9765625 88 l 2,20,21
 1267 0 1267 0 1241.9765625 0 c 2,22,-1
 1138.21679688 0 l 2,23,24
 855 0 855 0 649 150 c 1,25,26
 280 34 280 34 275.6875 -177.775390625 c 24,27,28
 269.008053971 -515.592665263 269.008053971 -515.592665263 804.475585938 -515.172851562 c 2,29,-1
 1128.33007812 -514.918945312 l 1,30,-1
 1128.33007812 -695.474609375 l 1,31,-1
 792.448242188 -694.58203125 l 2,32,33
 401 -694 401 -694 241.0546875 -539.833984375 c 0,34,35
 97 -401 97 -401 100.109375 -183.653320312 c 0,0,1
916.823242188 541.212890625 m 0,36,37
 915 631 915 631 671.805664062 631.885742188 c 0,38,39
 458 632 458 632 458.055664062 548.2421875 c 0,40,41
 458 512 458 512 534.385742188 451.069335938 c 0,42,43
 650 358 650 358 663.740234375 350.637695312 c 1,44,45
 782 401 782 401 848 441 c 0,46,47
 918.125777595 488.953656738 918.125777595 488.953656738 916.823242188 541.212890625 c 0,36,37
EndSplineSet
EndChar

StartChar: uniFECB
Encoding: 65227 65227 214
Width: 982
VWidth: 2553
GlyphClass: 2
Flags: W
AnchorPoint: "Anchor-10" 486.602 1253.91 basechar 0
AnchorPoint: "Anchor-7" 421.228 -244.038 basechar 0
LayerCount: 2
Fore
SplineSet
-5.0234375 0 m 2,0,1
 -80.0234375 0 -80.0234375 0 -80.0234375 88 c 2,2,-1
 -80.0234375 99 l 2,3,4
 -80 184 -80 184 -5.0234375 184 c 2,5,-1
 258.684570312 184 l 1,6,7
 117 307 117 307 117.352539062 473.20703125 c 0,8,9
 118 636 118 636 236.946289062 757.623046875 c 0,10,11
 347 870 347 870 524.306640625 870.165039062 c 4,12,13
 721 870 721 870 843 719 c 1,14,-1
 768.681640625 582.89453125 l 1,15,16
 667 682 667 682 528.619140625 681.75 c 4,17,18
 410 682 410 682 344.295898438 594.436523438 c 0,19,20
 305 542 305 542 304.584960938 474.029296875 c 0,21,22
 305 367 305 367 408.8125 284.141601562 c 0,23,24
 493 216 493 216 544.48046875 215.395507812 c 0,25,26
 570.962037043 215.000566173 570.962037043 215.000566173 667.791015625 238.159179688 c 2,27,-1
 882 289.391601562 l 1,28,-1
 882 105 l 1,29,30
 530 0 530 0 264.7578125 0 c 2,31,-1
 -5.0234375 0 l 2,0,1
EndSplineSet
EndChar

StartChar: uniFECC
Encoding: 65228 65228 215
Width: 1104
VWidth: 2553
GlyphClass: 2
Flags: W
AnchorPoint: "Anchor-10" 555.677 1208.6 basechar 0
AnchorPoint: "Anchor-7" 522.382 -239.212 basechar 0
LayerCount: 2
Fore
SplineSet
1108.9765625 0 m 2,0,-1
 1058.58203125 0 l 2,1,2
 776 0 776 0 607.24609375 120.828125 c 1,3,4
 459 0 459 0 35.9580078125 0 c 2,5,-1
 -5.0234375 0 l 2,6,7
 -80.0234375 0 -80.0234375 0 -80.0234375 88 c 2,8,-1
 -80.0234375 99 l 2,9,10
 -80 184 -80 184 -5.0234375 184 c 6,11,-1
 35.330078125 184 l 6,12,13
 367 184 367 184 456.038085938 229.124023438 c 1,14,15
 159 389 159 389 162.474609375 549.07421875 c 0,16,17
 165 658 165 658 304.491210938 724.916992188 c 0,18,19
 399 770 399 770 592.141601562 770.323242188 c 0,20,21
 782 770 782 770 894 723.515625 c 0,22,23
 1024 670 1024 670 1025.34667969 551 c 0,24,25
 1027 393 1027 393 748 223 c 1,26,27
 869 184 869 184 1065.32910156 184 c 6,28,-1
 1108.9765625 184 l 6,29,30
 1133.9765625 184 1133.9765625 184 1133.9765625 99 c 2,31,-1
 1133.9765625 88 l 2,32,33
 1134 0 1134 0 1108.9765625 0 c 2,0,-1
830.823242188 516.212890625 m 0,34,35
 829 601 829 601 598.805664062 601.885742188 c 0,36,37
 365 602 365 602 365.055664062 514.2421875 c 0,38,39
 365 480 365 480 451.385742188 421.069335938 c 0,40,41
 586 330 586 330 608.740234375 320.637695312 c 1,42,43
 629 326 629 326 750 419 c 0,44,45
 832 481 832 481 830.823242188 516.212890625 c 0,34,35
EndSplineSet
EndChar

StartChar: uniFEDA
Encoding: 65242 65242 229
Width: 1969
VWidth: 2553
GlyphClass: 2
Flags: W
AnchorPoint: "Anchor-10" 927.382 1479.15 basechar 0
AnchorPoint: "Anchor-7" 849.692 -230.794 basechar 0
LayerCount: 2
Fore
SplineSet
703.514648438 743.643554688 m 2,0,1
 768.202148438 735.491210938 768.202148438 735.491210938 832.82421875 735.491210938 c 128,-1,2
 897.4453125 735.491210938 897.4453125 735.491210938 953.028320312 757.094726562 c 0,3,4
 1037.05957031 789.754882812 1037.05957031 789.754882812 1037.05957031 841.939453125 c 128,-1,5
 1037.05957031 894.123046875 1037.05957031 894.123046875 946.17578125 908.501953125 c 128,-1,6
 855.29296875 922.880859375 855.29296875 922.880859375 819.223632812 970.057617188 c 0,7,8
 764.521484375 1041.6015625 764.521484375 1041.6015625 788.9921875 1118.515625 c 0,9,10
 836.159179688 1266.76855469 836.159179688 1266.76855469 1100.4453125 1286.41015625 c 2,11,-1
 1129.71484375 1288.58496094 l 1,12,-1
 1129.71484375 1188.15820312 l 1,13,-1
 1104.67480469 1186.12109375 l 2,14,15
 888.592773438 1168.54476636 888.592773438 1168.54476636 888.592773438 1073.37695312 c 0,16,17
 888.592773438 1024.77539062 888.592773438 1024.77539062 942.532226562 1007.42089844 c 0,18,19
 970.375 998.463867188 970.375 998.463867188 1021.78027344 990.90234375 c 128,-1,20
 1073.18457031 983.341796875 1073.18457031 983.341796875 1106.89746094 950.685546875 c 128,-1,21
 1140.609375 918.029296875 1140.609375 918.029296875 1140.609375 860.932617188 c 128,-1,22
 1140.609375 803.8359375 1140.609375 803.8359375 1117.30957031 766.818359375 c 0,23,24
 1004.61328125 587.772460938 1004.61328125 587.772460938 695.8984375 636.025390625 c 2,25,-1
 672.857421875 639.627929688 l 1,26,-1
 672.857421875 747.506835938 l 1,27,-1
 703.514648438 743.643554688 l 2,0,1
1673 148 m 1,28,29
 1588 0 1588 0 1346.62988281 0 c 2,30,-1
 534.767578125 0 l 2,31,32
 100.229577647 3.46744855051e-10 100.229577647 3.46744855051e-10 100.227539062 443.977539062 c 2,33,-1
 100.2265625 656.66015625 l 1,34,-1
 278.984375 656.66015625 l 1,35,-1
 278.984375 444.541015625 l 2,36,37
 279 184 279 184 537.549804688 184 c 6,38,-1
 1351.84667969 184 l 6,39,40
 1577.41601562 184 1577.41601562 184 1577.41601562 450.396484375 c 2,41,-1
 1577.41601562 1367.18847656 l 1,42,-1
 1748.17382812 1367.18847656 l 1,43,-1
 1748.17382812 447.391601562 l 2,44,45
 1747.99998314 194.975520911 1747.99998314 194.975520911 1948.14257812 186.111328125 c 2,46,-1
 1974.734375 184.93359375 l 2,47,48
 1999.734375 184.009815148 1999.734375 184.009815148 1999.734375 97.93359375 c 2,49,-1
 1999.734375 86.93359375 l 2,50,51
 2000.0002006 -1.06640625 2000.0002006 -1.06640625 1974.734375 -1.06640625 c 2,52,-1
 1942.75488281 -1.06640625 l 2,53,54
 1763 -1 1763 -1 1673 148 c 1,28,29
EndSplineSet
EndChar

StartChar: uniFEDB
Encoding: 65243 65243 230
Width: 898
VWidth: 2553
GlyphClass: 2
Flags: W
AnchorPoint: "Anchor-10" 296.18 1446.67 basechar 0
AnchorPoint: "Anchor-7" 329.179 -218.565 basechar 0
LayerCount: 2
Fore
SplineSet
-5.0234375 0 m 2,0,1
 -80.0234375 0.023661190867 -80.0234375 0.023661190867 -80.0234375 88 c 2,2,-1
 -80.0234375 99 l 2,3,4
 -80 184 -80 184 -5.0234375 184 c 2,5,-1
 302.91796875 184 l 2,6,7
 550 184 550 184 550.708007812 315.768554688 c 0,8,9
 551.001732774 370.321826471 551.001732774 370.321826471 439.646484375 497.317382812 c 2,10,-1
 119 863 l 2,11,12
 71 918 71 918 71.6220703125 1000.41113281 c 0,13,14
 72.9945346332 1121.51773464 72.9945346332 1121.51773464 189.275390625 1159.80664062 c 2,15,-1
 816.5 1366.33886719 l 1,16,-1
 816.5 1181.94628906 l 1,17,-1
 247.211914062 995.982421875 l 1,18,-1
 566.962890625 632.473632812 l 2,19,20
 720 458 720 458 721.338867188 320 c 0,21,22
 724.001912646 -0.229994772756 724.001912646 -0.229994772756 301.426757812 -0.0966796875 c 2,23,-1
 -5.0234375 0 l 2,0,1
EndSplineSet
EndChar

StartChar: uniFEDC
Encoding: 65244 65244 231
Width: 1066
VWidth: 2553
GlyphClass: 2
Flags: W
AnchorPoint: "Anchor-7" 340 -260 basechar 0
AnchorPoint: "Anchor-10" 385.1 1598.44 basechar 0
LayerCount: 2
Fore
SplineSet
820.413085938 343.630859375 m 2,0,1
 959.171029485 185.712547754 959.171029485 185.712547754 1046.55273438 184 c 2,2,-1
 1071.06835938 183.51953125 l 2,3,4
 1096.06835938 182.998575512 1096.06835938 182.998575512 1096.06835938 98.51953125 c 2,5,-1
 1096.06835938 87.51953125 l 2,6,7
 1095.99962472 -0.48046875 1095.99962472 -0.48046875 1071.06835938 -0.48046875 c 2,8,-1
 1056.45019531 -0.48046875 l 2,9,10
 852 -0 852 -0 704.50390625 202 c 1,11,12
 636.932320371 -0.202525836202 636.932320371 -0.202525836202 301.426757812 -0.0966796875 c 2,13,-1
 -5.0234375 0 l 2,14,15
 -80.0234375 0 -80.0234375 0 -80.0234375 88 c 2,16,-1
 -80.0234375 99 l 2,17,18
 -80 184 -80 184 -5.0234375 184 c 6,19,-1
 302.91796875 184 l 6,20,21
 550 184 550 184 550.708007812 315.768554688 c 0,22,23
 551.001732774 370.321826471 551.001732774 370.321826471 439.646484375 497.317382812 c 2,24,-1
 119 863 l 2,25,26
 71 918 71 918 71.6220703125 1000.41113281 c 0,27,28
 72.9945346332 1121.51773464 72.9945346332 1121.51773464 189.275390625 1159.80664062 c 2,29,-1
 816.5 1366.33886719 l 1,30,-1
 816.5 1181.94628906 l 1,31,-1
 247.211914062 995.982421875 l 1,32,-1
 820.413085938 343.630859375 l 2,0,1
EndSplineSet
EndChar

StartChar: uniFEDE
Encoding: 65246 65246 233
Width: 1497
VWidth: 2553
GlyphClass: 2
Flags: W
AnchorPoint: "Anchor-7" 691 -665.5 basechar 0
AnchorPoint: "Anchor-10" 604.754 1191.62 basechar 0
LayerCount: 2
Fore
SplineSet
1087.36523438 88.416015625 m 2,0,1
 1086.37695312 1366.63671875 l 1,2,-1
 1255.29882812 1366.63671875 l 1,3,-1
 1255.29882812 433.765625 l 2,4,5
 1255.29882812 184 1255.29882812 184 1474.24902344 184 c 2,6,-1
 1501.9765625 184 l 2,7,8
 1527 184 1527 184 1526.9765625 99 c 2,9,-1
 1526.9765625 88 l 2,10,11
 1526.9765625 0 1526.9765625 0 1501.9765625 0 c 2,12,-1
 1480.84960938 0 l 2,13,14
 1317 0 1317 0 1254.68652344 81.6357421875 c 1,15,-1
 1254.25488281 53.984375 l 2,16,17
 1246.4344641 -447.000140467 1246.4344641 -447.000140467 720.430664062 -446.830078125 c 2,18,-1
 674.186523438 -446.830078125 l 2,19,20
 101.000037393 -446.830078125 101.000037393 -446.830078125 101.12109375 103.276367188 c 2,21,-1
 101 446 l 1,22,-1
 279.877929688 446.033203125 l 1,23,-1
 279.877929688 104.44921875 l 2,24,25
 279.877929688 -261.513784828 279.877929688 -261.513784828 674.356445312 -261.528320312 c 2,26,-1
 727.362304688 -261.530273438 l 2,27,28
 1087.63616498 -261.999526109 1087.63616498 -261.999526109 1087.36523438 88.416015625 c 2,0,1
EndSplineSet
EndChar

StartChar: uniFEDF
Encoding: 65247 65247 234
Width: 600
VWidth: 2553
GlyphClass: 2
Flags: W
AnchorPoint: "Anchor-10" 361.682 1513.64 basechar 0
AnchorPoint: "Anchor-7" 181.01 -242.415 basechar 0
LayerCount: 2
Fore
SplineSet
-5.0234375 0 m 2,0,1
 -80.0234375 0 -80.0234375 0 -80.0234375 88 c 2,2,-1
 -80.0234375 99 l 2,3,4
 -80 184 -80 184 -5.0234375 184 c 2,5,-1
 96.9697265625 184 l 2,6,7
 288.95703125 184 288.95703125 184 288.95703125 402.866210938 c 2,8,-1
 288.95703125 1368.15820312 l 1,9,-1
 459.71484375 1368.15820312 l 1,10,-1
 459.71484375 394.938476562 l 2,11,12
 460 0 460 0 96.173828125 0 c 2,13,-1
 -5.0234375 0 l 2,0,1
EndSplineSet
EndChar

StartChar: uniFEE0
Encoding: 65248 65248 235
Width: 699
VWidth: 2553
GlyphClass: 2
Flags: W
AnchorPoint: "Anchor-10" 357.225 1533.2 basechar 0
AnchorPoint: "Anchor-7" 243.065 -238.554 basechar 0
LayerCount: 2
Fore
SplineSet
704.518554688 0 m 2,0,-1
 659.068359375 0 l 2,1,2
 492 0 492 0 371.234375 139.458007812 c 1,3,4
 263 0 263 0 89.7177734375 0 c 2,5,-1
 -5.0234375 0 l 2,6,7
 -80.0234375 0 -80.0234375 0 -80.0234375 88 c 2,8,-1
 -80.0234375 99 l 2,9,10
 -80 184 -80 184 -5.0234375 184 c 2,11,-1
 87.873046875 184 l 2,12,13
 288.931640625 184 288.931640625 184 288.931640625 439.43359375 c 2,14,-1
 288.931640625 1367.72753906 l 1,15,-1
 459.02734375 1367.72753906 l 1,16,-1
 459.02734375 438.258789062 l 2,17,18
 459 184 459 184 668.973632812 184 c 2,19,-1
 704.518554688 184 l 2,20,21
 729.518554688 184 729.518554688 184 729.518554688 99 c 2,22,-1
 729.518554688 88 l 2,23,24
 730 0 730 0 704.518554688 0 c 2,0,-1
EndSplineSet
EndChar

StartChar: uniFEE2
Encoding: 65250 65250 237
Width: 1370
VWidth: 2553
GlyphClass: 2
Flags: W
AnchorPoint: "Anchor-7" 722.389 -323.648 basechar 0
AnchorPoint: "Anchor-10" 675.565 1150.03 basechar 0
LayerCount: 2
Fore
SplineSet
842.837890625 569.490234375 m 2,0,1
 685.830078125 569.490234375 l 1,2,3
 685.830078125 370.116210938 l 2,4,5
 686 143 686 143 868.740234375 142.890625 c 0,6,7
 1033.09082031 143 1033.09082031 143 1033.08984375 370 c 2,8,9
 1033.08984375 411.822265625 l 2,10,11
 1033 569 1033 569 842.837890625 569.490234375 c 2,0,1
1133.24511719 87 m 1,12,13
 1048 -21 1048 -21 868.740234375 -20.4755859375 c 0,14,15
 509 -20 509 -20 508.889648438 368.30859375 c 2,16,-1
 508.889648438 553.943359375 l 1,17,18
 275 531 275 531 275.010742188 161.032226562 c 2,19,-1
 275.010742188 -496.416992188 l 1,20,-1
 100.94921875 -496.416992188 l 1,21,-1
 100.94921875 153.58984375 l 1,22,-1
 100.954101562 159.58984375 l 0,23,24
 100 745 100 745 583.255859375 744.525390625 c 2,25,-1
 858.190429688 744.5390625 l 2,26,27
 1210 744.556640625 1210 744.556640625 1209.76953125 413 c 2,28,-1
 1209.76953125 369.005859375 l 0,29,30
 1209 184 1209 184 1336.3671875 184 c 2,31,-1
 1374.9765625 184 l 2,32,33
 1400 184 1400 184 1399.9765625 99 c 2,34,-1
 1399.9765625 88 l 2,35,36
 1399.9765625 0 1399.9765625 0 1374.9765625 0 c 2,37,-1
 1340.15429688 0 l 2,38,39
 1211 0 1211 0 1133.24511719 87 c 1,12,13
EndSplineSet
EndChar

StartChar: uniFEE3
Encoding: 65251 65251 238
Width: 990
VWidth: 2553
GlyphClass: 2
Flags: W
AnchorPoint: "Anchor-10" 536.346 1088.25 basechar 0
AnchorPoint: "Anchor-7" 498.389 -243.648 basechar 0
LayerCount: 2
Fore
SplineSet
-5.0234375 0 m 2,0,1
 -80.0234375 0 -80.0234375 0 -80.0234375 88 c 2,2,-1
 -80.0234375 99 l 2,3,4
 -80 184 -80 184 -5.0234375 184 c 6,5,-1
 64.806640625 184 l 6,6,7
 201 184 201 184 201.111328125 262.42578125 c 0,8,9
 201 480 201 480 238.231445312 570.555664062 c 0,10,11
 318 765 318 765 548.309570312 765.006835938 c 0,12,13
 890 765 890 765 889.5 365 c 24,14,15
 889 -15 889 -15 553.368164062 -13.58984375 c 0,16,17
 379 -13 379 -13 282.626953125 81.8740234375 c 1,18,19
 225 0 225 0 67.23046875 0 c 2,20,-1
 -5.0234375 0 l 2,0,1
551.029296875 583.109375 m 0,21,22
 385 583 385 583 381.678710938 379.6875 c 0,23,24
 378 165 378 165 552.587890625 163.83984375 c 0,25,26
 712 163 712 163 711.700195312 378.733398438 c 0,27,28
 712 583 712 583 551.029296875 583.109375 c 0,21,22
EndSplineSet
EndChar

StartChar: uniFEE4
Encoding: 65252 65252 239
Width: 1028
VWidth: 2553
GlyphClass: 2
Flags: W
AnchorPoint: "Anchor-7" 498.389 -243.648 basechar 0
AnchorPoint: "Anchor-10" 536.346 1088.25 basechar 0
LayerCount: 2
Fore
SplineSet
1033.24023438 0 m 2,0,-1
 1004.50195312 0 l 2,1,2
 863 0 863 0 814 83.296875 c 1,3,4
 746 -14 746 -14 553.368164062 -13.58984375 c 0,5,6
 349 -13 349 -13 282.626953125 81.8740234375 c 1,7,8
 225 0 225 0 57.23046875 0 c 2,9,-1
 -5.0234375 0 l 2,10,11
 -80.0234375 0 -80.0234375 0 -80.0234375 88 c 2,12,-1
 -80.0234375 99 l 2,13,14
 -80 184 -80 184 -5.0234375 184 c 2,15,-1
 54.806640625 184 l 2,16,17
 201 184 201 184 201.111328125 262.42578125 c 0,18,19
 201 481 201 481 238.231445312 570.555664062 c 4,20,21
 318 765 318 765 548.309570312 765.006835938 c 0,22,23
 794 765 794 765 855.973632812 561 c 0,24,25
 879 484 879 484 884.184570312 268.44921875 c 0,26,27
 886 184 886 184 998.973632812 184 c 2,28,-1
 1033.24023438 184 l 2,29,30
 1058.24023438 184 1058.24023438 184 1058.24023438 99 c 2,31,-1
 1058.24023438 88 l 2,32,33
 1058 0 1058 0 1033.24023438 0 c 2,0,-1
552.029296875 583.109375 m 0,34,35
 385 583 385 583 381.678710938 375.6875 c 0,36,37
 378 165 378 165 555.587890625 163.83984375 c 0,38,39
 713 163 713 163 712.700195312 374.733398438 c 0,40,41
 713 583 713 583 552.029296875 583.109375 c 0,34,35
EndSplineSet
EndChar

StartChar: uniFEEA
Encoding: 65258 65258 245
Width: 1064
VWidth: 2553
GlyphClass: 2
Flags: W
AnchorPoint: "Anchor-10" 609.183 1271.91 basechar 0
AnchorPoint: "Anchor-7" 429.281 -259.565 basechar 0
LayerCount: 2
Fore
SplineSet
1069.39941406 0 m 2,0,-1
 1023.02050781 0 l 2,1,2
 747 0 747 0 671.940429688 203.891601562 c 1,3,4
 609 193 609 193 523.85546875 192.717773438 c 0,5,6
 109 193 109 193 108.608398438 490.084960938 c 0,7,8
 109 844 109 844 661.940429688 862.990234375 c 1,9,-1
 661.940429688 916.349609375 l 1,10,-1
 832.129882812 916.349609375 l 1,11,-1
 832.129882812 368.956054688 l 2,12,13
 832 184 832 184 1020.06347656 184 c 6,14,-1
 1069.39941406 184 l 6,15,16
 1094.39941406 184 1094.39941406 184 1094.39941406 99 c 2,17,-1
 1094.39941406 88 l 2,18,19
 1094 0 1094 0 1069.39941406 0 c 2,0,-1
661.940429688 383.178710938 m 1,20,-1
 661.940429688 684.11328125 l 1,21,22
 285 665 285 665 285.049804688 496.546875 c 0,23,24
 285 368.0390625 285 368.0390625 518.720703125 369.512695312 c 0,25,26
 606 370 606 370 661.940429688 383.178710938 c 1,20,-1
EndSplineSet
EndChar

StartChar: uniFEEB
Encoding: 65259 65259 246
Width: 1303
VWidth: 2553
GlyphClass: 2
Flags: W
AnchorPoint: "Anchor-10" 592.837 1442.83 basechar 0
AnchorPoint: "Anchor-7" 538.543 -279.197 basechar 0
LayerCount: 2
Fore
SplineSet
-5.0234375 0 m 2,0,1
 -80.0234375 0 -80.0234375 0 -80.0234375 88 c 2,2,-1
 -80.0234375 99 l 2,3,4
 -80 184 -80 184 -5.0234375 184 c 6,5,-1
 263.69140625 184 l 1,6,7
 143 261 143 261 143.353515625 423.325195312 c 0,8,9
 143 546 143 546 205.134765625 642.346679688 c 0,10,11
 310 804 310 804 485.571289062 804.140625 c 0,12,13
 578 804 578 804 644 766 c 1,14,-1
 739.844726562 906.895507812 l 1,15,16
 1200 536 1200 536 1199.48828125 257.893554688 c 0,17,18
 1199 81 1199 81 1071 -11 c 0,19,20
 1012 -53 1012 -53 909.280273438 -53.2421875 c 0,21,22
 653 -53 653 -53 460.094726562 57.3291015625 c 1,23,24
 268 0 268 0 70.302734375 0 c 2,25,-1
 -5.0234375 0 l 2,0,1
471.174804688 239.8671875 m 1,26,27
 642 365 642 365 642.576171875 510.654296875 c 0,28,29
 643 588 643 588 575.725585938 621.46875 c 0,30,31
 546 636 546 636 513.09765625 636.301757812 c 0,32,33
 475 636 475 636 445.850585938 623.737304688 c 0,34,35
 367 589 367 589 334.452148438 493.588867188 c 0,36,37
 321 454 321 454 321.375 419.903320312 c 0,38,39
 321 368 321 368 351.5 330 c 0,40,41
 401 266 401 266 471.174804688 239.8671875 c 1,26,27
639.65625 173.368164062 m 1,42,43
 774 118 774 118 881.104492188 118.20703125 c 0,44,45
 930 118 930 118 959 143 c 0,46,47
 1022 198 1022 198 1021.7890625 260.930664062 c 0,48,49
 1022 389 1022 389 766 632 c 1,50,51
 807 551 807 551 806.8515625 457.911132812 c 0,52,53
 807 278 807 278 639.65625 173.368164062 c 1,42,43
EndSplineSet
EndChar

StartChar: uniFEEC
Encoding: 65260 65260 247
Width: 941
VWidth: 2553
GlyphClass: 2
Flags: W
AnchorPoint: "Anchor-7" 138.183 -652.715 basechar 0
AnchorPoint: "Anchor-10" 395.514 1176.02 basechar 0
LayerCount: 2
Fore
SplineSet
946.715820312 0 m 2,0,-1
 750.204101562 0 l 1,1,2
 825 -91 825 -91 825.274414062 -201.8984375 c 0,3,4
 825 -335 825 -335 771.506835938 -402 c 0,5,6
 723 -462 723 -462 624 -462.444335938 c 0,7,8
 435 -462 435 -462 307.407226562 -301 c 0,9,10
 216 -185 216 -185 187.209960938 0 c 1,11,-1
 -5.0234375 0 l 2,12,13
 -80.0234375 0 -80.0234375 0 -80.0234375 88 c 2,14,-1
 -80.0234375 99 l 2,15,16
 -80 184 -80 184 -5.0234375 184 c 2,17,-1
 187.209960938 184 l 1,18,19
 210 479 210 479 314.974609375 632 c 0,20,21
 407 766 407 766 533.782226562 765.532226562 c 0,22,23
 650 766 650 766 739.5625 665 c 0,24,25
 822 573 822 573 821.818359375 430.123046875 c 0,26,27
 822 272 822 272 751.688476562 184 c 1,28,-1
 946.715820312 184 l 6,29,30
 971.715820312 184 971.715820312 184 971.715820312 99 c 2,31,-1
 971.715820312 88 l 2,32,33
 972 0 972 0 946.715820312 0 c 2,0,-1
349.48046875 1.01953125 m 1,34,35
 365 -118 365 -118 426.643554688 -193 c 0,36,37
 501 -285 501 -285 609.706054688 -284.889648438 c 0,38,39
 676 -285 676 -285 676.010742188 -182.9296875 c 0,40,41
 675.999998859 1.01953125 675.999998859 1.01953125 452 1.01953125 c 2,42,-1
 349.48046875 1.01953125 l 1,34,35
660.015625 388.970703125 m 0,43,44
 660 500 660 500 599.5625 559 c 0,45,46
 567 591 567 591 536.434570312 591.168945312 c 0,47,48
 502 591 502 591 470.705078125 549 c 0,49,50
 375 418 375 418 349.48046875 184.084960938 c 1,51,-1
 467.505859375 185.092773438 l 2,52,53
 660 187 660 187 660.015625 388.970703125 c 0,43,44
EndSplineSet
EndChar

StartChar: uniFEEE
Encoding: 65262 65262 249
Width: 933
VWidth: 2553
GlyphClass: 2
Flags: W
AnchorPoint: "Anchor-7" 367.433 -667.366 basechar 0
AnchorPoint: "Anchor-10" 438.019 1061.88 basechar 0
LayerCount: 2
Fore
SplineSet
938.352539062 0 m 2,0,-1
 785.920898438 0 l 1,1,2
 778.005826958 -450.668224754 778.005826958 -450.668224754 244.75390625 -450.412109375 c 2,3,-1
 139.0234375 -450.361328125 l 1,4,-1
 138.920898438 -267.1953125 l 1,5,-1
 238.883789062 -267.265625 l 2,6,7
 610.924284053 -267.999850574 610.924284053 -267.999850574 610.900390625 -20.1533203125 c 2,8,-1
 610.8984375 0.1064453125 l 1,9,-1
 421.0390625 0.1064453125 l 2,10,11
 100 0 100 0 101.076171875 363.728515625 c 0,12,13
 103 728 103 728 449.5703125 728.58984375 c 0,14,15
 783.722257007 728.999659366 783.722257007 728.999659366 784.659179688 356.953125 c 2,16,-1
 785.094726562 184 l 1,17,-1
 938.352539062 184 l 2,18,19
 963.352539062 184 963.352539062 184 963.352539062 99 c 2,20,-1
 963.352539062 88 l 2,21,22
 963 0 963 0 938.352539062 0 c 2,0,-1
445.612304688 553.374023438 m 0,23,24
 272 553 272 553 271.859375 365.225585938 c 0,25,26
 271.999958465 184.053527326 271.999958465 184.053527326 420 184 c 2,27,-1
 611.709960938 184 l 1,28,-1
 611.258789062 351 l 2,29,30
 611 554 611 554 445.612304688 553.374023438 c 0,23,24
EndSplineSet
EndChar

StartChar: uniFEF0
Encoding: 65264 65264 251
Width: 1433
VWidth: 2553
GlyphClass: 2
Flags: W
AnchorPoint: "Anchor-7" 641 -665.5 basechar 0
AnchorPoint: "Anchor-10" 646.973 753.354 basechar 0
LayerCount: 2
Fore
SplineSet
1437.9765625 0 m 2,0,-1
 1335.71484375 0 l 1,1,-1
 1334.71484375 -76.86328125 l 2,2,3
 1330 -451 1330 -451 740.879882812 -451 c 2,4,-1
 692.252929688 -451 l 2,5,6
 100.633789062 -451 100.633789062 -451 100.243164062 100.669921875 c 2,7,-1
 100 444 l 25,8,-1
 279.000976562 443 l 1,9,-1
 279.000976562 101.841796875 l 2,10,11
 279 -266.887695312 279 -266.887695312 689.427734375 -266.880859375 c 2,12,-1
 744.692382812 -266.879882812 l 2,13,14
 1159.30566406 -267 1159.30566406 -267 1159.30566406 -70.384765625 c 2,15,-1
 1159.30566406 -0.1826171875 l 1,16,-1
 907.569335938 -0.2578125 l 2,17,18
 856 0 856 0 832.111328125 89.841796875 c 0,19,20
 809 176 809 176 838.721679688 184 c 1,21,-1
 1437.9765625 184 l 2,22,23
 1462.9765625 184 1462.9765625 184 1462.9765625 99 c 2,24,-1
 1462.9765625 88 l 2,25,26
 1463 0 1463 0 1437.9765625 0 c 2,0,-1
EndSplineSet
EndChar

StartChar: uniFEFB
Encoding: 65275 65275 262
Width: 1136
VWidth: 2553
GlyphClass: 3
Flags: W
AnchorPoint: "Anchor-9" 909.69 1557 baselig 0
AnchorPoint: "Anchor-6" 847.69 -206.5 baselig 0
AnchorPoint: "Anchor-9" 247.5 1546.9 baselig 1
AnchorPoint: "Anchor-6" 243.087 -212.797 baselig 1
LayerCount: 2
Fore
SplineSet
156.5859375 1368.69726562 m 1,0,-1
 326.681640625 1368.69726562 l 1,1,-1
 326.681640625 250.924804688 l 1,2,-1
 156.5859375 250.924804688 l 1,3,-1
 156.5859375 1368.69726562 l 1,0,-1
1006.70898438 393.971679688 m 2,4,5
 1006.70898438 -0.0966796875 1006.70898438 -0.0966796875 623.16796875 -0.0966796875 c 2,6,-1
 155.650390625 -0.0966796875 l 1,7,-1
 155.650390625 184.200195312 l 5,8,-1
 630.384765625 184.200195312 l 6,9,10
 835.951171875 184.000047541 835.951171875 184.000047541 835.951171875 411.596679688 c 2,11,-1
 835.951171875 1368.15820312 l 1,12,-1
 1006.70898438 1368.15820312 l 1,13,-1
 1006.70898438 393.971679688 l 2,4,5
EndSplineSet
LCarets2: 1 0
Ligature2: "'rlig' Required Ligatures in Arabic lookup 16 subtable" uniFEDF uniFE8E
EndChar

StartChar: arabic_dot
Encoding: 65536 -1 263
Width: 204
VWidth: 2629
GlyphClass: 2
Flags: W
LayerCount: 2
Fore
SplineSet
-19.8201603181 136.471378679 m 2,0,-1
 51.4110825122 207.702664147 l 2,1,2
 100.77766547 257.51387353 100.77766547 257.51387353 144.941179656 213.350359344 c 2,3,-1
 222.532315923 135.759270765 l 2,4,5
 269.513263164 89.2217241642 269.513263164 89.2217241642 219.693132781 39.4015937811 c 2,6,-1
 148.466444046 -31.8251412973 l 2,7,8
 101.221883212 -79.5134222128 101.221883212 -79.5134222128 54.2306953436 -32.5222343439 c 2,9,-1
 -23.3610583228 45.0694656318 l 2,10,11
 -67.7366213916 89.0007608113 -67.7366213916 89.0007608113 -19.8201603181 136.471378679 c 2,0,-1
EndSplineSet
EndChar

StartChar: arabic_2dots
Encoding: 65537 -1 264
Width: 527
VWidth: 2629
GlyphClass: 2
Flags: W
LayerCount: 2
Fore
SplineSet
310.296203117 134.345101421 m 2,0,-1
 381.541857234 205.590840507 l 2,1,2
 405.803133991 230.070231315 405.803133991 230.070231315 427.786776263 231.341085246 c 0,3,4
 449.570269613 232.600368753 449.570269613 232.600368753 470.819859962 211.229038351 c 2,5,-1
 548.421045723 133.627947668 l 2,6,7
 593.260211678 89.2113133647 593.260211678 89.2113133647 545.57181175 41.5229134368 c 2,8,-1
 474.335263872 -29.7137268264 l 2,9,10
 469.137203353 -34.960527839 469.137203353 -34.960527839 463.987139478 -39.0367774807 c 128,-1,11
 458.837075603 -43.1130271223 458.837075603 -43.1130271223 453.829391701 -45.9734607172 c 128,-1,12
 448.821707799 -48.833894312 448.821707799 -48.833894312 443.887379656 -50.5470899574 c 0,13,14
 429.243801862 -55.631331009 429.243801862 -55.631331009 414.64205688 -50.7612900548 c 0,15,16
 399.743285021 -45.7921833338 399.743285021 -45.7921833338 384.352014954 -30.4009132664 c 2,17,-1
 306.749563042 47.2014312636 l 2,18,19
 264.526757216 89.0015216226 264.526757216 89.0015216226 310.296203117 134.345101421 c 2,0,-1
-17.7037968798 134.345101424 m 2,20,-1
 53.5418915869 205.590875169 l 2,21,22
 100.787196931 253.261701381 100.787196931 253.261701381 142.819859964 211.229038349 c 2,23,-1
 220.421077157 133.62791653 l 2,24,25
 265.260540786 89.2116424726 265.260540786 89.2116424726 217.571811747 41.5229134345 c 2,26,-1
 146.335231842 -29.7137591572 l 2,27,28
 101.2119449 -75.2608432137 101.2119449 -75.2608432137 56.3520149532 -30.4009132664 c 2,29,-1
 -21.2504369581 47.2014312636 l 2,30,31
 -63.4732427832 89.0015216226 -63.4732427832 89.0015216226 -17.7037968798 134.345101424 c 2,20,-1
EndSplineSet
EndChar

StartChar: arabic_3dots
Encoding: 65538 -1 265
Width: 527
VWidth: 2629
GlyphClass: 2
Flags: W
LayerCount: 2
Fore
SplineSet
148.707112427 442.9275836 m 2,0,-1
 219.962385166 514.182969634 l 2,1,2
 265.7939257 560.426545488 265.7939257 560.426545488 306.405646833 519.814824355 c 2,3,-1
 384.013542734 442.207055224 l 2,4,5
 427.425073904 399.204602715 427.425073904 399.204602715 381.157597729 352.93712654 c 2,6,-1
 309.914466413 281.693872044 l 2,7,8
 266.193816228 237.56326779 266.193816228 237.56326779 222.766228026 281.013300785 c 2,9,-1
 145.156643952 358.622741685 l 2,10,11
 104.279663784 398.913514319 104.279663784 398.913514319 148.707112427 442.9275836 c 2,0,-1
311.707112427 132.9275836 m 2,12,-1
 382.962385166 204.182969634 l 2,13,14
 428.991666643 250.626064165 428.991666643 250.626064165 469.405646833 209.814824355 c 2,15,-1
 547.018765102 132.201894714 l 2,16,17
 590.53081233 89.3103411407 590.53081233 89.3103411407 544.157597729 42.9371265406 c 2,18,-1
 472.914466413 -28.306127956 l 2,19,20
 429.204986256 -72.425457445 429.204986256 -72.425457445 385.766228026 -28.9866992149 c 2,21,-1
 308.156643952 48.6227416847 l 2,22,23
 267.279663784 88.9135143189 267.279663784 88.9135143189 311.707112427 132.9275836 c 2,12,-1
-16.2928875667 132.927583606 m 2,24,-1
 54.96243097 204.18301585 l 2,25,26
 100.793551239 250.426919949 100.793551239 250.426919949 141.405646837 209.814824352 c 2,27,-1
 219.013584647 132.207013706 l 2,28,29
 262.425392533 89.2049213448 262.425392533 89.2049213448 216.157597725 42.9371265369 c 2,30,-1
 144.914423706 -28.3061710638 l 2,31,32
 101.205319359 -72.4257905477 101.205319359 -72.4257905477 57.7662280263 -28.9866992149 c 2,33,-1
 -19.8433560484 48.6227416847 l 2,34,35
 -60.6309903777 89.0020288302 -60.6309903777 89.0020288302 -16.2928875667 132.927583606 c 2,24,-1
EndSplineSet
EndChar

StartChar: arabic_3dots_a
Encoding: 65539 -1 266
Width: 527
VWidth: 2629
GlyphClass: 2
Flags: W
LayerCount: 2
Fore
SplineSet
148.707110698 -247.099456885 m 2,0,1
 104.368937698 -203.173832574 104.368937698 -203.173832574 145.185174562 -162.76622925 c 2,2,-1
 222.76622925 -85.185174562 l 2,3,4
 266.205047848 -41.746355964 266.205047848 -41.746355964 309.940802 -85.892205812 c 2,5,-1
 381.157598875 -157.109002687 l 2,6,7
 427.492572042 -203.443975853 427.492572042 -203.443975853 383.986700438 -246.40564575 c 2,8,-1
 306.394957222 -323.997443096 l 2,9,10
 265.998076795 -364.804520735 265.998076795 -364.804520735 219.937127687 -318.329473875 c 2,11,-1
 148.707110698 -247.099456885 l 2,0,1
311.707110698 62.9005431143 m 2,12,13
 267.368937698 106.826167426 267.368937698 106.826167426 308.185174562 147.23377075 c 2,14,-1
 385.76622925 224.814825438 l 2,15,16
 429.205047848 268.253644036 429.205047848 268.253644036 472.940802 224.107794188 c 2,17,-1
 544.157598875 152.890997313 l 2,18,19
 590.425137289 106.623458899 590.425137289 106.623458899 546.986700438 63.5943542495 c 2,20,-1
 469.40564575 -13.986700438 l 2,21,22
 428.934245203 -54.7401152844 428.934245203 -54.7401152844 382.937127687 -8.32947387555 c 2,23,-1
 311.707110698 62.9005431143 l 2,12,13
-16.2928893028 62.9005431142 m 2,24,25
 -60.6310623025 106.826167426 -60.6310623025 106.826167426 -19.814825438 147.23377075 c 2,26,-1
 58.1221432898 225.170739479 l 2,27,28
 101.554603624 267.90081059 101.554603624 267.90081059 144.940802 224.107794188 c 2,29,-1
 216.157598875 152.890997313 l 2,30,31
 262.425137289 106.623458899 262.425137289 106.623458899 218.986700438 63.5943542495 c 2,32,-1
 141.40564575 -13.986700438 l 2,33,34
 100.79386906 -54.598477129 100.79386906 -54.598477129 54.937127687 -8.32947387554 c 2,35,-1
 -16.2928893028 62.9005431142 l 2,24,25
EndSplineSet
EndChar

StartChar: uni066E.fina
Encoding: 65540 -1 267
Width: 2050
VWidth: 2553
GlyphClass: 2
Flags: W
AnchorPoint: "Anchor-10" 682.312 1239.13 basechar 0
AnchorPoint: "Anchor-7" 682.312 -215.677 basechar 0
LayerCount: 2
Fore
SplineSet
536.549804688 185.200195312 m 6,0,-1
 1351.46484375 184 l 6,1,2
 1623.54757658 184 1623.54757658 184 1623.41796875 402.291992188 c 6,3,-1
 1623.2734375 645.71875 l 5,4,-1
 1806.01074219 645.71875 l 5,5,-1
 1806.18847656 399.938476562 l 6,6,7
 1806 184 1806 184 2038.51269531 184 c 6,8,-1
 2055.89453125 184 l 6,9,10
 2080.89453125 184 2080.89453125 184 2080.89453125 99 c 6,11,-1
 2080.89453125 88 l 6,12,13
 2081 0 2081 0 2055.89453125 0 c 6,14,-1
 2036.70898438 0 l 6,15,16
 1817 0 1817 0 1724.23046875 150.654296875 c 5,17,18
 1641.01913581 0.0346374553459 1641.01913581 0.0346374553459 1348.95996094 0 c 6,19,-1
 533.767578125 -0.0966796875 l 6,20,21
 100.229577647 -5.11683127797e-05 100.229577647 -5.11683127797e-05 100.227539062 443.977539062 c 6,22,-1
 100.2265625 656.66015625 l 5,23,-1
 278.984375 656.66015625 l 5,24,-1
 278.984375 444.541015625 l 6,25,26
 279 186 279 186 536.549804688 185.200195312 c 6,0,-1
EndSplineSet
EndChar

StartChar: uni06A1.fina
Encoding: 65543 -1 268
Width: 2044
VWidth: 2553
GlyphClass: 2
Flags: W
AnchorPoint: "Anchor-10" 474.606 1364.71 basechar 0
AnchorPoint: "Anchor-7" 600.192 -267.906 basechar 0
LayerCount: 2
Fore
SplineSet
1376.2265625 432.081054688 m 0,0,1
 1376.43945312 357.999023438 1376.43945312 357.999023438 1429.94824219 305.5078125 c 128,-1,2
 1483.43945312 252.999023438 1483.43945312 252.999023438 1559.7578125 252.994140625 c 0,3,4
 1635.43945312 252.999023438 1635.43945312 252.999023438 1689.6328125 305.5703125 c 0,5,6
 1743.43945312 357.999023438 1743.43945312 357.999023438 1743.28808594 432.081054688 c 0,7,8
 1743.43945312 505.999023438 1743.43945312 505.999023438 1689.6328125 558.584960938 c 0,9,10
 1635.43945312 610.999023438 1635.43945312 610.999023438 1559.7578125 611.1640625 c 0,11,12
 1483.43945312 610.999023438 1483.43945312 610.999023438 1429.88183594 558.584960938 c 128,-1,13
 1376.43945312 505.999023438 1376.43945312 505.999023438 1376.2265625 432.081054688 c 0,0,1
1557.60644531 80.4482421875 m 1,14,15
 1433.05175781 0.033203125 1433.05175781 0.033203125 1201.42871094 0 c 2,16,-1
 533.767578125 -0.0966796875 l 2,17,18
 100.229492188 -0 100.229492188 -0 100.227539062 443.977539062 c 2,19,-1
 100.2265625 656.66015625 l 1,20,-1
 278.984375 656.66015625 l 1,21,-1
 278.984375 444.541015625 l 2,22,23
 279 183.919921875 279 183.919921875 528.301757812 184 c 2,24,-1
 1309.52929688 184.25 l 1,25,26
 1206 286 1206 286 1205.5703125 433.372070312 c 0,27,28
 1205 587 1205 587 1309.52929688 688.479492188 c 128,-1,29
 1414 790 1414 790 1561.171875 790.354492188 c 0,30,31
 1708 790 1708 790 1812.80957031 688.479492188 c 0,32,33
 1914 590 1914 590 1914.6171875 433.548828125 c 0,34,35
 1915 284 1915 284 1812.80957031 184.25 c 9,36,-1
 2049.54882812 183.999023438 l 6,37,38
 2074.54882812 184 2074.54882812 184 2074.54882812 98.9990234375 c 2,39,-1
 2074.54882812 87.9990234375 l 2,40,41
 2075 -0.0009765625 2075 -0.0009765625 2049.54882812 -0.0009765625 c 2,42,-1
 1913.59570312 -0.0009765625 l 2,43,44
 1710 0 1710 0 1557.60644531 80.4482421875 c 1,14,15
EndSplineSet
EndChar

StartChar: uni06A1.init
Encoding: 65544 -1 269
Width: 855
VWidth: 2553
GlyphClass: 2
Flags: W
AnchorPoint: "Anchor-10" 416.999 1392.33 basechar 0
AnchorPoint: "Anchor-7" 471.628 -205.113 basechar 0
LayerCount: 2
Fore
SplineSet
-5.0234375 0 m 2,0,1
 -80.0234375 0 -80.0234375 0 -80.0234375 88 c 2,2,-1
 -80.0234375 99 l 2,3,4
 -80 184 -80 184 -5.0234375 184 c 6,5,-1
 255.087890625 184 l 6,6,7
 572.92871093 184.000856664 572.92871093 184.000856664 572.928710938 339.958007812 c 2,8,-1
 572.928710938 350.875976562 l 1,9,10
 502 346 502 346 432 346.33984375 c 0,11,12
 214 347 214 347 138.85546875 429.404296875 c 0,13,14
 74 501 74 501 73.9619140625 658.303710938 c 0,15,16
 74 1004 74 1004 416.336914062 1004.38964844 c 0,17,18
 754.987018955 1004.00001494 754.987018955 1004.00001494 754.86328125 695.657226562 c 2,19,-1
 754.727539062 357.400390625 l 2,20,21
 755 0 755 0 252.553710938 0 c 2,22,-1
 -5.0234375 0 l 2,0,1
583 678.5 m 2,23,24
 582.81889839 829.000440436 582.81889839 829.000440436 417.962890625 829.401367188 c 0,25,26
 243 829 243 829 242.833007812 668.990234375 c 0,27,28
 243 523 243 523 427 523 c 0,29,30
 498 523 498 523 583.176757812 531.609375 c 1,31,-1
 583 678.5 l 2,23,24
EndSplineSet
EndChar

StartChar: uni06A1.medi
Encoding: 65545 -1 270
Width: 1022
VWidth: 2553
GlyphClass: 2
Flags: W
AnchorPoint: "Anchor-10" 534.997 1176.33 basechar 0
AnchorPoint: "Anchor-7" 504.997 -205.113 basechar 0
LayerCount: 2
Fore
SplineSet
1027.109375 0 m 2,0,-1
 891.15625 0 l 2,1,2
 688 0 688 0 535.166992188 80.44921875 c 1,3,4
 363 0 363 0 179.987304688 0 c 2,5,-1
 -5.0234375 0 l 2,6,7
 -80.0234375 0 -80.0234375 0 -80.0234375 88 c 2,8,-1
 -80.0234375 99 l 2,9,10
 -80.0000177623 183.935581962 -80.0000177623 183.935581962 -5.0234375 184 c 2,11,-1
 287.08984375 184.250976562 l 17,12,13
 183 287 183 287 183.130859375 433.373046875 c 0,14,15
 183 587 183 587 287.08984375 688.48046875 c 0,16,17
 392 790 392 790 538.732421875 790.35546875 c 0,18,19
 686 790 686 790 790.370117188 688.48046875 c 0,20,21
 892 590 892 590 892.177734375 433.549804688 c 4,22,23
 893 284 893 284 790.370117188 184.250976562 c 9,24,25
 1027.109375 184 l 2,26,27
 1052.109375 184 1052.109375 184 1052.109375 99 c 2,28,-1
 1052.109375 88 l 2,29,30
 1052 0 1052 0 1027.109375 0 c 2,0,-1
353.787109375 432.08203125 m 0,31,32
 354 358 354 358 407.508789062 305.508789062 c 128,-1,33
 461 253 461 253 537.318359375 252.995117188 c 0,34,35
 613 253 613 253 667.193359375 305.571289062 c 0,36,37
 721 358 721 358 720.848632812 432.08203125 c 0,38,39
 721 506 721 506 667.193359375 558.5859375 c 0,40,41
 613 611 613 611 537.318359375 611.165039062 c 0,42,43
 461 611 461 611 407.442382812 558.5859375 c 128,-1,44
 354 506 354 506 353.787109375 432.08203125 c 0,31,32
EndSplineSet
EndChar

StartChar: uni066F.fina
Encoding: 65546 -1 271
Width: 1476
VWidth: 2553
GlyphClass: 2
Flags: W
AnchorPoint: "Anchor-10" 398.276 1051.72 basechar 0
AnchorPoint: "Anchor-7" 515.229 -698.06 basechar 0
LayerCount: 2
Fore
SplineSet
1332.40234375 184 m 1,0,-1
 1481.9765625 184 l 2,1,2
 1506.9765625 184 1506.9765625 184 1506.9765625 99 c 2,3,-1
 1506.9765625 88 l 2,4,5
 1507 0 1507 0 1481.9765625 0 c 2,6,-1
 1333.27929688 0 l 1,7,-1
 1333.15039062 -64.462890625 l 2,8,9
 1332 -452 1332 -452 749.385742188 -452 c 2,10,-1
 691.184570312 -452 l 2,11,12
 101.317884273 -452 101.317884273 -452 101.12109375 103.918945312 c 2,13,-1
 101 446 l 1,14,-1
 279.877929688 446.674804688 l 1,15,-1
 279.877929688 105.092773438 l 2,16,17
 280.000055904 -267.170406346 280.000055904 -267.170406346 693.356445312 -262.711914062 c 2,18,-1
 747.770507812 -262.125 l 2,19,20
 1160 -258 1160 -258 1158.20996094 -61.064453125 c 1,21,-1
 1158.20996094 2.98046875 l 1,22,-1
 967.346679688 2.98046875 l 2,23,24
 646 3 646 3 647.383789062 366.602539062 c 0,25,26
 649 731 649 731 995.877929688 731.463867188 c 0,27,28
 1331.05074208 732.000081178 1331.05074208 732.000081178 1331.96679688 359.827148438 c 2,29,-1
 1332.40234375 184 l 1,0,-1
991.919921875 556.248046875 m 0,30,31
 818.337550558 556.000481419 818.337550558 556.000481419 818.166992188 368.099609375 c 0,32,33
 817.999932927 184.053638591 817.999932927 184.053638591 966.307617188 184 c 2,34,-1
 1158.01757812 184 l 5,35,-1
 1157.56640625 353.874023438 l 2,36,37
 1157 557 1157 557 991.919921875 556.248046875 c 0,30,31
EndSplineSet
EndChar

StartChar: arabic_gaf_bar
Encoding: 65550 -1 273
Width: 657
VWidth: 2391
GlyphClass: 2
Flags: W
LayerCount: 2
Fore
SplineSet
607.461914062 1776.35058594 m 5,0,-1
 15.3857421875 1570.20507812 l 5,1,-1
 15.3857421875 1684.74902344 l 5,2,-1
 607.461914062 1890.89257812 l 5,3,-1
 607.461914062 1776.35058594 l 5,0,-1
EndSplineSet
EndChar

StartChar: guillemotleft
Encoding: 171 171 283
Width: 995
Flags: W
LayerCount: 2
Fore
SplineSet
454.049804688 951.09765625 m 1,0,-1
 420.057617188 891.32421875 l 2,1,2
 302.0546875 683.844687338 302.0546875 683.844687338 302.0546875 478.6171875 c 0,3,4
 302.0546875 271.587222141 302.0546875 271.587222141 420.005859375 65.0107421875 c 2,5,-1
 454.169921875 5.177734375 l 1,6,-1
 297.421875 5.177734375 l 1,7,-1
 285.637695312 23.7392578125 l 2,8,9
 138.0546875 256.19423894 138.0546875 256.19423894 138.0546875 478.6171875 c 0,10,11
 138.0546875 699.097366565 138.0546875 699.097366565 285.604492188 932.47265625 c 2,12,-1
 297.380859375 951.09765625 l 1,13,-1
 454.049804688 951.09765625 l 1,0,-1
830.049804688 951.09765625 m 1,14,-1
 796.057617188 891.32421875 l 2,15,16
 678.0546875 683.841603231 678.0546875 683.841603231 678.0546875 478.6171875 c 0,17,18
 678.0546875 272.036600994 678.0546875 272.036600994 795.745117188 65.4677734375 c 2,19,-1
 830.169921875 5.177734375 l 1,20,-1
 673.421875 5.177734375 l 1,21,-1
 661.637695312 23.7392578125 l 2,22,23
 514.0546875 257.149148194 514.0546875 257.149148194 514.0546875 478.6171875 c 0,24,25
 514.0546875 699.097366565 514.0546875 699.097366565 661.604492188 932.47265625 c 2,26,-1
 673.380859375 951.09765625 l 1,27,-1
 830.049804688 951.09765625 l 1,14,-1
EndSplineSet
EndChar

StartChar: guillemotright
Encoding: 187 187 284
Width: 992
Flags: W
LayerCount: 2
Fore
SplineSet
540.950195312 951.09765625 m 1,0,-1
 697.619140625 951.09765625 l 1,1,-1
 709.395507812 932.47265625 l 2,2,3
 856.9453125 699.096679688 856.9453125 699.096679688 856.9453125 477.861328125 c 128,-1,4
 856.9453125 256.625976562 856.9453125 256.625976562 709.670898438 24.2255859375 c 2,5,-1
 697.578125 5.177734375 l 1,6,-1
 540.830078125 5.177734375 l 1,7,-1
 574.994140625 65.0107421875 l 2,8,9
 692.9453125 271.5859375 692.9453125 271.5859375 692.9453125 477.71484375 c 128,-1,10
 692.9453125 683.842773438 692.9453125 683.842773438 574.942382812 891.32421875 c 2,11,-1
 540.950195312 951.09765625 l 1,0,-1
164.950195312 951.09765625 m 1,12,-1
 321.619140625 951.09765625 l 1,13,-1
 333.395507812 932.47265625 l 2,14,15
 480.9453125 699.096679688 480.9453125 699.096679688 480.9453125 477.64453125 c 128,-1,16
 480.9453125 256.192382812 480.9453125 256.192382812 333.362304688 23.740234375 c 2,17,-1
 321.578125 5.177734375 l 1,18,-1
 164.830078125 5.177734375 l 1,19,-1
 198.994140625 65.0107421875 l 2,20,21
 316.9453125 271.5859375 316.9453125 271.5859375 316.9453125 477.71484375 c 128,-1,22
 316.9453125 683.842773438 316.9453125 683.842773438 198.942382812 891.32421875 c 2,23,-1
 164.950195312 951.09765625 l 1,12,-1
EndSplineSet
EndChar

StartChar: uniFEFC
Encoding: 65276 65276 291
Width: 1243
VWidth: 2553
Flags: W
AnchorPoint: "Anchor-6" 243.087 -212.797 baselig 1
AnchorPoint: "Anchor-9" 247.5 1546.9 baselig 1
AnchorPoint: "Anchor-6" 847.69 -206.5 baselig 0
AnchorPoint: "Anchor-9" 909.69 1557 baselig 0
LayerCount: 2
Fore
SplineSet
1247.9765625 0 m 2,0,-1
 1223.21777344 0 l 2,1,2
 1026 0 1026 0 915.379882812 140.426757812 c 1,3,4
 806.925383642 -0.0966796875 806.925383642 -0.0966796875 637.42578125 -0.0966796875 c 2,5,-1
 155.88671875 -0.0966796875 l 1,6,-1
 155.88671875 184.200195312 l 5,7,-1
 619.995117188 184.200195312 l 6,8,9
 833.081054688 183.99992382 833.081054688 183.99992382 833.081054688 466.403320312 c 2,10,-1
 833.081054688 1368.69726562 l 1,11,-1
 1003.17578125 1368.69726562 l 1,12,-1
 1003.17578125 465.228515625 l 2,13,14
 1003 184 1003 184 1224.83203125 184 c 2,15,-1
 1247.9765625 184 l 2,16,17
 1272.9765625 184 1272.9765625 184 1272.9765625 99 c 2,18,-1
 1272.9765625 88 l 2,19,20
 1273 0 1273 0 1247.9765625 0 c 2,0,-1
156.759765625 1368.69726562 m 1,21,-1
 326.853515625 1368.69726562 l 1,22,-1
 326.853515625 250.924804688 l 1,23,-1
 156.759765625 250.924804688 l 1,24,-1
 156.759765625 1368.69726562 l 1,21,-1
EndSplineSet
LCarets2: 1 0
Ligature2: "'rlig' Required Ligatures in Arabic lookup 16 subtable" uniFEE0 uniFE8E
EndChar

StartChar: NameMe.65562
Encoding: 65562 -1 296
Width: 699
VWidth: 2553
Flags: W
AnchorPoint: "Anchor-10" 373.225 1345.2 basechar 0
AnchorPoint: "Anchor-7" 291.065 -292.554 basechar 0
LayerCount: 2
Fore
SplineSet
704.518554688 0 m 2,0,-1
 659.068359375 0 l 2,1,2
 492 0 492 0 371.234375 139.458007812 c 1,3,4
 263 0 263 0 89.7177734375 0 c 2,5,-1
 -5.0234375 0 l 2,6,7
 -80.0234375 0 -80.0234375 0 -80.0234375 88 c 2,8,-1
 -80.0234375 99 l 2,9,10
 -80 184 -80 184 -5.0234375 184 c 6,11,-1
 87.873046875 184 l 6,12,13
 288.931640625 184 288.931640625 184 288.931640625 439.43359375 c 2,14,-1
 288.931640625 1197.72753906 l 1,15,-1
 459.02734375 1197.72753906 l 1,16,-1
 459.02734375 438.258789062 l 2,17,18
 459 184 459 184 668.973632812 184 c 6,19,-1
 704.518554688 184 l 6,20,21
 729.518554688 184 729.518554688 184 729.518554688 99 c 2,22,-1
 729.518554688 88 l 2,23,24
 730 0 730 0 704.518554688 0 c 2,0,-1
EndSplineSet
EndChar
